<?xml version="1.0" encoding="UTF-8"?>
<svg id="Layer_1" xmlns="http://www.w3.org/2000/svg" xmlns:xlink="http://www.w3.org/1999/xlink" version="1.1" viewBox="0 0 800 800">
  <!-- Generator: Adobe Illustrator 29.1.0, SVG Export Plug-In . SVG Version: 2.1.0 Build 142)  -->
  <defs>
    <style>
      .st0 {
        fill: url(#linear-gradient2);
      }

      .st1 {
        fill: url(#linear-gradient1);
      }

      .st2 {
        fill: url(#linear-gradient9);
      }

      .st3 {
        fill: url(#linear-gradient3);
      }

      .st4 {
        fill: url(#linear-gradient6);
      }

      .st5 {
        fill: url(#linear-gradient8);
      }

      .st6 {
        fill: url(#linear-gradient7);
      }

      .st7 {
        fill: url(#linear-gradient5);
      }

      .st8 {
        fill: url(#linear-gradient4);
      }

      .st9 {
        fill: url(#linear-gradient13);
      }

      .st10 {
        fill: url(#linear-gradient12);
      }

      .st11 {
        fill: url(#linear-gradient15);
      }

      .st12 {
        fill: url(#linear-gradient16);
      }

      .st13 {
        fill: url(#linear-gradient11);
      }

      .st14 {
        fill: url(#linear-gradient10);
      }

      .st15 {
        fill: url(#linear-gradient14);
      }

      .st16 {
        fill: url(#linear-gradient);
      }
    </style>
    <linearGradient id="linear-gradient" x1="548.98" y1="504.3" x2="589.29" y2="378.49" gradientUnits="userSpaceOnUse">
      <stop offset="0" stop-color="#7c64ab"/>
      <stop offset=".19" stop-color="#9d59a3"/>
      <stop offset=".41" stop-color="#bd4e9c"/>
      <stop offset=".62" stop-color="#d44797"/>
      <stop offset=".83" stop-color="#e24294"/>
      <stop offset="1" stop-color="#e74193"/>
    </linearGradient>
    <linearGradient id="linear-gradient1" x1="549.13" y1="382.34" x2="589.45" y2="256.53" xlink:href="#linear-gradient"/>
    <linearGradient id="linear-gradient2" x1="556.76" y1="149.21" x2="579.29" y2="78.93" xlink:href="#linear-gradient"/>
    <linearGradient id="linear-gradient3" x1="495.27" y1="228.2" x2="702.94" y2="108.31" xlink:href="#linear-gradient"/>
    <linearGradient id="linear-gradient4" x1="544.92" y1="319.66" x2="598.57" y2="152.25" xlink:href="#linear-gradient"/>
    <linearGradient id="linear-gradient5" x1="240.89" y1="165.53" x2="240.89" y2="91.75" xlink:href="#linear-gradient"/>
    <linearGradient id="linear-gradient6" x1="306.33" y1="227.83" x2="98.46" y2="107.82" xlink:href="#linear-gradient"/>
    <linearGradient id="linear-gradient7" x1="341.08" y1="324.06" x2="25.33" y2="141.77" xlink:href="#linear-gradient"/>
    <linearGradient id="linear-gradient8" x1="92.65" y1="348.92" x2="332.12" y2="336.45" gradientUnits="userSpaceOnUse">
      <stop offset=".22" stop-color="#e74193"/>
      <stop offset=".35" stop-color="#e24294"/>
      <stop offset=".5" stop-color="#d44797"/>
      <stop offset=".66" stop-color="#bd4e9c"/>
      <stop offset=".82" stop-color="#9d59a3"/>
      <stop offset=".96" stop-color="#7c64ab"/>
    </linearGradient>
    <linearGradient id="linear-gradient9" x1="225.83" y1="503.89" x2="266.14" y2="378.09" xlink:href="#linear-gradient"/>
    <linearGradient id="linear-gradient10" x1="219.56" y1="686.4" x2="283.46" y2="649.51" xlink:href="#linear-gradient"/>
    <linearGradient id="linear-gradient11" x1="225.64" y1="656.12" x2="265.95" y2="530.31" xlink:href="#linear-gradient"/>
    <linearGradient id="linear-gradient12" x1="221.42" y1="593.45" x2="275.08" y2="426.03" xlink:href="#linear-gradient"/>
    <linearGradient id="linear-gradient13" x1="268.6" y1="477.59" x2="682" y2="238.91" xlink:href="#linear-gradient"/>
    <linearGradient id="linear-gradient14" x1="556.07" y1="697.59" x2="578.59" y2="627.31" xlink:href="#linear-gradient"/>
    <linearGradient id="linear-gradient15" x1="548.78" y1="656.53" x2="589.1" y2="530.72" xlink:href="#linear-gradient"/>
    <linearGradient id="linear-gradient16" x1="544.57" y1="593.85" x2="598.22" y2="426.44" xlink:href="#linear-gradient"/>
  </defs>
  <path class="st16" d="M628.49,438.19c14.12.02,25.55,11.48,25.53,25.6-.02,14.12-11.48,25.55-25.6,25.53-11.52-.01-21.24-7.65-24.43-18.13l-84.02-.11c-3.21,10.47-12.95,18.08-24.47,18.06-14.12-.02-25.55-11.48-25.53-25.6.02-14.12,11.48-25.55,25.6-25.53,11.52.01,21.24,7.65,24.43,18.12l84.02.11c3.21-10.47,12.95-18.08,24.47-18.06Z"/>
  <path class="st1" d="M628.58,367.35c-11.52-.01-21.24-7.65-24.43-18.13l-84.02-.11c-3.21,10.47-12.95,18.08-24.47,18.06-14.12-.02-25.55-11.48-25.53-25.6.02-14.12,11.48-25.55,25.6-25.53,11.52.01,21.24,7.65,24.43,18.12l84.02.11c3.21-10.47,12.95-18.08,24.47-18.06,14.12.02,25.55,11.48,25.53,25.6-.02,14.12-11.48,25.55-25.6,25.53Z"/>
  <path class="st0" d="M564.07,100.95c14.12.02,25.55,11.48,25.53,25.6-.02,14.12-11.48,25.55-25.6,25.53-14.12-.02-25.55-11.48-25.53-25.6.02-14.12,11.48-25.55,25.6-25.53Z"/>
  <path class="st3" d="M495.92,163.83c11.52.01,21.24,7.65,24.43,18.13l84.02.11c3.21-10.47,12.95-18.08,24.47-18.06,14.12.02,25.55,11.48,25.53,25.6-.02,14.12-11.48,25.55-25.6,25.53-11.52-.01-21.24-7.65-24.43-18.13l-84.02-.11c-3.21,10.47-12.95,18.08-24.47,18.06-14.12-.02-25.55-11.48-25.53-25.6.02-14.12,11.48-25.55,25.6-25.53Z"/>
  <path class="st8" d="M446.02,239.88c11.52.01,21.24,7.65,24.43,18.13l183.62.23c3.21-10.47,12.95-18.08,24.47-18.06,14.12.02,25.55,11.48,25.53,25.6-.02,14.12-11.48,25.55-25.6,25.53-11.52-.01-21.24-7.65-24.43-18.12l-183.62-.23c-3.21,10.47-12.95,18.08-24.47,18.06-14.12-.02-25.55-11.48-25.53-25.6.02-14.12,11.48-25.55,25.6-25.53Z"/>
  <path class="st7" d="M240.92,100.54c14.12.02,25.55,11.48,25.53,25.6-.02,14.12-11.48,25.55-25.6,25.53-14.12-.02-25.55-11.48-25.53-25.6.02-14.12,11.48-25.55,25.6-25.53Z"/>
  <path class="st4" d="M172.77,163.42c11.52.01,21.24,7.65,24.43,18.13l84.02.11c3.21-10.47,12.95-18.08,24.47-18.06,14.12.02,25.55,11.48,25.53,25.6-.02,14.12-11.48,25.55-25.6,25.53-11.52-.01-21.24-7.65-24.43-18.12l-84.02-.11c-3.21,10.47-12.95,18.08-24.47,18.06-14.12-.02-25.55-11.48-25.53-25.6.02-14.12,11.48-25.55,25.6-25.53Z"/>
  <path class="st6" d="M122.81,290.6c-14.12-.02-25.55-11.48-25.53-25.6.02-14.12,11.48-25.55,25.6-25.53,11.52.01,21.24,7.65,24.43,18.13l183.62.23c3.21-10.47,12.95-18.08,24.47-18.06,14.12.02,25.55,11.48,25.53,25.6-.02,14.12-11.48,25.55-25.6,25.53-11.52-.01-21.24-7.65-24.43-18.13l-183.62-.23c-3.21,10.47-12.95,18.08-24.47,18.06Z"/>
  <path class="st5" d="M172.51,366.78c-14.12-.02-25.55-11.48-25.53-25.6.02-14.12,11.48-25.55,25.6-25.53,11.52.01,21.24,7.65,24.43,18.12l84.02.11c3.21-10.47,12.95-18.08,24.47-18.06,14.12.02,25.55,11.48,25.53,25.6-.02,14.12-11.48,25.55-25.6,25.53-11.52-.01-21.24-7.65-24.43-18.13l-84.02-.11c-3.21,10.47-12.95,18.08-24.47,18.06Z"/>
  <path class="st2" d="M172.42,437.61c11.52.01,21.24,7.65,24.43,18.13l84.02.11c3.21-10.47,12.95-18.08,24.47-18.06,14.12.02,25.55,11.48,25.53,25.6-.02,14.12-11.48,25.55-25.6,25.53-11.52-.01-21.24-7.65-24.43-18.13l-84.02-.11c-3.21,10.47-12.95,18.08-24.47,18.06-14.12-.02-25.55-11.48-25.53-25.6.02-14.12,11.48-25.55,25.6-25.53Z"/>
  <path class="st14" d="M240.17,700.05c-14.12-.02-25.55-11.48-25.53-25.6.02-14.12,11.48-25.55,25.6-25.53,14.12.02,25.55,11.48,25.53,25.6-.02,14.12-11.48,25.55-25.6,25.53Z"/>
  <path class="st13" d="M305.08,641.14c-11.52-.01-21.24-7.65-24.43-18.13l-84.02-.11c-3.21,10.47-12.95,18.08-24.47,18.06-14.12-.02-25.55-11.48-25.53-25.6.02-14.12,11.48-25.55,25.6-25.53,11.52.01,21.24,7.65,24.43,18.12l84.02.11c3.21-10.47,12.95-18.08,24.47-18.06,14.12.02,25.55,11.48,25.53,25.6-.02,14.12-11.48,25.55-25.6,25.53Z"/>
  <path class="st10" d="M354.98,565.08c-11.52-.01-21.24-7.65-24.43-18.12l-183.62-.23c-3.21,10.47-12.95,18.08-24.47,18.06-14.12-.02-25.55-11.48-25.53-25.6.02-14.12,11.48-25.55,25.6-25.53,11.52.01,21.24,7.65,24.43,18.13l183.62.23c3.21-10.47,12.95-18.08,24.47-18.06,14.12.02,25.55,11.48,25.53,25.6-.02,14.12-11.48,25.55-25.6,25.53Z"/>
  <path class="st9" d="M264.27,409.78c-3.77,9.43-12.98,16.09-23.76,16.08-14.12-.02-25.55-11.48-25.53-25.6.02-14.12,11.48-25.55,25.6-25.53,12.23.02,22.44,8.63,24.93,20.11l273.23.34c2.53-11.48,12.75-20.06,24.98-20.05,14.12.02,25.55,11.48,25.53,25.6-.02,14.12-11.48,25.55-25.6,25.53-10.78-.01-19.97-6.7-23.72-16.14l-275.68-.35Z"/>
  <path class="st15" d="M563.31,700.46c-14.12-.02-25.55-11.48-25.53-25.6.02-14.12,11.48-25.55,25.6-25.53,14.12.02,25.55,11.48,25.53,25.6-.02,14.12-11.48,25.55-25.6,25.53Z"/>
  <path class="st11" d="M628.23,641.54c-11.52-.01-21.24-7.65-24.43-18.13l-84.02-.1c-3.21,10.47-12.95,18.08-24.47,18.06-14.12-.02-25.55-11.48-25.53-25.6.02-14.12,11.48-25.55,25.6-25.53,11.52.01,21.24,7.65,24.43,18.13l84.02.1c3.21-10.47,12.95-18.08,24.47-18.06,14.12.02,25.55,11.48,25.53,25.6-.02,14.12-11.48,25.55-25.6,25.53Z"/>
  <path class="st12" d="M678.13,565.49c-11.52-.01-21.24-7.65-24.43-18.12l-183.62-.23c-3.21,10.47-12.95,18.08-24.47,18.06-14.12-.02-25.55-11.48-25.53-25.6.02-14.12,11.48-25.55,25.6-25.53,11.52.01,21.24,7.65,24.43,18.13l183.62.23c3.21-10.47,12.95-18.08,24.47-18.06,14.12.02,25.55,11.48,25.53,25.6-.02,14.12-11.48,25.55-25.6,25.53Z"/>
</svg>