<svg width="1526" height="743" viewBox="0 0 1526 743" fill="none" xmlns="http://www.w3.org/2000/svg">
<g opacity="0.5" filter="url(#filter0_f_311_740)">
<path d="M1504.92 529.741C1501.05 530.036 1499.2 532.522 1496.93 534.256C1465.58 558.408 1434.57 583.006 1400.09 603.202C1379.23 615.416 1382.52 615.538 1372.41 595.44C1352.34 555.574 1339.8 513.255 1324.99 471.685C1313.11 438.354 1300.4 405.364 1281.63 374.724C1263.48 345.078 1240.44 319.861 1207.38 304.519C1172.2 288.194 1136.23 286.484 1099.7 296.436C1086.87 299.921 1086.86 299.851 1077.96 289.611C1033.55 238.468 966.406 222.185 902.544 246.725C865.368 261.007 832.986 282.395 801.67 305.454C768.916 329.577 737.627 355.491 703.265 377.664C694.235 383.494 684.903 388.822 675.316 393.842C669.907 396.685 667.286 395.779 664.374 390.524C650.885 366.067 641.249 340.224 631.846 314.303C618.505 277.569 607.257 240.199 591.24 204.302C577.727 174.031 562.515 144.597 537.893 120.516C494.383 77.9668 443.029 65.8573 385.204 81.772C376.249 84.2354 371.61 82.967 365.684 76.0288C319.656 22.009 249.175 5.9699 184.144 33.0529C146.894 48.5628 114.657 70.9165 82.8889 94.2014C79.5111 96.67 77.4007 99.9653 76.2083 103.801C72.565 115.584 68.981 127.401 65.4816 139.227C64.9036 141.143 63.3335 143.745 65.4138 145.114C68.0856 146.891 69.7307 143.866 71.4982 142.573C77.086 138.501 82.5025 134.246 89.1917 129.124C89.3499 140.097 86.7105 149.073 85.1736 158.152C80.3108 186.858 74.9664 215.486 69.7543 244.136C67.8762 254.461 66.4073 255.515 55.5519 254.164C50.3272 253.508 45.0706 252.728 39.9686 251.435C34.3622 250.023 31.5206 252.275 30.071 256.905C27.0329 266.682 24.1867 276.517 21.0688 286.271C19.3096 291.811 22.0042 293.628 27.3481 294.928C57.5394 302.23 86.1433 297.98 114.002 287.418C147.962 274.551 177.021 254.348 205.505 233.395C237.848 209.593 268.738 184.019 302.514 161.998C318.031 151.89 333.941 142.329 351.057 134.661C356.763 132.106 360.353 132.284 364.357 138.544C382.423 166.898 394.508 197.511 405.757 228.465C419.816 267.209 431.623 306.656 448.534 344.501C459.742 369.585 472.647 393.897 491.793 414.746C529.315 455.587 582.113 469.037 635.579 451.79C641.685 449.816 647.586 444.358 653.908 446.578C659.727 448.614 661.922 455.841 665.824 460.704C683.71 483.016 705.84 500.274 733.857 508.598C763.876 517.51 793.587 515.025 822.42 504.642C858.748 491.552 889.439 470.048 919.722 447.927C956.244 421.256 990.898 392.278 1029.74 368.445C1041.91 360.965 1055.1 355.222 1067.87 348.727C1074.06 345.575 1075.73 350.719 1077.86 354.06C1091.27 375.202 1101.53 397.697 1110.49 420.703C1127.51 464.407 1140.48 509.37 1158.83 552.667C1172.75 585.478 1189.01 617.024 1217.27 641.579C1253.8 673.3 1295.53 680.908 1341.28 669.051C1347.09 667.546 1352.85 665.665 1358.3 663.328C1364.87 660.507 1369.05 661.44 1373.4 667.82C1386.29 686.699 1402.71 702.365 1423.35 713.66C1427.46 715.921 1431.79 717.885 1436.18 719.572C1447.8 724.049 1447.84 723.964 1451.16 713.006C1453.67 704.712 1456.03 696.375 1458.72 688.14C1460.28 683.393 1459.44 680.573 1454.11 678.111C1434.31 668.975 1434.64 668.861 1440.9 648.472C1443.97 638.459 1446.17 628.166 1448.37 617.922C1449.72 611.65 1453.11 607.093 1458.36 603.331C1467.06 597.089 1475.31 590.266 1484.08 584.113C1489.67 580.206 1492.82 575.266 1494.54 568.89C1497.87 556.469 1501.72 544.208 1505.31 531.85C1505.45 531.413 1505.13 530.855 1504.89 529.731L1504.92 529.741ZM828.337 328.475C828.719 326.747 828.767 326.301 832.66 323.626C849.721 311.927 867.81 301.79 887.048 293.562C894.175 290.513 895.196 291.348 894.082 298.564C886.882 344.663 879.581 390.748 872.393 436.868C871.991 439.412 871.093 441.346 868.783 442.59C850.212 452.533 831.518 462.192 810.334 466.756C806.044 467.682 803.809 466.827 804.585 462.175C805.448 457.006 806.262 451.822 807.189 446.672C814.097 407.954 821.032 369.261 828.333 328.49L828.337 328.475ZM157.663 222.823C157.387 226.162 154.533 227.472 152.033 228.939C135.699 238.52 118.251 245.841 99.6299 250.636C91.6531 252.687 90.5499 251.663 91.9667 243.502C99.4231 200.656 106.959 157.833 114.32 114.958C114.935 111.359 117.157 109.545 119.928 107.815C136.54 97.4287 152.915 86.6746 171.495 79.416C174.182 78.3679 177.064 75.4043 179.748 77.4316C182.671 79.6465 180.721 83.3357 180.235 86.3315C175.614 115.045 170.961 143.75 166.24 172.45C163.47 189.251 160.532 206.035 157.679 222.827L157.663 222.823ZM1263.16 421.485C1262.41 423.167 1261.66 424.834 1260.93 426.52C1250.33 450.766 1239.75 475.016 1229.14 499.257C1221.37 517.033 1213.59 534.79 1205.69 552.512C1204.78 554.556 1204.15 557.379 1201.37 557.757C1199.02 558.085 1198.42 555.632 1197.59 554.049C1187.58 534.937 1178.63 515.422 1171.19 495.323C1169.78 491.543 1169.91 488.125 1171.43 484.622C1187.33 447.827 1203.16 411.029 1219.13 374.254C1222.09 367.448 1224.21 367.118 1229.71 372.348C1242.29 384.353 1252.6 398.012 1261.87 412.409C1263.75 415.328 1264.44 418.285 1263.16 421.5L1263.16 421.485ZM563.152 224.519C573.661 246.891 581.722 267.554 589.304 288.417C591.954 295.699 591.845 302.182 589.092 309.051C577.299 338.479 565.554 367.922 554.139 397.482C551.74 403.7 548.762 404.151 543.106 400.881C527.53 391.886 514.251 380.656 503.309 366.708C500.177 362.703 499.957 359.675 502.053 355.273C514.57 328.991 526.695 302.509 538.982 276.125C546.713 259.521 554.503 242.952 563.145 224.484L563.152 224.519ZM485.329 340.091C473.228 319.064 464.921 299.101 457.522 278.786C456.349 275.569 457.697 272.604 458.947 269.674C474.785 232.565 490.665 195.486 506.284 158.294C508.629 152.717 510.988 151.948 515.618 156.307C527.3 167.286 536.967 179.68 545.688 192.842C548.8 197.549 549.457 201.613 547.04 206.79C534.249 234.092 521.884 261.604 509.276 288.993C501.73 305.389 493.964 321.703 485.345 340.095L485.329 340.091ZM1218.7 575.952C1219.43 574.08 1219.75 573.075 1220.17 572.118C1238.34 531.121 1256.5 490.123 1274.68 449.13C1275.3 447.705 1275.62 445.713 1277.43 445.552C1280.03 445.301 1280.15 447.869 1280.87 449.388C1290.37 469.333 1297.84 489.947 1304.87 510.712C1305.98 513.975 1305.35 516.747 1304.11 519.827C1299.79 530.516 1295.91 541.39 1291.72 552.117C1283.88 572.128 1275.95 592.095 1268.07 612.092C1265.61 618.356 1262.01 619.69 1255.45 615.785C1242.68 608.195 1231.76 598.73 1221.77 588.098C1217.98 584.06 1216.55 579.959 1218.72 575.972L1218.7 575.952ZM895.212 423.419C899.02 402.077 902.965 380.744 906.609 359.369C910.403 337.152 914.08 314.915 917.408 292.622C918.52 285.241 922.214 281.667 929.966 280.881C943.98 279.45 957.898 278.567 972.073 280.706C978.879 281.724 980.189 284.143 978.775 290.215C972.464 317.251 966.582 344.366 960.515 371.459C959.771 374.789 959.14 378.267 956.189 380.535C936.737 395.478 917.397 410.569 895.196 423.414L895.212 423.419ZM247.242 153.856C245.843 158.896 244.805 163.897 239.974 167.424C223.126 179.747 206.523 192.357 189.753 204.768C187.94 206.097 186.064 208.903 183.481 207.351C180.985 205.857 182.491 203.004 182.875 200.751C190.186 158.387 197.597 116.037 204.728 73.6347C205.466 69.2836 207.303 67.3538 211.751 66.5407C227.295 63.6801 242.928 63.413 258.763 65.3624C264.041 66.0172 266.051 68.0224 264.871 73.2603C258.865 100.092 253.088 126.976 247.226 153.851L247.242 153.856ZM803.085 344.151C802.565 349.226 802.492 351.836 802.026 354.361C798.383 374.173 794.688 393.985 790.96 413.788C787.814 430.509 784.568 447.216 781.507 463.946C780.812 467.751 779.529 470.21 774.722 469.845C758.237 468.605 742.433 464.987 727.697 457.199C724.057 455.278 722.542 452.732 723.527 448.718C727.663 431.951 731.667 415.16 735.623 398.354C736.41 395.054 738.654 393.05 741.292 391.066C749.626 384.828 757.781 378.372 766.06 372.085C777.708 363.244 789.41 354.453 803.064 344.161L803.085 344.151ZM446.387 245.317C444.819 242.886 444.255 242.272 444.012 241.573C435.778 218.654 427.637 195.713 419.33 172.805C418.058 169.278 418.349 166.059 419.479 162.781C423.74 150.394 428.245 138.065 432.219 125.592C433.933 120.203 437.755 119.497 442.443 120.6C456.496 123.952 470.446 127.587 483.602 133.91C489.951 136.961 490.187 140.34 487.766 145.993C479.783 164.528 472.465 183.346 464.745 201.993C458.947 216.005 452.935 229.919 446.387 245.317ZM1158.95 458.396C1157.69 456.567 1157.07 455.968 1156.81 455.25C1148.62 432.375 1140.44 409.49 1132.27 386.605C1131.34 384.021 1130.9 381.387 1132.12 378.893C1137.82 367.287 1140.7 354.731 1144.47 342.491C1146.31 336.499 1149.84 334.685 1156.05 335.77C1168.68 337.987 1180.77 342.064 1192.47 347.091C1203.95 352.037 1204.11 353.828 1199.47 364.586C1191.82 382.366 1183.9 400.034 1176.89 418.087C1171.7 431.395 1166.58 444.838 1158.96 458.366L1158.95 458.396ZM604.669 332.771C613.497 357.943 621.937 381.796 632.782 404.846C635.218 410.006 631.718 411.319 627.544 412.149C612.138 415.249 596.637 416 580.774 413.68C573.545 412.618 572.559 409.934 574.827 404.268C580.834 389.217 586.193 373.888 592.8 359.1C596.506 350.808 597.703 341.412 604.706 332.766L604.669 332.771ZM1316.63 547.66C1317.59 548.525 1318.17 548.814 1318.31 549.218C1326.79 572.871 1335.47 596.451 1345.58 619.574C1347.69 624.423 1345.12 626.311 1340.73 627.374C1324.52 631.3 1308.08 631.24 1291.44 628.654C1286.16 627.834 1286.01 625.487 1287.67 621.43C1292.15 610.524 1296.27 599.492 1300.56 588.513C1305.86 574.978 1311.2 561.452 1316.63 547.66ZM272.85 142.434C276.938 120.453 280.027 100.572 285.14 81.0885C286.338 76.4815 288.298 72.9926 294.227 75.5883C307.554 81.4036 319.702 88.9857 330.448 98.6127C332.865 100.773 333.983 102.789 330.438 104.829C311.104 115.973 292.812 128.517 272.85 142.434ZM1007.16 290.736C1020.67 296.229 1032.64 304.053 1043.64 313.362C1047.4 316.554 1046.87 319.074 1042.68 321.297C1025.49 330.407 1009.74 341.515 993.903 352.513C992.27 353.649 990.64 356.218 988.343 354.702C986.322 353.368 987.374 350.806 987.806 348.798C991.72 330.63 995.818 312.486 999.52 294.271C1000.52 289.341 1003.1 289.1 1007.16 290.736ZM1422.64 630.378C1421.55 635.164 1420.54 639.383 1419.62 643.631C1418.82 647.322 1420.24 653.015 1416.05 653.906C1412.23 654.711 1409.76 649.391 1406.94 646.549C1404.88 644.479 1401.91 642.069 1406.12 639.606C1411.35 636.56 1415.82 632.315 1422.64 630.378ZM708.561 414.652C707.626 420.754 707.274 424.925 706.278 428.919C705.428 432.315 706.284 437.854 702.735 438.462C698.952 439.097 696.442 434.012 693.504 431.266C689.941 427.937 690.984 425.29 694.668 423.079C698.739 420.622 702.795 418.16 708.561 414.652Z" fill="#D9ADFF"/>
</g>
<defs>
<filter id="filter0_f_311_740" x="0.532715" y="0.131836" width="1524.81" height="742.223" filterUnits="userSpaceOnUse" color-interpolation-filters="sRGB">
<feFlood flood-opacity="0" result="BackgroundImageFix"/>
<feBlend mode="normal" in="SourceGraphic" in2="BackgroundImageFix" result="shape"/>
<feGaussianBlur stdDeviation="10" result="effect1_foregroundBlur_311_740"/>
</filter>
</defs>
</svg>
