<?xml version="1.0" encoding="UTF-8"?>
<svg id="Layer_1" xmlns="http://www.w3.org/2000/svg" xmlns:xlink="http://www.w3.org/1999/xlink" version="1.1" viewBox="0 0 800 800">
  <!-- Generator: Adobe Illustrator 29.1.0, SVG Export Plug-In . SVG Version: 2.1.0 Build 142)  -->
  <defs>
    <style>
      .st0 {
        fill: url(#linear-gradient2);
      }

      .st1 {
        fill: url(#linear-gradient1);
      }

      .st2 {
        fill: url(#linear-gradient9);
      }

      .st3 {
        fill: url(#linear-gradient3);
      }

      .st4 {
        fill: url(#linear-gradient6);
      }

      .st5 {
        fill: url(#linear-gradient8);
      }

      .st6 {
        fill: url(#linear-gradient7);
      }

      .st7 {
        fill: url(#linear-gradient5);
      }

      .st8 {
        fill: url(#linear-gradient4);
      }

      .st9 {
        fill: #010101;
      }

      .st10 {
        fill: url(#linear-gradient18);
      }

      .st11 {
        fill: url(#linear-gradient13);
      }

      .st12 {
        fill: url(#linear-gradient12);
      }

      .st13 {
        fill: url(#linear-gradient15);
      }

      .st14 {
        fill: url(#linear-gradient16);
      }

      .st15 {
        fill: url(#linear-gradient11);
      }

      .st16 {
        fill: url(#linear-gradient10);
      }

      .st17 {
        fill: url(#linear-gradient17);
      }

      .st18 {
        fill: url(#linear-gradient14);
      }

      .st19 {
        fill: url(#linear-gradient);
      }
    </style>
    <linearGradient id="linear-gradient" x1="445.22" y1="339.37" x2="457.52" y2="300.97" gradientUnits="userSpaceOnUse">
      <stop offset="0" stop-color="#7c64ab"/>
      <stop offset=".19" stop-color="#9d59a3"/>
      <stop offset=".41" stop-color="#bd4e9c"/>
      <stop offset=".62" stop-color="#d44797"/>
      <stop offset=".83" stop-color="#e24294"/>
      <stop offset="1" stop-color="#e74193"/>
    </linearGradient>
    <linearGradient id="linear-gradient1" x1="445.26" y1="302.14" x2="457.57" y2="263.74" xlink:href="#linear-gradient"/>
    <linearGradient id="linear-gradient2" x1="447.59" y1="230.98" x2="454.47" y2="209.53" xlink:href="#linear-gradient"/>
    <linearGradient id="linear-gradient3" x1="428.83" y1="255.09" x2="492.21" y2="218.5" xlink:href="#linear-gradient"/>
    <linearGradient id="linear-gradient4" x1="443.98" y1="283.01" x2="460.36" y2="231.91" xlink:href="#linear-gradient"/>
    <linearGradient id="linear-gradient5" x1="351.18" y1="235.96" x2="351.18" y2="213.44" xlink:href="#linear-gradient"/>
    <linearGradient id="linear-gradient6" x1="371.15" y1="254.98" x2="307.7" y2="218.35" xlink:href="#linear-gradient"/>
    <linearGradient id="linear-gradient7" x1="381.76" y1="284.35" x2="285.38" y2="228.71" xlink:href="#linear-gradient"/>
    <linearGradient id="linear-gradient8" x1="305.93" y1="291.94" x2="379.02" y2="288.13" gradientUnits="userSpaceOnUse">
      <stop offset=".22" stop-color="#e74193"/>
      <stop offset=".35" stop-color="#e24294"/>
      <stop offset=".5" stop-color="#d44797"/>
      <stop offset=".66" stop-color="#bd4e9c"/>
      <stop offset=".82" stop-color="#9d59a3"/>
      <stop offset=".96" stop-color="#7c64ab"/>
    </linearGradient>
    <linearGradient id="linear-gradient9" x1="346.58" y1="339.24" x2="358.89" y2="300.84" xlink:href="#linear-gradient"/>
    <linearGradient id="linear-gradient10" x1="344.67" y1="394.95" x2="364.17" y2="383.69" xlink:href="#linear-gradient"/>
    <linearGradient id="linear-gradient11" x1="346.52" y1="385.71" x2="358.83" y2="347.31" xlink:href="#linear-gradient"/>
    <linearGradient id="linear-gradient12" x1="345.24" y1="366.58" x2="361.61" y2="315.48" xlink:href="#linear-gradient"/>
    <linearGradient id="linear-gradient13" x1="359.64" y1="331.21" x2="485.82" y2="258.36" xlink:href="#linear-gradient"/>
    <linearGradient id="linear-gradient14" x1="447.38" y1="398.37" x2="454.26" y2="376.92" xlink:href="#linear-gradient"/>
    <linearGradient id="linear-gradient15" x1="445.16" y1="385.83" x2="457.47" y2="347.43" xlink:href="#linear-gradient"/>
    <linearGradient id="linear-gradient16" x1="443.87" y1="366.7" x2="460.25" y2="315.6" xlink:href="#linear-gradient"/>
    <linearGradient id="linear-gradient17" x1="133.47" y1="559.98" x2="291.47" y2="559.98" gradientUnits="userSpaceOnUse">
      <stop offset="0" stop-color="#e74193"/>
      <stop offset=".17" stop-color="#e24294"/>
      <stop offset=".38" stop-color="#d44797"/>
      <stop offset=".59" stop-color="#bd4e9c"/>
      <stop offset=".81" stop-color="#9d59a3"/>
      <stop offset="1" stop-color="#7c64ab"/>
    </linearGradient>
    <linearGradient id="linear-gradient18" x1="511.37" y1="559.98" x2="669.37" y2="559.98" gradientUnits="userSpaceOnUse">
      <stop offset="0" stop-color="#7c64ab"/>
      <stop offset=".19" stop-color="#9d59a3"/>
      <stop offset=".41" stop-color="#bd4e9c"/>
      <stop offset=".62" stop-color="#d44797"/>
      <stop offset=".83" stop-color="#e24294"/>
      <stop offset="1" stop-color="#e74193"/>
    </linearGradient>
  </defs>
  <g>
    <path class="st9" d="M302.45,583.03v-46.1h10.97v17.99h18.44v-17.99h10.97v46.1h-10.97v-19.16h-18.44v19.16h-10.97Z"/>
    <path class="st9" d="M348.03,566.54v-.65c0-10.32,6.95-17.27,17.73-17.27,11.69,0,17.53,8.18,16.82,20h-24.22c.45,5.13,2.86,7.6,7.34,7.6,3.7,0,5.78-1.82,6.49-3.96h10.19c-1.62,7.08-7.66,11.62-16.62,11.62-10.97,0-17.73-6.82-17.73-17.34ZM372.12,562.57c-.26-3.83-2.34-6.3-6.49-6.3s-6.43,1.95-7.14,6.3h13.64Z"/>
    <path class="st9" d="M386.08,573.68c0-5.78,3.7-9.22,10.13-10l11.69-1.56v-2.14c0-2.47-1.62-3.96-5-3.96s-5.32,1.36-5.58,3.9h-9.87c.39-7.14,6.49-11.3,15.65-11.3s14.93,4.42,14.93,11.43v22.99h-9.74l-.32-5c-2.01,3.64-5.78,5.84-10.84,5.84-6.49,0-11.04-4.29-11.04-10.19ZM407.9,570.82v-2.4l-7.92,1.04c-2.6.32-3.83,1.56-3.83,3.57,0,2.21,1.62,3.51,4.61,3.51,3.9,0,7.14-2.27,7.14-5.71Z"/>
    <path class="st9" d="M434.26,534.98v48.05h-10.39v-48.05h10.39Z"/>
    <path class="st9" d="M444.26,572.9v-15.97h-6.1v-7.47h6.1v-10.71h10.39v10.71h8.44v7.47h-8.44v15.26c0,2.66,1.3,3.77,4.55,3.77,1.56,0,2.86-.32,4.03-.65v7.73c-1.75.52-4.35.84-6.56.84-8.51,0-12.4-3.77-12.4-10.97Z"/>
    <path class="st9" d="M468.08,583.03v-48.05h10.45v19.22c1.69-2.92,5-5.58,10.33-5.58,8.51,0,11.69,5.39,11.69,12.86v21.56h-10.39v-18.9c0-4.55-1.43-7.21-5.39-7.21s-6.3,2.73-6.3,7.66v18.44h-10.39Z"/>
  </g>
  <g>
    <path class="st19" d="M469.49,319.19c4.31,0,7.8,3.5,7.79,7.81,0,4.31-3.5,7.8-7.81,7.79-3.52,0-6.48-2.33-7.46-5.53l-25.65-.03c-.98,3.2-3.95,5.52-7.47,5.51-4.31,0-7.8-3.5-7.79-7.81,0-4.31,3.5-7.8,7.81-7.79,3.52,0,6.48,2.33,7.46,5.53l25.65.03c.98-3.2,3.95-5.52,7.47-5.51Z"/>
    <path class="st1" d="M469.52,297.57c-3.52,0-6.48-2.33-7.46-5.53l-25.65-.03c-.98,3.2-3.95,5.52-7.47,5.51-4.31,0-7.8-3.5-7.79-7.81,0-4.31,3.5-7.8,7.81-7.79,3.52,0,6.48,2.33,7.46,5.53l25.65.03c.98-3.2,3.95-5.52,7.47-5.51,4.31,0,7.8,3.5,7.79,7.81,0,4.31-3.5,7.8-7.81,7.79Z"/>
    <path class="st0" d="M449.82,216.25c4.31,0,7.8,3.5,7.79,7.81,0,4.31-3.5,7.8-7.81,7.79-4.31,0-7.8-3.5-7.79-7.81,0-4.31,3.5-7.8,7.81-7.79Z"/>
    <path class="st3" d="M429.02,235.44c3.52,0,6.48,2.33,7.46,5.53l25.65.03c.98-3.2,3.95-5.52,7.47-5.51,4.31,0,7.8,3.5,7.79,7.81,0,4.31-3.5,7.8-7.81,7.79-3.52,0-6.48-2.33-7.46-5.53l-25.65-.03c-.98,3.2-3.95,5.52-7.47,5.51-4.31,0-7.8-3.5-7.79-7.81,0-4.31,3.5-7.8,7.81-7.79Z"/>
    <path class="st8" d="M413.79,258.66c3.52,0,6.48,2.33,7.46,5.53l56.05.07c.98-3.2,3.95-5.52,7.47-5.51,4.31,0,7.8,3.5,7.79,7.81,0,4.31-3.5,7.8-7.81,7.79-3.52,0-6.48-2.33-7.46-5.53l-56.05-.07c-.98,3.2-3.95,5.52-7.47,5.51-4.31,0-7.8-3.5-7.79-7.81,0-4.31,3.5-7.8,7.81-7.79Z"/>
    <path class="st7" d="M351.19,216.13c4.31,0,7.8,3.5,7.79,7.81,0,4.31-3.5,7.8-7.81,7.79-4.31,0-7.8-3.5-7.79-7.81,0-4.31,3.5-7.8,7.81-7.79Z"/>
    <path class="st4" d="M330.38,235.32c3.52,0,6.48,2.33,7.46,5.53l25.65.03c.98-3.2,3.95-5.52,7.47-5.51,4.31,0,7.8,3.5,7.79,7.81,0,4.31-3.5,7.8-7.81,7.79-3.52,0-6.48-2.33-7.46-5.53l-25.65-.03c-.98,3.2-3.95,5.52-7.47,5.51-4.31,0-7.8-3.5-7.79-7.81,0-4.31,3.5-7.8,7.81-7.79Z"/>
    <path class="st6" d="M315.13,274.14c-4.31,0-7.8-3.5-7.79-7.81,0-4.31,3.5-7.8,7.81-7.79,3.52,0,6.48,2.33,7.46,5.53l56.05.07c.98-3.2,3.95-5.52,7.47-5.51,4.31,0,7.8,3.5,7.79,7.81,0,4.31-3.5,7.8-7.81,7.79-3.52,0-6.48-2.33-7.46-5.53l-56.05-.07c-.98,3.2-3.95,5.52-7.47,5.51Z"/>
    <path class="st5" d="M330.31,297.39c-4.31,0-7.8-3.5-7.79-7.81,0-4.31,3.5-7.8,7.81-7.79,3.52,0,6.48,2.33,7.46,5.53l25.65.03c.98-3.2,3.95-5.52,7.47-5.51,4.31,0,7.8,3.5,7.79,7.81,0,4.31-3.5,7.8-7.81,7.79-3.52,0-6.48-2.33-7.46-5.53l-25.65-.03c-.98,3.2-3.95,5.52-7.47,5.51Z"/>
    <path class="st2" d="M330.28,319.01c3.52,0,6.48,2.33,7.46,5.53l25.65.03c.98-3.2,3.95-5.52,7.47-5.51,4.31,0,7.8,3.5,7.79,7.81,0,4.31-3.5,7.8-7.81,7.79-3.52,0-6.48-2.33-7.46-5.53l-25.65-.03c-.98,3.2-3.95,5.52-7.47,5.51-4.31,0-7.8-3.5-7.79-7.81,0-4.31,3.5-7.8,7.81-7.79Z"/>
    <path class="st16" d="M350.96,399.12c-4.31,0-7.8-3.5-7.79-7.81,0-4.31,3.5-7.8,7.81-7.79,4.31,0,7.8,3.5,7.79,7.81,0,4.31-3.5,7.8-7.81,7.79Z"/>
    <path class="st15" d="M370.77,381.13c-3.52,0-6.48-2.33-7.46-5.53l-25.65-.03c-.98,3.2-3.95,5.52-7.47,5.51-4.31,0-7.8-3.5-7.79-7.81,0-4.31,3.5-7.8,7.81-7.79,3.52,0,6.48,2.33,7.46,5.53l25.65.03c.98-3.2,3.95-5.52,7.47-5.51,4.31,0,7.8,3.5,7.79,7.81,0,4.31-3.5,7.8-7.81,7.79Z"/>
    <path class="st12" d="M386,357.92c-3.52,0-6.48-2.33-7.46-5.53l-56.05-.07c-.98,3.2-3.95,5.52-7.47,5.51-4.31,0-7.8-3.5-7.79-7.81,0-4.31,3.5-7.8,7.81-7.79,3.52,0,6.48,2.33,7.46,5.53l56.05.07c.98-3.2,3.95-5.52,7.47-5.51,4.31,0,7.8,3.5,7.79,7.81,0,4.31-3.5,7.8-7.81,7.79Z"/>
    <path class="st11" d="M358.31,310.52c-1.15,2.88-3.96,4.91-7.25,4.91-4.31,0-7.8-3.5-7.79-7.81,0-4.31,3.5-7.8,7.81-7.79,3.73,0,6.85,2.63,7.61,6.14l83.4.11c.77-3.5,3.89-6.12,7.63-6.12,4.31,0,7.8,3.5,7.79,7.81,0,4.31-3.5,7.8-7.81,7.79-3.29,0-6.09-2.05-7.24-4.93l-84.15-.11Z"/>
    <path class="st18" d="M449.59,399.24c-4.31,0-7.8-3.5-7.79-7.81,0-4.31,3.5-7.8,7.81-7.79,4.31,0,7.8,3.5,7.79,7.81,0,4.31-3.5,7.8-7.81,7.79Z"/>
    <path class="st13" d="M469.41,381.26c-3.52,0-6.48-2.33-7.46-5.53l-25.65-.03c-.98,3.2-3.95,5.52-7.47,5.51-4.31,0-7.8-3.5-7.79-7.81,0-4.31,3.5-7.8,7.81-7.79,3.52,0,6.48,2.33,7.46,5.53l25.65.03c.98-3.2,3.95-5.52,7.47-5.51,4.31,0,7.8,3.5,7.79,7.81s-3.5,7.8-7.81,7.79Z"/>
    <path class="st14" d="M484.64,358.05c-3.52,0-6.48-2.33-7.46-5.53l-56.05-.07c-.98,3.2-3.95,5.52-7.47,5.51-4.31,0-7.8-3.5-7.79-7.81,0-4.31,3.5-7.8,7.81-7.79,3.52,0,6.48,2.33,7.46,5.53l56.05.07c.98-3.2,3.95-5.52,7.47-5.51,4.31,0,7.8,3.5,7.79,7.81,0,4.31-3.5,7.8-7.81,7.79Z"/>
  </g>
  <g>
    <path class="st9" d="M200.54,430.88c-5.55,0-8.32,1.42-8.32,4.26v45.04c0,2.84,2.77,4.26,8.32,4.26v7.58h-34.31v-7.58c4.75,0,7.12-1.42,7.12-4.26v-19.79h-24.23v19.79c0,2.84,2.4,4.26,7.21,4.26v7.58h-34.22v-7.58c5.49,0,8.23-1.42,8.23-4.26v-45.04c0-2.84-2.74-4.26-8.23-4.26v-7.58h34.22v7.58c-4.81,0-7.21,1.42-7.21,4.26v16.37h24.23v-16.37c0-2.84-2.37-4.26-7.12-4.26v-7.58h34.31v7.58Z"/>
    <path class="st9" d="M264.09,452.34c-3.82,0-6.14,1.05-6.94,3.14l-16,39.4c-1.17,2.84-2.31,5.4-3.42,7.68s-2.39,4.24-3.84,5.87c-1.45,1.63-3.14,2.88-5.09,3.75-1.94.86-4.33,1.3-7.17,1.3-2.16,0-4.16-.28-6.01-.83-1.85-.55-3.44-1.39-4.76-2.5-1.33-1.11-2.36-2.45-3.1-4.02-.74-1.57-1.11-3.38-1.11-5.41,0-.8.15-1.65.46-2.54.31-.9.79-1.71,1.43-2.45.65-.74,1.45-1.36,2.4-1.85.95-.49,2.05-.74,3.28-.74,2.16,0,3.85.52,5.09,1.57,1.23,1.05,1.85,2.37,1.85,3.98s-.52,2.91-1.57,3.93c-1.05,1.02-2.44,1.59-4.16,1.71.55.92,1.28,1.65,2.17,2.17.89.52,2.42.79,4.58.79,1.97,0,3.64-.65,4.99-1.94,1.36-1.3,2.8-3.36,4.35-6.2l-18.41-43.56c-.49-1.05-1.33-1.85-2.5-2.41-1.17-.55-2.5-.83-3.98-.83v-7.4h28.3v7.4h-2.96c-.86,0-1.51.18-1.94.55-.43.37-.65.83-.65,1.39,0,.31.09.68.28,1.11l9.9,25.99,10.17-25.07c.18-.56.28-1.08.28-1.57,0-1.6-1.2-2.4-3.61-2.4h-1.85v-7.4h19.52v7.4Z"/>
    <path class="st9" d="M290.54,452.62c1.54-3.15,3.91-5.47,7.1-6.98,3.2-1.51,6.83-2.27,10.89-2.27,2.95,0,5.72.46,8.3,1.39,2.58.93,4.81,2.41,6.69,4.44,1.88,2.04,3.37,4.64,4.47,7.82,1.11,3.18,1.66,7.02,1.66,11.52s-.6,8.54-1.8,11.75c-1.2,3.21-2.85,5.81-4.94,7.82-2.09,2-4.55,3.47-7.38,4.39-2.83.92-5.84,1.39-9.04,1.39-2.77,0-5.32-.36-7.66-1.06-2.34-.71-4.24-1.77-5.72-3.19v12.67c0,2.78,3.3,4.16,9.9,4.16v7.4h-34.78v-7.4c5.3,0,7.95-1.39,7.95-4.16v-45.6c0-2.84-2.65-4.26-7.95-4.26v-7.49h21.64l.65,7.68ZM302.01,452.99c-3.82,0-6.47,1.34-7.95,4.02-1.48,2.68-2.22,6.74-2.22,12.16s.74,9.5,2.22,12.21c1.48,2.71,4.13,4.07,7.95,4.07s6.64-1.36,8.28-4.07c1.63-2.71,2.45-6.78,2.45-12.21s-.82-9.48-2.45-12.16c-1.63-2.68-4.39-4.02-8.28-4.02Z"/>
    <path class="st9" d="M353.89,468.62c.12,5.61,1.08,9.82,2.87,12.63,1.79,2.81,4.62,4.21,8.51,4.21,2.96,0,5.63-.79,8-2.36,2.37-1.57,3.96-3.96,4.76-7.17l7.77.83c-.43,2.16-1.19,4.24-2.27,6.24-1.08,2-2.51,3.79-4.3,5.36-1.79,1.57-3.96,2.84-6.52,3.79-2.56.95-5.5,1.43-8.83,1.43-3.51,0-6.89-.4-10.13-1.2-3.24-.8-6.09-2.17-8.56-4.12-2.47-1.94-4.43-4.52-5.87-7.72-1.45-3.21-2.17-7.24-2.17-12.12,0-3.88.57-7.38,1.71-10.5,1.14-3.11,2.82-5.78,5.04-8,2.22-2.22,4.93-3.91,8.14-5.09,3.21-1.17,6.9-1.76,11.1-1.76,8.26,0,14.38,2.03,18.36,6.1,3.98,4.07,5.97,10.54,5.97,19.42h-33.57ZM373.32,462.24c0-1.54-.18-3.08-.55-4.63-.37-1.54-.92-2.91-1.66-4.12s-1.7-2.17-2.87-2.91c-1.17-.74-2.59-1.11-4.25-1.11-2.77,0-5.03,1.02-6.75,3.05-1.73,2.04-2.77,5.27-3.14,9.71h19.24Z"/>
    <path class="st9" d="M419.47,453.54c1.6-3.51,3.64-6.07,6.1-7.68,2.47-1.6,5.18-2.4,8.14-2.4,1.48,0,2.99.24,4.53.73,1.54.49,2.91,1.21,4.12,2.15,1.2.95,2.19,2.15,2.96,3.62.77,1.47,1.16,3.18,1.16,5.16,0,2.96-.74,5.37-2.22,7.22-1.48,1.85-3.51,2.77-6.1,2.77-2.4,0-4.25-.62-5.55-1.85-1.29-1.23-1.94-2.8-1.94-4.72,0-1.54.46-2.93,1.39-4.16.92-1.23,2.47-1.91,4.62-2.03-.55-.86-1.27-1.5-2.13-1.9-.86-.4-1.79-.6-2.78-.6-1.23,0-2.47.35-3.7,1.06-1.23.71-2.4,1.69-3.51,2.95s-2.11,2.77-3.01,4.52c-.9,1.75-1.59,3.64-2.08,5.67v16.24c0,1.42.82,2.46,2.45,3.14,1.63.68,3.78,1.01,6.43,1.01v7.58h-33.67v-7.58c5.24,0,7.86-1.38,7.86-4.15v-23.79c0-2.77-2.59-4.15-7.77-4.15v-7.4h24.7v8.6Z"/>
    <path class="st9" d="M478.48,480.28c0,2.77,2.62,4.16,7.86,4.16v7.58h-32.65v-7.58c5.24,0,7.86-1.38,7.86-4.15v-47.93c0-2.77-2.62-4.15-7.86-4.15v-7.4h24.79v59.48Z"/>
    <path class="st9" d="M518.25,480.29c-.12,2.77,2.5,4.15,7.86,4.15v7.58h-32.65v-7.58c5.24,0,7.86-1.38,7.86-4.15v-23.7c0-2.83-2.62-4.24-7.86-4.24v-7.4h24.79v35.34ZM519.08,429.96c0,1.29-.25,2.51-.74,3.65-.49,1.14-1.16,2.14-1.99,3.01s-1.82,1.54-2.96,2.03c-1.14.49-2.36.74-3.65.74s-2.5-.25-3.61-.74c-1.11-.49-2.1-1.17-2.96-2.03-.86-.86-1.54-1.87-2.03-3.01-.49-1.14-.74-2.36-.74-3.65s.25-2.5.74-3.61c.49-1.11,1.17-2.08,2.03-2.91.86-.83,1.85-1.49,2.96-1.99,1.11-.49,2.31-.74,3.61-.74s2.51.25,3.65.74c1.14.49,2.13,1.16,2.96,1.99.83.83,1.49,1.8,1.99,2.91.49,1.11.74,2.31.74,3.61Z"/>
    <path class="st9" d="M593.07,480.29c0,2.77,2.65,4.15,7.95,4.15v7.58h-30.15v-7.58c3.51,0,5.27-1.38,5.27-4.15v-14.57c0-3.87-.53-6.7-1.57-8.48-1.05-1.78-2.53-2.67-4.44-2.67-2.59,0-5,1.01-7.22,3.04-2.22,2.03-3.85,4.79-4.9,8.3v14.38c0,2.77,1.73,4.15,5.18,4.15v7.58h-29.97v-7.58c5.24,0,7.86-1.38,7.86-4.15v-23.79c0-2.77-2.59-4.15-7.77-4.15v-7.4h24.7l.03,9.43c2.16-3.33,4.94-5.89,8.34-7.68,3.4-1.79,7.35-2.68,11.86-2.68,4.82,0,8.49,1.09,11.03,3.28,2.53,2.19,3.8,5.68,3.8,10.47v22.52Z"/>
    <path class="st9" d="M676.13,452.34c-2.9.06-5.64.46-8.23,1.2s-4.9,1.82-6.94,3.24l-4.9,3.33,14.06,21.37c1.36,2.1,3.95,3.14,7.77,3.14v7.4h-32.46v-7.4h3.61c1.67,0,2.5-.58,2.5-1.76,0-.31-.06-.56-.18-.74-.12-.19-.25-.4-.37-.65l-8.23-12.76-9.9,6.38v5.36c0,1.42.65,2.47,1.94,3.15,1.3.68,3.11,1.02,5.46,1.02v7.4h-32.19v-7.4c5.24,0,7.86-1.39,7.86-4.16v-48.1c0-2.77-2.62-4.16-7.86-4.16v-7.4h24.79v46.34l15.91-10.82c.8-.56,1.2-1.23,1.2-2.04,0-.49-.2-.94-.6-1.34-.4-.4-1-.6-1.8-.6h-4.35v-7.4h32.93v7.4Z"/>
  </g>
  <rect class="st17" x="133.47" y="555.09" width="158" height="9.78"/>
  <rect class="st10" x="511.37" y="555.09" width="158" height="9.78"/>
</svg>