<svg width="171" height="146" viewBox="0 0 171 146" fill="none" xmlns="http://www.w3.org/2000/svg">
<g clip-path="url(#clip0_227_8060)">
<path d="M30.9433 104.927H30.0205V128.86H30.9433V104.927Z" fill="#3D7EC5"/>
<path d="M30.9433 104.927H30.0205V128.86H30.9433V104.927Z" fill="#3D7EC5"/>
<path d="M31.7763 104.926C31.7763 105.373 31.1965 105.736 30.4812 105.736C29.7659 105.736 29.186 105.373 29.186 104.926C29.186 104.479 29.7659 104.116 30.4812 104.116C31.1965 104.116 31.7763 104.478 31.7763 104.926Z" fill="#3D7EC5"/>
<path d="M31.7763 128.859C31.7763 129.306 31.1965 129.669 30.4812 129.669C29.7659 129.669 29.186 129.306 29.186 128.859C29.186 128.412 29.7659 128.049 30.4812 128.049C31.1965 128.049 31.7763 128.411 31.7763 128.859Z" fill="#3D7EC5"/>
<path d="M42.4106 117.356V116.43H18.5517V117.356H42.4106Z" fill="#3D7EC5"/>
<path d="M42.4106 117.356V116.43H18.5517V117.356H42.4106Z" fill="#3D7EC5"/>
<path d="M42.4096 118.193C41.9636 118.193 41.6021 117.611 41.6021 116.893C41.6021 116.176 41.9636 115.594 42.4096 115.594C42.8556 115.594 43.2171 116.176 43.2171 116.893C43.2171 117.611 42.8556 118.193 42.4096 118.193Z" fill="#3D7EC5"/>
<path d="M18.5512 118.193C18.1052 118.193 17.7437 117.611 17.7437 116.893C17.7437 116.176 18.1052 115.594 18.5512 115.594C18.9972 115.594 19.3587 116.176 19.3587 116.893C19.3587 117.611 18.9972 118.193 18.5512 118.193Z" fill="#3D7EC5"/>
<path d="M39.2438 108.758L38.5913 108.103L21.7207 125.026L22.3732 125.681L39.2438 108.758Z" fill="#3D7EC5"/>
<path d="M39.2438 108.758L38.5913 108.103L21.7207 125.026L22.3732 125.681L39.2438 108.758Z" fill="#3D7EC5"/>
<path d="M39.8313 109.35C39.516 109.666 38.8503 109.511 38.3444 109.004C37.8385 108.496 37.6841 107.828 37.9997 107.512C38.3149 107.196 38.9807 107.351 39.4866 107.858C39.9925 108.366 40.1469 109.033 39.8313 109.35Z" fill="#3D7EC5"/>
<path d="M22.9615 126.273C22.6462 126.589 21.9805 126.434 21.4746 125.927C20.9687 125.42 20.8146 124.752 21.1299 124.436C21.4452 124.119 22.1109 124.274 22.6168 124.781C23.1227 125.289 23.2771 125.957 22.9615 126.273Z" fill="#3D7EC5"/>
<path d="M38.5907 125.682L39.2432 125.028L22.3725 108.105L21.72 108.759L38.5907 125.682Z" fill="#3D7EC5"/>
<path d="M38.5907 125.682L39.2432 125.028L22.3725 108.105L21.72 108.759L38.5907 125.682Z" fill="#3D7EC5"/>
<path d="M37.9995 126.273C37.6843 125.957 37.8383 125.289 38.3442 124.782C38.8502 124.274 39.5159 124.119 39.8311 124.436C40.1464 124.752 39.9924 125.42 39.4864 125.927C38.9809 126.435 38.3151 126.59 37.9995 126.273Z" fill="#3D7EC5"/>
<path d="M21.1299 109.349C20.8146 109.033 20.9687 108.365 21.4746 107.858C21.9805 107.35 22.6462 107.196 22.9615 107.512C23.2768 107.828 23.1224 108.496 22.6168 109.004C22.1109 109.511 21.4452 109.666 21.1299 109.349Z" fill="#3D7EC5"/>
<path d="M21.1158 112.718L20.7793 113.58L39.8614 121.074L40.1978 120.212L21.1158 112.718Z" fill="#DD525D"/>
<path d="M21.1158 112.718L20.7793 113.58L39.8614 121.074L40.1978 120.212L21.1158 112.718Z" fill="#DD525D"/>
<path d="M39.5591 121.85C39.1437 121.687 39.0184 121.013 39.279 120.345C39.5397 119.677 40.088 119.267 40.5031 119.431C40.9186 119.594 41.0439 120.268 40.7832 120.936C40.5225 121.604 39.9742 122.013 39.5591 121.85Z" fill="#DD525D"/>
<path d="M20.4736 114.357C20.0581 114.194 19.9328 113.52 20.1939 112.851C20.4545 112.183 21.0028 111.774 21.4179 111.937C21.8334 112.1 21.9587 112.774 21.6976 113.442C21.437 114.111 20.889 114.52 20.4736 114.357Z" fill="#DD525D"/>
<path d="M33.7926 107.15L26.3232 126.292L27.1825 126.629L34.6519 107.487L33.7926 107.15Z" fill="#DD525D"/>
<path d="M33.7926 107.15L26.3232 126.292L27.1825 126.629L34.6519 107.487L33.7926 107.15Z" fill="#DD525D"/>
<path d="M25.5435 125.991C25.7062 125.574 26.378 125.448 27.0441 125.71C27.7101 125.971 28.1184 126.521 27.9557 126.938C27.7931 127.354 27.1213 127.48 26.4552 127.219C25.7891 126.957 25.3809 126.407 25.5435 125.991Z" fill="#DD525D"/>
<path d="M33.0142 106.849C33.1769 106.433 33.8487 106.307 34.5148 106.569C35.1808 106.83 35.5891 107.38 35.4264 107.797C35.2638 108.213 34.592 108.339 33.9259 108.077C33.2598 107.816 32.8516 107.266 33.0142 106.849Z" fill="#DD525D"/>
<path d="M39.6888 112.349L20.9141 120.585L21.2838 121.433L40.0586 113.197L39.6888 112.349Z" fill="#DD525D"/>
<path d="M39.6888 112.349L20.9141 120.585L21.2838 121.433L40.0586 113.197L39.6888 112.349Z" fill="#DD525D"/>
<path d="M20.5772 119.822C20.9858 119.642 21.5496 120.03 21.8361 120.688C22.1226 121.345 22.0235 122.023 21.6149 122.202C21.2063 122.382 20.6426 121.994 20.356 121.337C20.0699 120.679 20.1686 120.001 20.5772 119.822Z" fill="#DD525D"/>
<path d="M39.3531 111.585C39.7617 111.406 40.3255 111.794 40.612 112.451C40.8985 113.109 40.7998 113.787 40.3908 113.966C39.9822 114.145 39.4185 113.758 39.1319 113.1C38.8457 112.443 38.9445 111.765 39.3531 111.585Z" fill="#DD525D"/>
<path d="M26.804 107.29L25.9585 107.661L34.1696 126.494L35.0151 126.123L26.804 107.29Z" fill="#DD525D"/>
<path d="M26.804 107.29L25.9585 107.661L34.1696 126.494L35.0151 126.123L26.804 107.29Z" fill="#DD525D"/>
<path d="M27.5665 106.957C27.7453 107.366 27.359 107.932 26.7033 108.219C26.048 108.507 25.3719 108.407 25.1931 107.998C25.0143 107.588 25.4006 107.022 26.0563 106.735C26.7116 106.447 27.3877 106.546 27.5665 106.957Z" fill="#DD525D"/>
<path d="M35.7765 125.791C35.9553 126.2 35.5689 126.766 34.9133 127.053C34.258 127.341 33.5819 127.241 33.4031 126.832C33.2242 126.422 33.6106 125.856 34.2663 125.569C34.9216 125.281 35.5977 125.38 35.7765 125.791Z" fill="#DD525D"/>
<path d="M35.6257 122.053C38.4669 119.203 38.4669 114.582 35.6257 111.732C32.7845 108.882 28.178 108.882 25.3368 111.732C22.4956 114.582 22.4956 119.203 25.3368 122.053C28.178 124.903 32.7845 124.903 35.6257 122.053Z" fill="#3D7EC5"/>
<path opacity="0.3" d="M30.5682 111.103C30.7471 111.513 30.3607 112.078 29.705 112.366C29.0498 112.653 28.3736 112.554 28.1948 112.144C28.016 111.734 28.4024 111.169 29.058 110.881C29.7133 110.594 30.3894 110.693 30.5682 111.103ZM29.3891 121.402C28.7338 121.69 28.3474 122.255 28.5259 122.665C28.7047 123.075 29.3808 123.175 30.0361 122.887C30.6914 122.6 31.0778 122.034 30.8993 121.624C30.7208 121.214 30.0447 121.115 29.3891 121.402ZM32.8307 111.733C32.1754 112.021 31.7891 112.586 31.9675 112.996C32.1463 113.406 32.8225 113.505 33.4778 113.218C34.1331 112.931 34.5194 112.365 34.341 111.955C34.1621 111.545 33.486 111.446 32.8307 111.733ZM35.5086 117.877C34.8533 118.164 34.467 118.73 34.6454 119.139C34.8243 119.549 35.5004 119.649 36.1557 119.361C36.811 119.074 37.1973 118.508 37.0189 118.098C36.8404 117.688 36.1639 117.589 35.5086 117.877ZM25.4092 115.998C24.7539 116.285 24.3675 116.851 24.546 117.261C24.7248 117.671 25.4009 117.77 26.0562 117.483C26.7115 117.195 27.0979 116.63 26.9194 116.22C26.7406 115.809 26.0645 115.71 25.4092 115.998ZM31.0961 117.45C30.4408 117.738 30.0544 118.303 30.2329 118.713C30.4117 119.123 31.0878 119.222 31.7431 118.935C32.3984 118.647 32.7848 118.082 32.6063 117.672C32.4275 117.262 31.7514 117.163 31.0961 117.45Z" fill="white"/>
<path opacity="0.5" d="M35.0235 116.43C34.5776 116.43 34.216 115.849 34.216 115.131C34.216 114.414 34.5776 113.832 35.0235 113.832C35.4695 113.832 35.8311 114.414 35.8311 115.131C35.8311 115.849 35.4695 116.43 35.0235 116.43ZM30.9959 115.131C30.9959 114.414 30.6343 113.832 30.1883 113.832C29.7424 113.832 29.3808 114.414 29.3808 115.131C29.3808 115.849 29.7424 116.43 30.1883 116.43C30.6343 116.43 30.9959 115.849 30.9959 115.131ZM27.183 113.32C27.183 112.602 26.8214 112.021 26.3754 112.021C25.9295 112.021 25.5679 112.602 25.5679 113.32C25.5679 114.037 25.9295 114.619 26.3754 114.619C26.8214 114.619 27.183 114.037 27.183 113.32ZM27.9909 119.491C27.9909 118.774 27.6293 118.192 27.1833 118.192C26.7374 118.192 26.3758 118.774 26.3758 119.491C26.3758 120.209 26.7374 120.791 27.1833 120.791C27.6293 120.791 27.9909 120.209 27.9909 119.491ZM33.9607 121.324C33.9607 120.607 33.5991 120.025 33.1532 120.025C32.7072 120.025 32.3456 120.607 32.3456 121.324C32.3456 122.042 32.7072 122.623 33.1532 122.623C33.5991 122.623 33.9607 122.042 33.9607 121.324Z" fill="#3D7EC5"/>
<path d="M160.133 74.1064H159.21V98.0395H160.133V74.1064Z" fill="#3D7EC5"/>
<path d="M160.133 74.1064H159.21V98.0395H160.133V74.1064Z" fill="#3D7EC5"/>
<path d="M160.966 74.1064C160.966 74.5538 160.386 74.9165 159.671 74.9165C158.955 74.9165 158.375 74.5538 158.375 74.1064C158.375 73.6591 158.955 73.2964 159.671 73.2964C160.386 73.2964 160.966 73.6591 160.966 74.1064Z" fill="#3D7EC5"/>
<path d="M160.966 98.0393C160.966 98.4866 160.386 98.8494 159.671 98.8494C158.955 98.8494 158.375 98.4866 158.375 98.0393C158.375 97.5919 158.955 97.2292 159.671 97.2292C160.386 97.2292 160.966 97.5919 160.966 98.0393Z" fill="#3D7EC5"/>
<path d="M171.602 86.5363V85.6106H147.743V86.5363H171.602Z" fill="#3D7EC5"/>
<path d="M171.602 86.5363V85.6106H147.743V86.5363H171.602Z" fill="#3D7EC5"/>
<path d="M171.601 87.372C171.155 87.372 170.793 86.7903 170.793 86.0729C170.793 85.3554 171.155 84.7737 171.601 84.7737C172.047 84.7737 172.409 85.3554 172.409 86.0729C172.409 86.7903 172.047 87.372 171.601 87.372Z" fill="#3D7EC5"/>
<path d="M147.743 87.372C147.297 87.372 146.935 86.7903 146.935 86.0729C146.935 85.3554 147.297 84.7737 147.743 84.7737C148.189 84.7737 148.55 85.3554 148.55 86.0729C148.55 86.7903 148.189 87.372 147.743 87.372Z" fill="#3D7EC5"/>
<path d="M168.427 77.9395L167.774 77.2849L150.904 94.208L151.556 94.8625L168.427 77.9395Z" fill="#3D7EC5"/>
<path d="M168.427 77.9395L167.774 77.2849L150.904 94.208L151.556 94.8625L168.427 77.9395Z" fill="#3D7EC5"/>
<path d="M169.023 78.5312C168.707 78.8474 168.042 78.6929 167.536 78.1854C167.03 77.6779 166.876 77.0101 167.191 76.6939C167.506 76.3776 168.172 76.5322 168.678 77.0397C169.183 77.5468 169.338 78.2146 169.023 78.5312Z" fill="#3D7EC5"/>
<path d="M152.153 95.4543C151.838 95.7705 151.172 95.616 150.666 95.1085C150.16 94.601 150.006 93.9332 150.321 93.617C150.637 93.3007 151.303 93.4553 151.808 93.9628C152.314 94.4703 152.468 95.1377 152.153 95.4543Z" fill="#3D7EC5"/>
<path d="M167.784 94.8665L168.437 94.2119L151.566 77.2888L150.914 77.9434L167.784 94.8665Z" fill="#3D7EC5"/>
<path d="M167.784 94.8665L168.437 94.2119L151.566 77.2888L150.914 77.9434L167.784 94.8665Z" fill="#3D7EC5"/>
<path d="M167.191 95.4542C166.876 95.1379 167.03 94.4702 167.536 93.9627C168.042 93.4552 168.707 93.3003 169.023 93.6169C169.338 93.9331 169.184 94.6009 168.678 95.1084C168.172 95.6159 167.506 95.7704 167.191 95.4542Z" fill="#3D7EC5"/>
<path d="M150.321 78.5309C150.006 78.2146 150.16 77.5468 150.666 77.0393C151.172 76.5318 151.838 76.377 152.153 76.6936C152.468 77.0098 152.314 77.6776 151.808 78.1851C151.303 78.6922 150.637 78.8471 150.321 78.5309Z" fill="#3D7EC5"/>
<path d="M169.037 90.2536L169.373 89.3916L150.291 81.897L149.954 82.759L169.037 90.2536Z" fill="#DD525D"/>
<path d="M169.037 90.2536L169.373 89.3916L150.291 81.897L149.954 82.759L169.037 90.2536Z" fill="#DD525D"/>
<path d="M168.738 91.03C168.323 90.8668 168.197 90.1929 168.459 89.5248C168.719 88.8567 169.267 88.4471 169.683 88.6103C170.098 88.7735 170.223 89.4474 169.963 90.1155C169.702 90.7836 169.154 91.1932 168.738 91.03Z" fill="#DD525D"/>
<path d="M149.657 83.5364C149.242 83.3732 149.117 82.6993 149.377 82.0311C149.638 81.363 150.186 80.9535 150.601 81.1166C151.017 81.2798 151.142 81.9537 150.881 82.6218C150.621 83.29 150.073 83.6995 149.657 83.5364Z" fill="#DD525D"/>
<path d="M155.503 95.4805L156.362 95.8179L163.832 76.6765L162.972 76.3391L155.503 95.4805Z" fill="#DD525D"/>
<path d="M155.503 95.4805L156.362 95.8179L163.832 76.6765L162.972 76.3391L155.503 95.4805Z" fill="#DD525D"/>
<path d="M154.732 95.1702C154.894 94.7535 155.566 94.6277 156.232 94.8896C156.898 95.1511 157.306 95.7011 157.144 96.1178C156.981 96.5346 156.309 96.6603 155.643 96.3984C154.977 96.1366 154.569 95.5869 154.732 95.1702Z" fill="#DD525D"/>
<path d="M162.205 76.0296C162.367 75.6128 163.039 75.4871 163.705 75.749C164.371 76.0105 164.779 76.5605 164.617 76.9772C164.454 77.3939 163.782 77.5196 163.116 77.2578C162.45 76.9959 162.042 76.4459 162.205 76.0296Z" fill="#DD525D"/>
<path d="M150.104 89.7759L150.474 90.624L169.248 82.3894L168.879 81.5413L150.104 89.7759Z" fill="#DD525D"/>
<path d="M150.104 89.7759L150.474 90.624L169.248 82.3894L168.879 81.5413L150.104 89.7759Z" fill="#DD525D"/>
<path d="M149.765 89.0013C150.174 88.822 150.738 89.2095 151.024 89.8672C151.311 90.5246 151.212 91.2028 150.803 91.3821C150.394 91.5615 149.831 91.1736 149.544 90.5163C149.258 89.8589 149.357 89.1807 149.765 89.0013Z" fill="#DD525D"/>
<path d="M168.541 80.7657C168.95 80.5864 169.514 80.9739 169.8 81.6316C170.087 82.289 169.988 82.9672 169.579 83.1466C169.17 83.3259 168.607 82.9384 168.32 82.2807C168.034 81.6233 168.133 80.9451 168.541 80.7657Z" fill="#DD525D"/>
<path d="M155.986 76.4756L155.14 76.8464L163.349 95.6795L164.195 95.3087L155.986 76.4756Z" fill="#DD525D"/>
<path d="M155.986 76.4756L155.14 76.8464L163.349 95.6795L164.195 95.3087L155.986 76.4756Z" fill="#DD525D"/>
<path d="M156.753 76.1362C156.931 76.5461 156.545 77.1116 155.889 77.399C155.234 77.6864 154.558 77.5874 154.379 77.1771C154.2 76.7672 154.587 76.2017 155.242 75.9143C155.898 75.6269 156.574 75.7263 156.753 76.1362Z" fill="#DD525D"/>
<path d="M164.964 94.9697C165.143 95.3796 164.757 95.9451 164.101 96.2325C163.446 96.5199 162.77 96.4205 162.591 96.0106C162.412 95.6007 162.799 95.0352 163.454 94.7478C164.11 94.4604 164.786 94.5598 164.964 94.9697Z" fill="#DD525D"/>
<path d="M164.814 91.2342C167.655 88.3841 167.655 83.7633 164.814 80.9133C161.973 78.0633 157.367 78.0633 154.525 80.9133C151.684 83.7633 151.684 88.3841 154.525 91.2342C157.367 94.0842 161.973 94.0842 164.814 91.2342Z" fill="#3D7EC5"/>
<path opacity="0.3" d="M159.759 80.2829C159.938 80.6928 159.551 81.2583 158.896 81.5457C158.241 81.8331 157.564 81.7337 157.386 81.3238C157.207 80.914 157.593 80.3485 158.249 80.061C158.904 79.7736 159.58 79.873 159.759 80.2829ZM158.58 90.5824C157.925 90.8698 157.538 91.4353 157.717 91.8452C157.895 92.255 158.572 92.3544 159.227 92.067C159.882 91.7796 160.269 91.2141 160.09 90.8042C159.911 90.394 159.235 90.2946 158.58 90.5824ZM162.021 80.9129C161.366 81.2003 160.979 81.7658 161.158 82.1757C161.337 82.5856 162.013 82.685 162.668 82.3976C163.323 82.1101 163.71 81.5446 163.531 81.1348C163.353 80.7249 162.676 80.6255 162.021 80.9129ZM164.699 87.0562C164.044 87.3436 163.658 87.9091 163.836 88.319C164.015 88.7289 164.691 88.8283 165.346 88.5408C166.002 88.2534 166.388 87.6879 166.21 87.278C166.031 86.8681 165.355 86.7687 164.699 87.0562ZM154.6 85.1774C153.944 85.4649 153.558 86.0304 153.736 86.4402C153.915 86.8501 154.591 86.9495 155.247 86.6621C155.902 86.3747 156.288 85.8092 156.11 85.3993C155.931 84.9894 155.255 84.89 154.6 85.1774ZM160.286 86.6301C159.631 86.9175 159.245 87.483 159.423 87.8929C159.602 88.3028 160.278 88.4022 160.934 88.1147C161.589 87.8273 161.975 87.2618 161.797 86.8519C161.618 86.442 160.942 86.3426 160.286 86.6301Z" fill="white"/>
<path opacity="0.5" d="M164.214 85.6102C163.768 85.6102 163.406 85.0285 163.406 84.311C163.406 83.5935 163.768 83.0118 164.214 83.0118C164.66 83.0118 165.021 83.5935 165.021 84.311C165.022 85.0285 164.66 85.6102 164.214 85.6102ZM160.186 84.311C160.186 83.5935 159.824 83.0118 159.378 83.0118C158.932 83.0118 158.571 83.5935 158.571 84.311C158.571 85.0285 158.932 85.6102 159.378 85.6102C159.824 85.6102 160.186 85.0285 160.186 84.311ZM156.373 82.4996C156.373 81.7821 156.012 81.2004 155.566 81.2004C155.12 81.2004 154.758 81.7821 154.758 82.4996C154.758 83.2171 155.12 83.7988 155.566 83.7988C156.012 83.7988 156.373 83.2171 156.373 82.4996ZM157.181 88.6714C157.181 87.9539 156.819 87.3722 156.373 87.3722C155.927 87.3722 155.566 87.9539 155.566 88.6714C155.566 89.3888 155.927 89.9705 156.373 89.9705C156.819 89.9705 157.181 89.3888 157.181 88.6714ZM163.151 90.5036C163.151 89.7861 162.789 89.2044 162.343 89.2044C161.897 89.2044 161.536 89.7861 161.536 90.5036C161.536 91.2211 161.897 91.8028 162.343 91.8028C162.789 91.8028 163.151 91.2211 163.151 90.5036Z" fill="#3D7EC5"/>
<path d="M31.407 21.8191H30.7158V39.7465H31.407V21.8191Z" fill="#3D7EC5"/>
<path d="M31.407 21.8191H30.7158V39.7465H31.407V21.8191Z" fill="#3D7EC5"/>
<path d="M32.0317 21.8188C32.0317 22.1542 31.5972 22.4257 31.0615 22.4257C30.5258 22.4257 30.0913 22.1542 30.0913 21.8188C30.0913 21.4835 30.5258 21.2119 31.0615 21.2119C31.5972 21.2119 32.0317 21.4839 32.0317 21.8188Z" fill="#3D7EC5"/>
<path d="M32.0317 39.7468C32.0317 40.0821 31.5972 40.3537 31.0615 40.3537C30.5258 40.3537 30.0913 40.0821 30.0913 39.7468C30.0913 39.4118 30.5258 39.1399 31.0615 39.1399C31.5972 39.1399 32.0317 39.4115 32.0317 39.7468Z" fill="#3D7EC5"/>
<path d="M39.999 31.1296V30.4363L22.1272 30.4363V31.1296L39.999 31.1296Z" fill="#3D7EC5"/>
<path d="M39.999 31.1296V30.4363L22.1272 30.4363V31.1296L39.999 31.1296Z" fill="#3D7EC5"/>
<path d="M40.0015 31.756C39.6676 31.756 39.3965 31.3202 39.3965 30.7828C39.3965 30.2454 39.6672 29.8096 40.0015 29.8096C40.3358 29.8096 40.6065 30.2454 40.6065 30.7828C40.6065 31.3205 40.3354 31.756 40.0015 31.756Z" fill="#3D7EC5"/>
<path d="M22.126 31.7555C21.7917 31.7555 21.521 31.3197 21.521 30.7823C21.521 30.2449 21.7917 29.8091 22.126 29.8091C22.4603 29.8091 22.7311 30.2449 22.7311 30.7823C22.7311 31.32 22.46 31.7555 22.126 31.7555Z" fill="#3D7EC5"/>
<path d="M37.6255 24.69L37.1367 24.1997L24.4995 36.8762L24.9883 37.3664L37.6255 24.69Z" fill="#3D7EC5"/>
<path d="M37.6255 24.69L37.1367 24.1997L24.4995 36.8762L24.9883 37.3664L37.6255 24.69Z" fill="#3D7EC5"/>
<path d="M38.0649 25.1335C37.8286 25.3705 37.3299 25.2545 36.951 24.8745C36.5722 24.4945 36.4566 23.9942 36.6929 23.7572C36.9291 23.5202 37.4279 23.6362 37.8067 24.0162C38.1855 24.3962 38.3011 24.8965 38.0649 25.1335Z" fill="#3D7EC5"/>
<path d="M25.4286 37.81C25.1924 38.047 24.6936 37.931 24.3148 37.551C23.936 37.171 23.8204 36.6707 24.0566 36.4337C24.2929 36.1967 24.7917 36.3127 25.1705 36.6927C25.5493 37.0731 25.6649 37.573 25.4286 37.81Z" fill="#3D7EC5"/>
<path d="M37.1367 37.3672L37.6255 36.877L24.9883 24.2005L24.4996 24.6908L37.1367 37.3672Z" fill="#3D7EC5"/>
<path d="M37.1367 37.3672L37.6255 36.877L24.9883 24.2005L24.4996 24.6908L37.1367 37.3672Z" fill="#3D7EC5"/>
<path d="M36.6929 37.81C36.4566 37.573 36.5722 37.0727 36.951 36.6927C37.3299 36.3127 37.8286 36.1967 38.0649 36.4337C38.3011 36.6707 38.1855 37.171 37.8067 37.551C37.4279 37.931 36.9291 38.047 36.6929 37.81Z" fill="#3D7EC5"/>
<path d="M24.0566 25.1335C23.8204 24.8965 23.936 24.3962 24.3148 24.0162C24.6936 23.6362 25.1924 23.5202 25.4286 23.7572C25.6649 23.9942 25.5493 24.4945 25.1705 24.8745C24.7917 25.2545 24.2929 25.3705 24.0566 25.1335Z" fill="#3D7EC5"/>
<path d="M38.0795 33.9132L38.3315 33.2676L24.0379 27.6537L23.7858 28.2993L38.0795 33.9132Z" fill="#DD525D"/>
<path d="M38.0795 33.9132L38.3315 33.2676L24.0379 27.6537L23.7858 28.2993L38.0795 33.9132Z" fill="#DD525D"/>
<path d="M37.8535 34.4962C37.5426 34.3741 37.4485 33.8692 37.6439 33.3689C37.8392 32.8682 38.2496 32.5617 38.5609 32.6838C38.8722 32.8059 38.9659 33.3109 38.7706 33.8112C38.5753 34.3115 38.1645 34.6183 37.8535 34.4962Z" fill="#DD525D"/>
<path d="M23.5597 28.8827C23.2484 28.7606 23.1547 28.2556 23.35 27.7553C23.5453 27.2547 23.9557 26.9482 24.267 27.0703C24.5784 27.1924 24.6721 27.6973 24.4767 28.1976C24.2814 28.6979 23.8706 29.0052 23.5597 28.8827Z" fill="#DD525D"/>
<path d="M27.9379 37.8234L28.5815 38.0762L34.1781 23.7381L33.5344 23.4853L27.9379 37.8234Z" fill="#DD525D"/>
<path d="M27.9379 37.8234L28.5815 38.0762L34.1781 23.7381L33.5344 23.4853L27.9379 37.8234Z" fill="#DD525D"/>
<path d="M27.3578 37.5962C27.4795 37.2843 27.9829 37.1899 28.4817 37.3859C28.9808 37.5818 29.2863 37.9939 29.1646 38.3058C29.0429 38.6181 28.5395 38.7121 28.0407 38.5161C27.5416 38.3202 27.2361 37.9085 27.3578 37.5962Z" fill="#DD525D"/>
<path d="M32.9541 23.2583C33.0758 22.9464 33.5792 22.852 34.078 23.048C34.5767 23.2439 34.8826 23.6556 34.7609 23.9679C34.6392 24.2802 34.1358 24.3742 33.637 24.1782C33.1379 23.9823 32.832 23.5702 32.9541 23.2583Z" fill="#DD525D"/>
<path d="M23.8905 33.5496L24.1675 34.1848L38.2309 28.0151L37.954 27.3798L23.8905 33.5496Z" fill="#DD525D"/>
<path d="M23.8905 33.5496L24.1675 34.1848L38.2309 28.0151L37.954 27.3798L23.8905 33.5496Z" fill="#DD525D"/>
<path d="M23.6409 32.975C23.9472 32.8406 24.3691 33.1309 24.5838 33.6233C24.7986 34.1157 24.7242 34.6239 24.4183 34.7582C24.112 34.8926 23.6901 34.6023 23.4754 34.1099C23.2607 33.6172 23.3346 33.1093 23.6409 32.975Z" fill="#DD525D"/>
<path d="M37.7034 26.8058C38.0097 26.6714 38.4316 26.9617 38.6463 27.4541C38.8611 27.9465 38.7867 28.4547 38.4808 28.589C38.1745 28.7234 37.7526 28.4331 37.5379 27.9407C37.3232 27.448 37.3971 26.9401 37.7034 26.8058Z" fill="#DD525D"/>
<path d="M28.2978 23.5889L27.6646 23.8667L33.8152 37.9739L34.4485 37.696L28.2978 23.5889Z" fill="#DD525D"/>
<path d="M28.2978 23.5889L27.6646 23.8667L33.8152 37.9739L34.4485 37.696L28.2978 23.5889Z" fill="#DD525D"/>
<path d="M28.8739 23.339C29.0079 23.6462 28.7185 24.0694 28.2276 24.2848C27.7368 24.5002 27.2301 24.4257 27.0962 24.1188C26.9623 23.8115 27.2517 23.3883 27.7429 23.1729C28.2334 22.9575 28.74 23.0321 28.8739 23.339Z" fill="#DD525D"/>
<path d="M35.0224 37.4465C35.1563 37.7537 34.8669 38.177 34.3761 38.3923C33.8852 38.6077 33.3786 38.5335 33.2446 38.2263C33.1107 37.9191 33.4001 37.4958 33.891 37.2805C34.3818 37.0651 34.8884 37.1393 35.0224 37.4465Z" fill="#DD525D"/>
<path d="M36.366 32.0416C37.0576 29.1032 35.2437 26.1588 32.3145 25.465C29.3853 24.7711 26.4499 26.5907 25.7583 29.529C25.0666 32.4674 26.8805 35.4118 29.8097 36.1056C32.739 36.7995 35.6743 34.9799 36.366 32.0416Z" fill="#3D7EC5"/>
<path opacity="0.3" d="M31.1281 26.4447C31.2621 26.7519 30.9727 27.1751 30.4818 27.3905C29.991 27.6059 29.4843 27.5314 29.3504 27.2245C29.2165 26.9173 29.5059 26.494 29.9967 26.2787C30.4876 26.0633 30.9942 26.1378 31.1281 26.4447ZM30.2448 34.1598C29.754 34.3752 29.4646 34.7988 29.5982 35.1057C29.7321 35.4129 30.2384 35.4871 30.7296 35.2717C31.2204 35.0563 31.5098 34.6327 31.3759 34.3259C31.2423 34.0186 30.7357 33.9444 30.2448 34.1598ZM32.8226 26.9169C32.3317 27.1323 32.0423 27.5559 32.1763 27.8627C32.3102 28.17 32.8165 28.2442 33.3077 28.0288C33.7985 27.8134 34.0879 27.3898 33.954 27.0829C33.8201 26.7757 33.3134 26.7015 32.8226 26.9169ZM34.8287 31.5186C34.3378 31.734 34.0484 32.1576 34.1824 32.4644C34.3163 32.7717 34.8226 32.8459 35.3138 32.6305C35.805 32.4151 36.094 31.9915 35.9601 31.6846C35.8262 31.3774 35.3195 31.3032 34.8287 31.5186ZM27.2635 30.1114C26.7727 30.3267 26.4833 30.7503 26.6172 31.0572C26.7511 31.3644 27.2574 31.4386 27.7486 31.2232C28.2395 31.0079 28.5289 30.5843 28.3949 30.2774C28.261 29.9705 27.7544 29.896 27.2635 30.1114ZM31.5235 31.1995C31.0326 31.4149 30.7432 31.8384 30.8772 32.1453C31.0111 32.4525 31.5174 32.5267 32.0086 32.3114C32.4994 32.096 32.7888 31.6724 32.6549 31.3655C32.5206 31.0583 32.0143 30.9841 31.5235 31.1995Z" fill="white"/>
<path opacity="0.5" d="M34.4614 30.4361C34.1274 30.4361 33.8563 30.0002 33.8563 29.4628C33.8563 28.9254 34.1271 28.4896 34.4614 28.4896C34.7957 28.4896 35.0664 28.9254 35.0664 29.4628C35.0664 30.0002 34.7957 30.4361 34.4614 30.4361ZM31.4445 29.4628C31.4445 28.9254 31.1738 28.4896 30.8395 28.4896C30.5052 28.4896 30.2344 28.9254 30.2344 29.4628C30.2344 30.0002 30.5052 30.4361 30.8395 30.4361C31.1738 30.4361 31.4445 30.0002 31.4445 29.4628ZM28.5885 28.106C28.5885 27.5686 28.3177 27.1328 27.9834 27.1328C27.6495 27.1328 27.3784 27.5686 27.3784 28.106C27.3784 28.6434 27.6492 29.0792 27.9834 29.0792C28.3177 29.0792 28.5885 28.6434 28.5885 28.106ZM29.1935 32.729C29.1935 32.1916 28.9228 31.7558 28.5885 31.7558C28.2545 31.7558 27.9834 32.1916 27.9834 32.729C27.9834 33.2664 28.2542 33.7022 28.5885 33.7022C28.9228 33.7022 29.1935 33.2667 29.1935 32.729ZM33.6653 34.1016C33.6653 33.5642 33.3946 33.1284 33.0603 33.1284C32.7264 33.1284 32.4553 33.5642 32.4553 34.1016C32.4553 34.639 32.726 35.0748 33.0603 35.0748C33.3946 35.0748 33.6653 34.639 33.6653 34.1016Z" fill="#3D7EC5"/>
<path d="M149.33 30.147H148.639V48.0744H149.33V30.147Z" fill="#3D7EC5"/>
<path d="M149.33 30.147H148.639V48.0744H149.33V30.147Z" fill="#3D7EC5"/>
<path d="M149.956 30.1469C149.956 30.4823 149.521 30.7539 148.985 30.7539C148.45 30.7539 148.015 30.4823 148.015 30.1469C148.015 29.8116 148.45 29.54 148.985 29.54C149.521 29.54 149.956 29.8116 149.956 30.1469Z" fill="#3D7EC5"/>
<path d="M149.956 48.0747C149.956 48.41 149.521 48.6816 148.985 48.6816C148.45 48.6816 148.015 48.41 148.015 48.0747C148.015 47.7394 148.45 47.4678 148.985 47.4678C149.521 47.4678 149.956 47.7394 149.956 48.0747Z" fill="#3D7EC5"/>
<path d="M157.923 39.4568V38.7634H140.052V39.4568H157.923Z" fill="#3D7EC5"/>
<path d="M157.923 39.4568V38.7634H140.052V39.4568H157.923Z" fill="#3D7EC5"/>
<path d="M157.923 40.0834C157.589 40.0834 157.318 39.6476 157.318 39.1102C157.318 38.5728 157.589 38.137 157.923 38.137C158.257 38.137 158.528 38.5728 158.528 39.1102C158.528 39.6476 158.257 40.0834 157.923 40.0834Z" fill="#3D7EC5"/>
<path d="M140.05 40.0834C139.716 40.0834 139.445 39.6476 139.445 39.1102C139.445 38.5728 139.716 38.137 140.05 38.137C140.384 38.137 140.655 38.5728 140.655 39.1102C140.655 39.6476 140.384 40.0834 140.05 40.0834Z" fill="#3D7EC5"/>
<path d="M155.547 33.0166L155.059 32.5264L142.421 45.2028L142.91 45.6931L155.547 33.0166Z" fill="#3D7EC5"/>
<path d="M155.547 33.0166L155.059 32.5264L142.421 45.2028L142.91 45.6931L155.547 33.0166Z" fill="#3D7EC5"/>
<path d="M155.989 33.4606C155.752 33.6976 155.254 33.5817 154.875 33.2017C154.496 32.8217 154.38 32.3214 154.617 32.0844C154.853 31.8474 155.352 31.9634 155.731 32.3433C156.109 32.7237 156.225 33.2236 155.989 33.4606Z" fill="#3D7EC5"/>
<path d="M143.351 46.1369C143.114 46.3739 142.616 46.2579 142.237 45.8779C141.858 45.4979 141.742 44.9976 141.979 44.7606C142.215 44.5236 142.714 44.6396 143.092 45.0196C143.471 45.3996 143.587 45.8999 143.351 46.1369Z" fill="#3D7EC5"/>
<path d="M155.063 45.6931L155.551 45.2029L142.914 32.5264L142.425 33.0167L155.063 45.6931Z" fill="#3D7EC5"/>
<path d="M155.063 45.6931L155.551 45.2029L142.914 32.5264L142.425 33.0167L155.063 45.6931Z" fill="#3D7EC5"/>
<path d="M154.617 46.1369C154.38 45.8999 154.496 45.3996 154.875 45.0196C155.254 44.6396 155.752 44.5236 155.989 44.7606C156.225 44.9976 156.109 45.4979 155.731 45.8779C155.352 46.2579 154.853 46.3739 154.617 46.1369Z" fill="#3D7EC5"/>
<path d="M141.979 33.4604C141.742 33.2234 141.858 32.7231 142.237 32.3431C142.616 31.9631 143.114 31.8471 143.351 32.0841C143.587 32.3211 143.471 32.8214 143.092 33.2014C142.714 33.5814 142.215 33.6974 141.979 33.4604Z" fill="#3D7EC5"/>
<path d="M155.999 42.2428L156.251 41.5972L141.958 35.9833L141.706 36.6289L155.999 42.2428Z" fill="#DD525D"/>
<path d="M155.999 42.2428L156.251 41.5972L141.958 35.9833L141.706 36.6289L155.999 42.2428Z" fill="#DD525D"/>
<path d="M155.775 42.8222C155.464 42.7001 155.37 42.1951 155.566 41.6948C155.761 41.1941 156.171 40.8876 156.483 41.0097C156.794 41.1318 156.888 41.6368 156.692 42.1371C156.497 42.6377 156.086 42.9446 155.775 42.8222Z" fill="#DD525D"/>
<path d="M141.481 37.2094C141.171 37.0873 141.076 36.5823 141.272 36.082C141.467 35.5813 141.878 35.2748 142.189 35.3969C142.5 35.519 142.594 36.024 142.399 36.5243C142.203 37.025 141.793 37.3315 141.481 37.2094Z" fill="#DD525D"/>
<path d="M145.866 46.1449L146.509 46.3977L152.106 32.0596L151.462 31.8068L145.866 46.1449Z" fill="#DD525D"/>
<path d="M145.866 46.1449L146.509 46.3977L152.106 32.0596L151.462 31.8068L145.866 46.1449Z" fill="#DD525D"/>
<path d="M145.284 45.9237C145.405 45.6114 145.909 45.5174 146.407 45.7133C146.906 45.9093 147.212 46.321 147.09 46.6333C146.969 46.9455 146.465 47.0395 145.967 46.8436C145.467 46.6477 145.162 46.2356 145.284 45.9237Z" fill="#DD525D"/>
<path d="M150.88 31.5856C151.001 31.2733 151.505 31.1793 152.004 31.3752C152.502 31.5712 152.808 31.9828 152.687 32.2951C152.565 32.6074 152.061 32.7014 151.563 32.5055C151.064 32.3095 150.758 31.8975 150.88 31.5856Z" fill="#DD525D"/>
<path d="M141.81 41.8792L142.087 42.5144L156.151 36.3446L155.874 35.7094L141.81 41.8792Z" fill="#DD525D"/>
<path d="M141.81 41.8792L142.087 42.5144L156.151 36.3446L155.874 35.7094L141.81 41.8792Z" fill="#DD525D"/>
<path d="M141.565 41.3031C141.871 41.1687 142.293 41.459 142.508 41.9514C142.722 42.4438 142.648 42.952 142.342 43.0863C142.036 43.2207 141.614 42.9304 141.399 42.438C141.184 41.9453 141.258 41.4374 141.565 41.3031Z" fill="#DD525D"/>
<path d="M155.627 35.1336C155.933 34.9993 156.355 35.2896 156.57 35.782C156.785 36.2743 156.71 36.7826 156.405 36.9169C156.099 37.0513 155.676 36.761 155.462 36.2686C155.247 35.7759 155.321 35.268 155.627 35.1336Z" fill="#DD525D"/>
<path d="M146.221 31.9133L145.588 32.1912L151.739 46.2983L152.372 46.0205L146.221 31.9133Z" fill="#DD525D"/>
<path d="M146.221 31.9133L145.588 32.1912L151.739 46.2983L152.372 46.0205L146.221 31.9133Z" fill="#DD525D"/>
<path d="M146.8 31.6657C146.934 31.973 146.645 32.3962 146.153 32.6116C145.662 32.827 145.156 32.7524 145.022 32.4455C144.888 32.1383 145.177 31.7151 145.669 31.4997C146.16 31.2843 146.666 31.3585 146.8 31.6657Z" fill="#DD525D"/>
<path d="M152.948 45.7737C153.082 46.0809 152.793 46.5041 152.302 46.7195C151.811 46.9349 151.304 46.8607 151.17 46.5534C151.036 46.2462 151.326 45.823 151.817 45.6076C152.308 45.3922 152.814 45.4664 152.948 45.7737Z" fill="#DD525D"/>
<path d="M150.964 44.2081C153.769 43.1137 155.159 39.9454 154.068 37.1314C152.977 34.3175 149.818 32.9235 147.013 34.0179C144.208 35.1123 142.819 38.2807 143.91 41.0946C145.001 43.9086 148.159 45.3025 150.964 44.2081Z" fill="#3D7EC5"/>
<path opacity="0.3" d="M149.051 34.7728C149.184 35.0801 148.895 35.5033 148.404 35.7187C147.913 35.934 147.407 35.8595 147.273 35.5526C147.139 35.2454 147.428 34.8222 147.919 34.6068C148.41 34.3914 148.917 34.4659 149.051 34.7728ZM148.167 42.4879C147.676 42.7033 147.387 43.1269 147.521 43.4338C147.654 43.741 148.161 43.8152 148.652 43.5998C149.143 43.3844 149.432 42.9609 149.299 42.654C149.165 42.3467 148.658 42.2726 148.167 42.4879ZM150.745 35.245C150.254 35.4604 149.965 35.884 150.099 36.1909C150.233 36.4981 150.739 36.5723 151.23 36.3569C151.721 36.1415 152.01 35.7179 151.877 35.4111C151.742 35.1038 151.236 35.0296 150.745 35.245ZM152.751 39.8467C152.26 40.0621 151.971 40.4857 152.104 40.7926C152.238 41.0998 152.745 41.174 153.236 40.9586C153.727 40.7432 154.016 40.3196 153.882 40.0128C153.749 39.7055 153.242 39.6313 152.751 39.8467ZM145.186 38.4395C144.695 38.6549 144.406 39.0784 144.54 39.3853C144.673 39.6922 145.18 39.7668 145.671 39.5514C146.162 39.336 146.451 38.9124 146.318 38.6055C146.183 38.2983 145.677 38.2241 145.186 38.4395ZM149.446 39.5272C148.955 39.7426 148.666 40.1662 148.799 40.4731C148.933 40.7803 149.439 40.8545 149.931 40.6391C150.421 40.4237 150.711 40.0002 150.577 39.6933C150.443 39.3864 149.937 39.3122 149.446 39.5272Z" fill="white"/>
<path opacity="0.5" d="M152.386 38.7634C152.052 38.7634 151.781 38.3276 151.781 37.7902C151.781 37.2528 152.052 36.817 152.386 36.817C152.72 36.817 152.991 37.2528 152.991 37.7902C152.991 38.3276 152.72 38.7634 152.386 38.7634ZM149.369 37.7902C149.369 37.2528 149.099 36.817 148.764 36.817C148.43 36.817 148.159 37.2528 148.159 37.7902C148.159 38.3276 148.43 38.7634 148.764 38.7634C149.099 38.7634 149.369 38.3276 149.369 37.7902ZM146.513 36.4334C146.513 35.896 146.243 35.4602 145.908 35.4602C145.574 35.4602 145.303 35.896 145.303 36.4334C145.303 36.9708 145.574 37.4066 145.908 37.4066C146.243 37.4066 146.513 36.9708 146.513 36.4334ZM147.118 41.0564C147.118 40.519 146.848 40.0832 146.513 40.0832C146.179 40.0832 145.908 40.519 145.908 41.0564C145.908 41.5938 146.179 42.0296 146.513 42.0296C146.847 42.0296 147.118 41.5938 147.118 41.0564ZM151.59 42.429C151.59 41.8916 151.319 41.4558 150.985 41.4558C150.651 41.4558 150.38 41.8916 150.38 42.429C150.38 42.9664 150.651 43.4022 150.985 43.4022C151.319 43.4022 151.59 42.9664 151.59 42.429Z" fill="#3D7EC5"/>
<path d="M13.6448 75.2393H13.187V87.112H13.6448V75.2393Z" fill="#3D7EC5"/>
<path d="M13.6448 75.2393H13.187V87.112H13.6448V75.2393Z" fill="#3D7EC5"/>
<path d="M14.0596 75.2389C14.0596 75.4607 13.772 75.6408 13.4173 75.6408C13.0625 75.6408 12.7749 75.4607 12.7749 75.2389C12.7749 75.017 13.0625 74.8369 13.4173 74.8369C13.772 74.8369 14.0596 75.017 14.0596 75.2389Z" fill="#3D7EC5"/>
<path d="M14.0596 87.1119C14.0596 87.3338 13.772 87.5139 13.4173 87.5139C13.0625 87.5139 12.7749 87.3338 12.7749 87.1119C12.7749 86.8901 13.0625 86.71 13.4173 86.71C13.772 86.71 14.0596 86.8901 14.0596 87.1119Z" fill="#3D7EC5"/>
<path d="M19.334 81.4058V80.9465H7.49806V81.4058H19.334Z" fill="#3D7EC5"/>
<path d="M19.334 81.4058V80.9465H7.49806V81.4058H19.334Z" fill="#3D7EC5"/>
<path d="M19.3377 81.8202C19.559 81.8202 19.7384 81.5317 19.7384 81.1759C19.7384 80.82 19.559 80.5315 19.3377 80.5315C19.1164 80.5315 18.937 80.82 18.937 81.1759C18.937 81.5317 19.1164 81.8202 19.3377 81.8202Z" fill="#3D7EC5"/>
<path d="M7.49984 81.8202C7.72115 81.8202 7.90056 81.5317 7.90056 81.1759C7.90056 80.82 7.72115 80.5315 7.49984 80.5315C7.27853 80.5315 7.09912 80.82 7.09912 81.1759C7.09912 81.5317 7.27853 81.8202 7.49984 81.8202Z" fill="#3D7EC5"/>
<path d="M17.7651 77.1404L17.4414 76.8157L9.07222 85.2109L9.39594 85.5356L17.7651 77.1404Z" fill="#3D7EC5"/>
<path d="M17.7651 77.1404L17.4414 76.8157L9.07222 85.2109L9.39594 85.5356L17.7651 77.1404Z" fill="#3D7EC5"/>
<path d="M18.0551 77.4346C17.8986 77.5916 17.5686 77.5145 17.3176 77.2631C17.0666 77.0114 16.9901 76.68 17.1467 76.5233C17.3032 76.3663 17.6336 76.4434 17.8842 76.6948C18.1348 76.9462 18.2113 77.2775 18.0551 77.4346Z" fill="#3D7EC5"/>
<path d="M9.68842 85.8294C9.53187 85.9865 9.20189 85.9098 8.9509 85.658C8.69991 85.4062 8.62343 85.0752 8.77998 84.9182C8.93654 84.7611 9.26652 84.8379 9.51751 85.0896C9.76849 85.3414 9.84497 85.6728 9.68842 85.8294Z" fill="#3D7EC5"/>
<path d="M17.44 85.5357L17.7637 85.2109L9.39449 76.8157L9.07077 77.1405L17.44 85.5357Z" fill="#3D7EC5"/>
<path d="M17.44 85.5357L17.7637 85.2109L9.39449 76.8157L9.07077 77.1405L17.44 85.5357Z" fill="#3D7EC5"/>
<path d="M17.1442 85.8289C16.9876 85.6719 17.0644 85.3409 17.3151 85.0891C17.5661 84.8374 17.896 84.7606 18.0526 84.9177C18.2091 85.0747 18.1323 85.4057 17.8817 85.6575C17.631 85.9093 17.3007 85.986 17.1442 85.8289Z" fill="#3D7EC5"/>
<path d="M8.77501 77.4339C8.61846 77.2769 8.6953 76.9459 8.94593 76.6941C9.19692 76.4423 9.52726 76.3656 9.68345 76.5227C9.84001 76.6797 9.76317 77.0107 9.51254 77.2625C9.26191 77.5139 8.93157 77.591 8.77501 77.4339Z" fill="#3D7EC5"/>
<path d="M18.065 83.2487L18.2319 82.821L8.76578 79.1032L8.59886 79.5308L18.065 83.2487Z" fill="#DD525D"/>
<path d="M18.065 83.2487L18.2319 82.821L8.76578 79.1032L8.59886 79.5308L18.065 83.2487Z" fill="#DD525D"/>
<path d="M17.9164 83.6352C17.7102 83.5541 17.6481 83.2199 17.7774 82.8885C17.9067 82.5571 18.1788 82.354 18.3846 82.4347C18.5907 82.5157 18.6528 82.85 18.5235 83.1813C18.3943 83.5127 18.1225 83.7158 17.9164 83.6352Z" fill="#DD525D"/>
<path d="M8.45004 79.9169C8.24394 79.8359 8.18182 79.5016 8.31108 79.1702C8.44035 78.8389 8.71252 78.6357 8.91827 78.7164C9.12437 78.7974 9.18649 79.1317 9.05723 79.4631C8.92796 79.7948 8.65615 79.9979 8.45004 79.9169Z" fill="#DD525D"/>
<path d="M11.3515 85.8407L11.7778 86.0081L15.4832 76.5125L15.0569 76.3451L11.3515 85.8407Z" fill="#DD525D"/>
<path d="M11.3515 85.8407L11.7778 86.0081L15.4832 76.5125L15.0569 76.3451L11.3515 85.8407Z" fill="#DD525D"/>
<path d="M10.9673 85.6895C11.0481 85.4827 11.3813 85.4204 11.7117 85.5501C12.042 85.6797 12.2445 85.9524 12.1637 86.1591C12.083 86.3659 11.7497 86.4282 11.4194 86.2985C11.0894 86.1689 10.8869 85.8962 10.9673 85.6895Z" fill="#DD525D"/>
<path d="M14.6763 76.1941C14.7571 75.9873 15.0903 75.925 15.4207 76.0547C15.751 76.1844 15.9535 76.4574 15.8727 76.6638C15.7919 76.8705 15.4587 76.9328 15.1284 76.8032C14.7984 76.6735 14.5959 76.4008 14.6763 76.1941Z" fill="#DD525D"/>
<path d="M8.66617 83.0085L8.84961 83.4292L18.1633 79.3432L17.9798 78.9225L8.66617 83.0085Z" fill="#DD525D"/>
<path d="M8.66617 83.0085L8.84961 83.4292L18.1633 79.3432L17.9798 78.9225L8.66617 83.0085Z" fill="#DD525D"/>
<path d="M8.50087 82.6289C8.70375 82.5399 8.9831 82.7323 9.12529 83.0582C9.26748 83.3846 9.21829 83.721 9.01578 83.8099C8.8129 83.8989 8.53355 83.7066 8.39136 83.3806C8.24917 83.0543 8.29836 82.7179 8.50087 82.6289Z" fill="#DD525D"/>
<path d="M17.8169 78.5432C18.0198 78.4542 18.2991 78.6466 18.4413 78.9725C18.5835 79.2989 18.5343 79.6353 18.3318 79.7243C18.1289 79.8132 17.8496 79.6209 17.7074 79.2949C17.5652 78.9686 17.614 78.6322 17.8169 78.5432Z" fill="#DD525D"/>
<path d="M11.5933 76.4107L11.1738 76.5947L15.2472 85.9373L15.6666 85.7533L11.5933 76.4107Z" fill="#DD525D"/>
<path d="M11.5933 76.4107L11.1738 76.5947L15.2472 85.9373L15.6666 85.7533L11.5933 76.4107Z" fill="#DD525D"/>
<path d="M11.9671 76.2469C12.0558 76.4504 11.8641 76.7307 11.5391 76.8733C11.2141 77.0159 10.8784 76.9666 10.7897 76.7634C10.701 76.5599 10.8928 76.2797 11.2177 76.1371C11.543 75.9944 11.8784 76.0434 11.9671 76.2469Z" fill="#DD525D"/>
<path d="M16.0429 85.5896C16.1316 85.7931 15.9399 86.0733 15.6149 86.216C15.29 86.3586 14.9542 86.3093 14.8659 86.1061C14.7772 85.9026 14.9689 85.6224 15.2939 85.4798C15.6189 85.3368 15.9542 85.3861 16.0429 85.5896Z" fill="#DD525D"/>
<path d="M13.4184 84.7968C15.4118 84.7968 17.0278 83.1758 17.0278 81.1762C17.0278 79.1766 15.4118 77.5557 13.4184 77.5557C11.425 77.5557 9.80908 79.1766 9.80908 81.1762C9.80908 83.1758 11.425 84.7968 13.4184 84.7968Z" fill="#3D7EC5"/>
<path opacity="0.3" d="M13.4612 78.304C13.5499 78.5075 13.3582 78.7877 13.0332 78.9303C12.7083 79.073 12.3726 79.0236 12.2842 78.8205C12.1955 78.617 12.3873 78.3367 12.7122 78.1941C13.0372 78.0511 13.3726 78.1005 13.4612 78.304ZM12.8763 83.4132C12.5514 83.5558 12.3596 83.8364 12.4483 84.0395C12.537 84.243 12.8724 84.292 13.1977 84.1494C13.5226 84.0067 13.7144 83.7262 13.6257 83.523C13.5366 83.3199 13.2013 83.2705 12.8763 83.4132ZM14.5833 78.6166C14.2584 78.7592 14.0666 79.0398 14.1553 79.243C14.244 79.4465 14.5794 79.4955 14.9047 79.3528C15.2296 79.2102 15.4214 78.9296 15.3327 78.7265C15.244 78.523 14.9083 78.474 14.5833 78.6166ZM15.9119 81.6641C15.5869 81.8067 15.3952 82.0873 15.4839 82.2905C15.5726 82.494 15.9079 82.543 16.2332 82.4003C16.5582 82.2577 16.7499 81.9771 16.6612 81.774C16.5726 81.5708 16.2372 81.5215 15.9119 81.6641ZM10.9018 80.732C10.5769 80.8746 10.3851 81.1552 10.4738 81.3583C10.5625 81.5618 10.8979 81.6108 11.2232 81.4682C11.5481 81.3255 11.7399 81.045 11.6512 80.8418C11.5621 80.6387 11.2268 80.5893 10.9018 80.732ZM13.723 81.4527C13.398 81.5953 13.2063 81.8759 13.295 82.079C13.3837 82.2825 13.7191 82.3315 14.044 82.1889C14.369 82.0463 14.5607 81.7657 14.472 81.5625C14.3833 81.3594 14.048 81.3101 13.723 81.4527Z" fill="white"/>
<path opacity="0.5" d="M15.6699 80.9467C15.4487 80.9467 15.2691 80.6582 15.2691 80.3023C15.2691 79.9464 15.4487 79.6579 15.6699 79.6579C15.891 79.6579 16.0706 79.9464 16.0706 80.3023C16.0706 80.6582 15.8914 80.9467 15.6699 80.9467ZM13.672 80.3023C13.672 79.9464 13.4925 79.6579 13.2713 79.6579C13.0501 79.6579 12.8706 79.9464 12.8706 80.3023C12.8706 80.6582 13.0501 80.9467 13.2713 80.9467C13.4925 80.9467 13.672 80.6582 13.672 80.3023ZM11.7804 79.4036C11.7804 79.0478 11.6009 78.7593 11.3797 78.7593C11.1585 78.7593 10.979 79.0478 10.979 79.4036C10.979 79.7595 11.1585 80.048 11.3797 80.048C11.6013 80.0484 11.7804 79.7599 11.7804 79.4036ZM12.1812 82.4656C12.1812 82.1097 12.0016 81.8212 11.7804 81.8212C11.5593 81.8212 11.3797 82.1097 11.3797 82.4656C11.3797 82.8214 11.5589 83.1099 11.7804 83.1099C12.0016 83.1099 12.1812 82.8214 12.1812 82.4656ZM15.1427 83.3743C15.1427 83.0184 14.9632 82.7299 14.742 82.7299C14.5208 82.7299 14.3413 83.0184 14.3413 83.3743C14.3413 83.7302 14.5208 84.0187 14.742 84.0187C14.9632 84.019 15.1427 83.7305 15.1427 83.3743Z" fill="#3D7EC5"/>
<path d="M135.423 121.616H134.965V133.488H135.423V121.616Z" fill="#3D7EC5"/>
<path d="M135.423 121.616H134.965V133.488H135.423V121.616Z" fill="#3D7EC5"/>
<path d="M135.84 121.615C135.84 121.837 135.553 122.017 135.198 122.017C134.843 122.017 134.556 121.837 134.556 121.615C134.556 121.393 134.843 121.213 135.198 121.213C135.553 121.214 135.84 121.393 135.84 121.615Z" fill="#3D7EC5"/>
<path d="M135.84 133.488C135.84 133.71 135.553 133.89 135.198 133.89C134.843 133.89 134.556 133.71 134.556 133.488C134.556 133.267 134.843 133.086 135.198 133.086C135.553 133.086 135.84 133.266 135.84 133.488Z" fill="#3D7EC5"/>
<path d="M141.116 127.782V127.323H129.28V127.782H141.116Z" fill="#3D7EC5"/>
<path d="M141.116 127.782V127.323H129.28V127.782H141.116Z" fill="#3D7EC5"/>
<path d="M141.118 128.197C140.896 128.197 140.717 127.908 140.717 127.553C140.717 127.197 140.896 126.908 141.118 126.908C141.339 126.908 141.518 127.197 141.518 127.553C141.518 127.908 141.339 128.197 141.118 128.197Z" fill="#3D7EC5"/>
<path d="M129.28 128.197C129.501 128.197 129.681 127.908 129.681 127.553C129.681 127.197 129.501 126.908 129.28 126.908C129.059 126.908 128.879 127.197 128.879 127.553C128.879 127.908 129.059 128.197 129.28 128.197Z" fill="#3D7EC5"/>
<path d="M139.543 123.515L139.219 123.191L130.85 131.586L131.174 131.911L139.543 123.515Z" fill="#3D7EC5"/>
<path d="M139.543 123.515L139.219 123.191L130.85 131.586L131.174 131.911L139.543 123.515Z" fill="#3D7EC5"/>
<path d="M139.833 123.81C139.676 123.967 139.346 123.891 139.095 123.639C138.844 123.387 138.768 123.056 138.925 122.899C139.081 122.742 139.411 122.819 139.662 123.071C139.913 123.322 139.99 123.653 139.833 123.81Z" fill="#3D7EC5"/>
<path d="M131.466 132.205C131.31 132.362 130.98 132.286 130.729 132.034C130.478 131.782 130.401 131.451 130.558 131.294C130.714 131.137 131.044 131.214 131.295 131.466C131.546 131.717 131.623 132.048 131.466 132.205Z" fill="#3D7EC5"/>
<path d="M139.22 131.912L139.544 131.588L131.175 123.192L130.851 123.517L139.22 131.912Z" fill="#3D7EC5"/>
<path d="M139.22 131.912L139.544 131.588L131.175 123.192L130.851 123.517L139.22 131.912Z" fill="#3D7EC5"/>
<path d="M138.925 132.205C138.768 132.048 138.844 131.717 139.095 131.466C139.346 131.214 139.676 131.137 139.833 131.294C139.99 131.451 139.913 131.782 139.662 132.034C139.411 132.286 139.081 132.362 138.925 132.205Z" fill="#3D7EC5"/>
<path d="M130.558 123.81C130.402 123.653 130.478 123.322 130.729 123.071C130.98 122.819 131.311 122.742 131.467 122.899C131.623 123.056 131.547 123.387 131.296 123.639C131.045 123.891 130.715 123.967 130.558 123.81Z" fill="#3D7EC5"/>
<path d="M130.549 125.474L130.382 125.902L139.848 129.619L140.015 129.191L130.549 125.474Z" fill="#DD525D"/>
<path d="M130.549 125.474L130.382 125.902L139.848 129.619L140.015 129.191L130.549 125.474Z" fill="#DD525D"/>
<path d="M139.698 130.009C139.492 129.928 139.43 129.594 139.559 129.263C139.688 128.931 139.96 128.728 140.166 128.809C140.372 128.89 140.435 129.224 140.305 129.556C140.176 129.887 139.904 130.09 139.698 130.009Z" fill="#DD525D"/>
<path d="M130.232 126.292C130.026 126.211 129.964 125.877 130.093 125.546C130.222 125.214 130.494 125.011 130.7 125.092C130.906 125.173 130.968 125.508 130.839 125.839C130.71 126.17 130.438 126.373 130.232 126.292Z" fill="#DD525D"/>
<path d="M136.832 122.715L133.126 132.211L133.553 132.378L137.258 122.883L136.832 122.715Z" fill="#DD525D"/>
<path d="M136.832 122.715L133.126 132.211L133.553 132.378L137.258 122.883L136.832 122.715Z" fill="#DD525D"/>
<path d="M132.745 132.063C132.826 131.856 133.159 131.794 133.49 131.923C133.82 132.053 134.022 132.326 133.942 132.532C133.861 132.739 133.528 132.801 133.197 132.672C132.867 132.542 132.665 132.269 132.745 132.063Z" fill="#DD525D"/>
<path d="M136.452 122.567C136.533 122.361 136.866 122.298 137.196 122.428C137.527 122.558 137.729 122.831 137.648 123.037C137.567 123.244 137.234 123.306 136.904 123.176C136.574 123.047 136.371 122.774 136.452 122.567Z" fill="#DD525D"/>
<path d="M139.761 125.293L130.447 129.379L130.631 129.8L139.944 125.714L139.761 125.293Z" fill="#DD525D"/>
<path d="M139.761 125.293L130.447 129.379L130.631 129.8L139.944 125.714L139.761 125.293Z" fill="#DD525D"/>
<path d="M130.282 129.002C130.485 128.913 130.764 129.106 130.906 129.432C131.049 129.758 130.999 130.095 130.797 130.183C130.594 130.272 130.315 130.08 130.172 129.754C130.03 129.428 130.079 129.091 130.282 129.002Z" fill="#DD525D"/>
<path d="M139.595 124.917C139.798 124.828 140.077 125.02 140.22 125.346C140.362 125.673 140.313 126.009 140.11 126.098C139.907 126.187 139.628 125.995 139.486 125.669C139.343 125.342 139.393 125.006 139.595 124.917Z" fill="#DD525D"/>
<path d="M133.37 122.783L132.95 122.967L137.024 132.31L137.443 132.126L133.37 122.783Z" fill="#DD525D"/>
<path d="M133.37 122.783L132.95 122.967L137.024 132.31L137.443 132.126L133.37 122.783Z" fill="#DD525D"/>
<path d="M133.748 122.62C133.837 122.824 133.645 123.104 133.32 123.246C132.995 123.389 132.659 123.34 132.57 123.137C132.482 122.933 132.674 122.653 132.998 122.51C133.324 122.368 133.659 122.417 133.748 122.62Z" fill="#DD525D"/>
<path d="M137.824 131.964C137.913 132.167 137.721 132.447 137.396 132.59C137.071 132.733 136.735 132.683 136.647 132.48C136.558 132.277 136.75 131.997 137.075 131.854C137.4 131.711 137.735 131.76 137.824 131.964Z" fill="#DD525D"/>
<path d="M135.196 131.172C137.189 131.172 138.805 129.551 138.805 127.551C138.805 125.552 137.189 123.931 135.196 123.931C133.202 123.931 131.586 125.552 131.586 127.551C131.586 129.551 133.202 131.172 135.196 131.172Z" fill="#3D7EC5"/>
<path opacity="0.3" d="M135.239 124.679C135.328 124.882 135.136 125.163 134.811 125.305C134.486 125.448 134.15 125.399 134.062 125.195C133.973 124.992 134.165 124.712 134.49 124.569C134.815 124.426 135.15 124.476 135.239 124.679ZM134.654 129.789C134.329 129.931 134.137 130.212 134.226 130.415C134.315 130.618 134.65 130.667 134.976 130.525C135.301 130.382 135.492 130.102 135.404 129.898C135.315 129.695 134.979 129.646 134.654 129.789ZM136.361 124.992C136.036 125.134 135.844 125.415 135.933 125.618C136.022 125.821 136.357 125.87 136.683 125.728C137.007 125.585 137.199 125.305 137.111 125.101C137.022 124.898 136.686 124.849 136.361 124.992ZM137.69 128.039C137.365 128.182 137.173 128.462 137.262 128.665C137.35 128.869 137.686 128.918 138.011 128.775C138.336 128.633 138.527 128.352 138.439 128.149C138.35 127.946 138.015 127.896 137.69 128.039ZM132.68 127.107C132.355 127.25 132.163 127.531 132.252 127.734C132.34 127.937 132.676 127.986 133.001 127.844C133.326 127.701 133.518 127.42 133.429 127.217C133.34 127.014 133.005 126.965 132.68 127.107ZM135.501 127.828C135.176 127.97 134.984 128.251 135.073 128.454C135.162 128.658 135.497 128.707 135.822 128.564C136.147 128.421 136.339 128.141 136.25 127.938C136.162 127.734 135.826 127.685 135.501 127.828Z" fill="white"/>
<path opacity="0.5" d="M137.452 127.322C137.23 127.322 137.051 127.034 137.051 126.678C137.051 126.322 137.23 126.033 137.452 126.033C137.673 126.033 137.852 126.322 137.852 126.678C137.852 127.033 137.673 127.322 137.452 127.322ZM135.453 126.677C135.453 126.321 135.274 126.033 135.053 126.033C134.831 126.033 134.652 126.321 134.652 126.677C134.652 127.033 134.831 127.322 135.053 127.322C135.274 127.322 135.453 127.033 135.453 126.677ZM133.562 125.779C133.562 125.423 133.383 125.134 133.161 125.134C132.94 125.134 132.761 125.423 132.761 125.779C132.761 126.135 132.94 126.423 133.161 126.423C133.383 126.423 133.562 126.135 133.562 125.779ZM133.963 128.841C133.963 128.485 133.783 128.196 133.562 128.196C133.341 128.196 133.161 128.485 133.161 128.841C133.161 129.196 133.341 129.485 133.562 129.485C133.783 129.485 133.963 129.196 133.963 128.841ZM136.924 129.75C136.924 129.394 136.745 129.105 136.523 129.105C136.302 129.105 136.123 129.394 136.123 129.75C136.123 130.106 136.302 130.394 136.523 130.394C136.745 130.394 136.924 130.106 136.924 129.75Z" fill="#3D7EC5"/>
<path opacity="0.1" d="M136.132 126.565C161.746 100.872 161.746 59.2148 136.132 33.5216C110.519 7.82845 68.991 7.82845 43.3774 33.5216C17.7639 59.2148 17.7639 100.872 43.3774 126.565C68.991 152.258 110.519 152.258 136.132 126.565Z" fill="white"/>
<path opacity="0.1" d="M130.232 120.646C152.586 98.2215 152.586 61.8649 130.232 39.4408C107.877 17.0166 71.633 17.0166 49.2784 39.4408C26.9238 61.8649 26.9238 98.2216 49.2784 120.646C71.633 143.07 107.877 143.07 130.232 120.646Z" fill="white"/>
<path d="M89.7545 127.279C115.761 127.279 136.844 106.131 136.844 80.0434C136.844 53.9558 115.761 32.8076 89.7545 32.8076C63.7477 32.8076 42.665 53.9558 42.665 80.0434C42.665 106.131 63.7477 127.279 89.7545 127.279Z" fill="#3D7EC5"/>
<path d="M133.268 83.7689C133.268 86.4508 133.879 89.5927 132.733 91.2784C131.587 92.964 128.532 94.8798 127.93 98.0217C127.329 101.164 124.636 106.604 123.49 105.225C122.344 103.845 121.351 105.531 119.9 104.228C118.448 102.926 118.372 100.55 117.15 99.9372C115.927 99.3241 115.469 97.8683 116.156 95.3394C116.844 92.8106 115.622 90.0519 114.17 88.9026C112.719 87.7532 113.788 83.1555 114.094 80.9332C114.399 78.7108 111.42 79.8602 107.219 79.6304C103.017 79.4006 101.413 78.0978 101.795 76.182C102.177 74.2662 98.3574 73.6532 98.5869 69.8219C98.8159 65.9906 106.455 60.0134 109.434 59.0939C112.413 58.1743 112.413 61.3162 113.941 60.6264C115.469 59.9367 117.608 63.0018 119.212 62.0056C120.817 61.0093 121.428 63.1549 122.421 62.3888C123.414 61.6223 124.025 61.3925 125.782 61.3158C127.539 61.2391 128.455 60.013 127.615 57.7939C126.775 55.5749 124.407 58.2507 124.178 57.4075C123.948 56.5646 122.955 55.9516 122.803 57.101C122.65 58.2503 121.428 58.0205 120.969 56.028C120.511 54.0358 119.9 55.9513 119.365 55.2615C118.83 54.5718 119.288 53.7289 117.684 53.9587C116.08 54.1885 114.858 54.955 114.246 53.5755C113.635 52.1963 110.58 52.9625 110.037 54.6485C109.495 56.3345 106.226 57.1006 105.232 55.9513C104.239 54.8019 104.316 53.4224 107.524 53.1159C110.732 52.8094 107.218 50.6638 109.434 50.2805C111.649 49.8973 111.955 49.6675 111.958 48.288C111.961 46.9089 111.878 46.1424 114.17 45.2996C116.462 44.4567 115.239 42.5409 113.1 41.6981C111.983 41.2576 111.652 39.6562 111.844 38.3196C126.624 46.2108 136.713 61.77 136.837 79.7075C135.07 80.5939 133.268 82.1528 133.268 83.7689ZM67.9534 43.3856C69.9398 43.0023 69.6342 41.393 70.0159 39.9372C70.398 38.4813 72.6895 38.8645 76.891 38.0981C79.0831 37.6983 79.9039 35.6506 80.1886 33.7827C64.11 37.1101 51.027 48.659 45.501 63.8547C46.2809 64.6003 46.6428 65.6895 46.4109 66.5269C46.0288 67.9061 47.022 69.8986 49.39 70.1284C51.7581 70.3582 52.3143 70.6449 53.3839 73.3268C54.4536 76.0088 56.7236 75.1094 58.557 75.0327C60.3904 74.9559 60.3904 76.642 61.9182 76.9485C63.4461 77.255 62.682 79.5537 61.3836 81.6229C60.0848 83.6918 60.3143 84.4583 61.1545 85.7607C61.9947 87.0635 60.9254 88.5194 60.1613 89.4389C59.3972 90.3584 62.0712 94.1897 64.2863 94.6497C66.5017 95.1093 66.9599 97.6381 66.9599 101.163C66.9599 104.688 67.7236 106.067 68.9459 107.6C70.1681 109.133 70.6263 110.742 70.3208 111.891C70.0152 113.041 73.1473 120.014 75.2098 120.32C77.2723 120.627 76.3556 116.259 76.4321 113.883C76.5086 111.508 79.4877 110.052 80.4809 108.52C81.4741 106.987 80.3283 106.527 81.6267 104.075C82.9254 101.623 83.0019 100.32 82.6964 98.0213C82.3908 95.7227 82.2378 95.799 84.4533 94.7264C86.6687 93.6534 87.2798 90.8948 88.0436 87.983C88.8077 85.071 87.891 84.6114 81.7797 83.3853C75.6683 82.1592 78.2658 77.4848 74.6752 77.6382C71.0849 77.7917 70.8558 75.9526 67.9527 74.42C65.05 72.8874 61.7358 76.9939 60.8953 75.1548C60.055 73.3157 58.3272 72.9641 58.0981 71.4316C57.869 69.899 56.9523 69.0561 54.966 68.5962C52.98 68.1362 52.9035 65.6841 53.5146 64.2283C54.1258 62.7724 58.5563 62.0059 58.9383 63.9985C59.3204 65.9906 60.9243 66.3739 62.4522 64.6882C63.98 63.0026 63.2924 59.0179 65.8899 60.0905C68.4874 61.1635 67.8762 58.5579 70.6263 59.5542C73.3764 60.5504 72.0777 58.0216 74.5987 57.3318C77.1197 56.6421 76.1265 53.9602 75.2863 52.5043C74.4461 51.0484 76.0504 50.2056 78.0364 50.1289C80.0224 50.0522 80.7865 47.2172 81.1685 45.0716C81.5506 42.926 79.4116 43.6924 77.8838 41.9297C76.356 40.1673 76.0504 42.5427 74.7516 41.853C73.4529 41.1632 72.4597 42.1595 72.9182 43.3856C73.3768 44.6116 72.4597 46.374 69.8626 46.5274C67.2658 46.6809 65.9671 43.7688 67.9534 43.3856Z" fill="#073D78"/>
<path opacity="0.3" d="M69.5122 39.4335C57.2289 45.0073 46.2127 63.5182 51.951 73.4992C57.6896 83.4799 112.759 53.9143 110.857 45.5558C108.955 37.1971 93.699 28.4583 69.5122 39.4335Z" fill="white"/>
<path opacity="0.4" d="M131.275 57.7458C132.467 61.7197 133.111 65.9321 133.111 70.2957C133.111 94.3152 113.7 113.787 89.7545 113.787C65.8094 113.787 46.3983 94.3152 46.3983 70.2957C46.3983 65.9321 47.0417 61.7197 48.2338 57.7458C44.6816 64.3876 42.665 71.9788 42.665 80.0437C42.665 106.131 63.7477 127.28 89.7545 127.28C115.761 127.28 136.844 106.131 136.844 80.0437C136.844 71.9788 134.827 64.3876 131.275 57.7458Z" fill="#3D7EC5"/>
<path d="M23.8753 66.8089H64.9781C64.9781 66.8089 66.7651 58.9655 58.624 59.5631C58.624 59.5631 57.6312 53.1893 51.8728 56.3762C51.8728 56.3762 50.0858 47.0146 39.3633 47.413C28.6408 47.8114 29.8322 61.3557 29.8322 61.3557C29.8322 61.3557 23.6767 59.714 23.8753 66.8089Z" fill="white"/>
<path opacity="0.5" d="M25.8599 66.8091H63.6768C63.6768 66.8091 64.3727 61.8527 58.2384 63.4166C58.2384 63.4166 56.2305 58.57 51.8707 62.0202C51.8707 62.0202 49.2667 52.7271 40.2502 52.9842C31.2337 53.2411 30.5956 64.2778 30.5956 64.2778C30.5956 64.2778 26.5292 63.0665 25.8599 66.8091Z" fill="#D8D8D8"/>
<path d="M30.0896 63.0664C29.8813 62.2365 29.797 61.3782 29.7614 60.522C29.728 59.6648 29.7589 58.8047 29.8354 57.9489C30.0092 56.2359 30.3675 54.5513 30.9348 52.9107C31.5277 51.2628 32.6576 49.8235 34.076 48.7985C34.7937 48.301 35.5668 47.8656 36.4009 47.5965C36.807 47.4283 37.2404 47.3545 37.6623 47.2396C37.8756 47.1924 38.0936 47.1711 38.3086 47.1362C38.5252 47.1096 38.7399 47.0595 38.9582 47.0584C40.7022 46.9424 42.4411 47.2154 44.0889 47.7352C45.7363 48.2593 47.3086 49.0996 48.5797 50.2921C49.848 51.4843 50.8049 52.9802 51.4343 54.5826C51.7374 55.3909 51.9629 56.2233 52.1252 57.0661C52.2756 57.9114 52.3618 58.7658 52.3747 59.6205C52.3033 58.7683 52.169 57.9255 51.9851 57.0953C51.7848 56.2686 51.5234 55.4593 51.1894 54.6824C50.523 53.1318 49.5535 51.7091 48.3004 50.599C47.0368 49.5026 45.5435 48.6882 43.9417 48.2042C42.3424 47.7154 40.6562 47.4715 38.9988 47.5962C38.7898 47.5944 38.5866 47.6415 38.3804 47.6642C38.1758 47.6959 37.9679 47.7132 37.7654 47.7561C37.3654 47.8623 36.9521 47.9264 36.5675 48.0831C35.7747 48.3291 35.0422 48.7351 34.3585 49.1983C33.0016 50.1517 31.9417 51.5146 31.3187 53.0598C30.723 54.6295 30.3183 56.2996 30.0953 57.9788C29.8666 59.659 29.8124 61.3793 30.0896 63.0664Z" fill="#042B54"/>
<path d="M58.6725 60.6783C58.6269 59.8236 58.4154 59.0024 58.0567 58.2694C57.6947 57.5379 57.1676 56.9064 56.5195 56.4252C55.9059 55.9123 55.1184 55.7571 54.3016 55.8093C53.4876 55.8634 52.6685 56.0831 51.8682 56.3773C52.5687 55.8832 53.382 55.5323 54.256 55.3912C54.6926 55.3162 55.1497 55.3213 55.6017 55.4074C56.0484 55.4953 56.4969 55.7265 56.8423 55.993C57.1953 56.2657 57.5192 56.5805 57.7931 56.9345C58.0585 57.2944 58.2886 57.683 58.4412 58.1008C58.7565 58.9285 58.8513 59.8355 58.6725 60.6783Z" fill="#042B54"/>
<path d="M29.8313 61.3563C29.0604 61.0894 28.2184 61.04 27.431 61.2097C26.6382 61.3743 25.9236 61.8062 25.3628 62.3806C24.7936 62.949 24.3875 63.6658 24.1466 64.4268C23.9229 65.1886 23.8321 66.0163 24.0206 66.7709L23.8744 66.6578C27.2996 66.6315 30.7247 66.5793 34.1502 66.5746L44.426 66.5426L54.7018 66.5681C58.1269 66.5703 61.5524 66.6041 64.9775 66.6391L64.812 66.7709C65.0063 65.8427 65.0601 64.8565 64.9449 63.9057C64.8253 62.9573 64.5244 62.0136 63.9269 61.2616C63.3283 60.516 62.4594 60.0034 61.5208 59.7744C60.5833 59.5309 59.5958 59.4909 58.6235 59.5637C59.5915 59.4524 60.5854 59.4426 61.5477 59.6652C62.509 59.8684 63.43 60.3672 64.0838 61.1322C64.733 61.9027 65.0903 62.8835 65.2271 63.8678C65.3639 64.8591 65.3309 65.8571 65.1434 66.848C65.1287 66.9251 65.0619 66.9791 64.9865 66.9798H64.9779C61.5528 67.0144 58.1273 67.0483 54.7021 67.0504L44.4263 67.076L34.1506 67.0439C30.7254 67.0393 27.3003 66.987 23.8748 66.9607H23.8683C23.7997 66.9604 23.743 66.9121 23.7283 66.8476C23.538 66.0019 23.6493 65.1425 23.9111 64.3494C24.1872 63.5599 24.6349 62.8269 25.2421 62.2567C25.8389 61.6812 26.5954 61.2565 27.4116 61.1142C28.2245 60.9658 29.0719 61.0599 29.8313 61.3563Z" fill="#042B54"/>
<path d="M110.717 110.437H146.609C146.609 110.437 147.237 104.268 141.59 105.527C141.59 105.527 140.962 99.1067 134.436 101.373C134.436 101.373 133.972 96.3311 128.559 99.1067C128.559 99.1067 126.404 93.8192 120.083 95.0849C114.68 96.1665 113.604 102.252 115.235 104.268C115.235 104.268 110.333 104.52 110.717 110.437Z" fill="white"/>
<path opacity="0.5" d="M112.511 110.437H145.267C145.267 110.437 144.894 106.232 139.536 107.036C139.536 107.036 138.302 102.663 133.908 104.626C133.908 104.626 132.343 100.787 128.575 102.588C128.575 102.588 126.413 98.4819 121.096 99.3583C116.551 100.107 116.482 105.052 116.999 106.867C116.999 106.867 112.511 105.859 112.511 110.437Z" fill="#D8D8D8"/>
<path d="M115.831 105.33C115.058 104.613 114.596 103.581 114.458 102.522C114.323 101.453 114.479 100.373 114.793 99.3481C115.109 98.309 115.734 97.3743 116.52 96.6309C117.312 95.8879 118.269 95.3368 119.287 94.9798C120.312 94.6405 121.403 94.4918 122.483 94.5872C122.617 94.6024 122.753 94.6081 122.887 94.6308L123.286 94.7104C123.555 94.7504 123.81 94.8563 124.07 94.9326C124.325 95.0231 124.569 95.1322 124.813 95.2413C125.05 95.3677 125.293 95.479 125.519 95.6264C126.438 96.1753 127.252 96.9101 127.86 97.7871C128.459 98.6681 128.872 99.6719 129.03 100.711C128.499 98.6771 127.117 96.9403 125.314 95.9876C124.867 95.7431 124.392 95.546 123.914 95.3796C123.672 95.3166 123.438 95.223 123.187 95.1931L122.817 95.1282C122.692 95.1102 122.566 95.1084 122.441 95.0973C121.438 95.0234 120.417 95.1657 119.46 95.4913C117.552 96.1339 115.87 97.5631 115.183 99.481C114.839 100.438 114.642 101.474 114.719 102.496C114.768 103.519 115.149 104.529 115.831 105.33Z" fill="#042B54"/>
<path d="M134.472 102.664C134.46 101.896 134.305 101.155 134.01 100.488C133.71 99.8362 133.284 99.1961 132.724 98.8356C132.147 98.4787 131.414 98.39 130.693 98.4715C129.97 98.5525 129.242 98.7585 128.561 99.1075C129.119 98.5698 129.854 98.2229 130.627 98.0554C131.395 97.879 132.274 97.9351 133.009 98.3778C133.727 98.8641 134.146 99.5859 134.402 100.34C134.648 101.098 134.683 101.92 134.472 102.664Z" fill="#042B54"/>
<path d="M141.465 106.458C141.453 105.553 141.239 104.682 140.877 103.892C140.688 103.501 140.484 103.118 140.224 102.772C139.965 102.421 139.702 102.086 139.368 101.842C139.214 101.702 139.029 101.605 138.852 101.494C138.662 101.409 138.477 101.309 138.273 101.251C137.877 101.103 137.45 101.04 137.02 101.004C136.59 100.975 136.149 100.981 135.714 101.041C135.278 101.099 134.836 101.174 134.432 101.374C134.776 101.069 135.225 100.913 135.661 100.781C136.104 100.656 136.565 100.589 137.031 100.583C137.956 100.559 138.941 100.808 139.701 101.418C140.087 101.717 140.385 102.102 140.643 102.483C140.899 102.874 141.11 103.296 141.266 103.735C141.579 104.61 141.677 105.572 141.465 106.458Z" fill="#042B54"/>
<path d="M115.233 104.269C114.52 104.342 113.824 104.564 113.205 104.913C112.588 105.262 112.044 105.746 111.663 106.341C111.292 106.941 111.045 107.611 110.935 108.31C110.869 108.655 110.87 109.013 110.832 109.363L110.869 110.426L110.715 110.283C113.706 110.256 116.697 110.201 119.688 110.201L128.661 110.168L137.635 110.201C140.626 110.201 143.617 110.255 146.608 110.283L146.454 110.42C146.519 109.733 146.475 109.014 146.329 108.331C146.177 107.65 145.912 106.978 145.454 106.448C145.238 106.172 144.958 105.956 144.667 105.764C144.365 105.586 144.034 105.46 143.69 105.386C142.999 105.244 142.265 105.303 141.588 105.528C142.254 105.273 142.991 105.166 143.708 105.288C144.065 105.351 144.414 105.468 144.736 105.643C145.047 105.832 145.35 106.049 145.588 106.33C146.091 106.871 146.394 107.567 146.579 108.272C146.757 108.985 146.812 109.714 146.761 110.456L146.752 110.592L146.608 110.593C143.617 110.621 140.626 110.675 137.635 110.675L128.661 110.708L119.688 110.675C116.697 110.675 113.706 110.62 110.715 110.593L110.563 110.592L110.561 110.45L110.547 109.354C110.594 108.99 110.6 108.621 110.683 108.263C110.823 107.542 111.107 106.849 111.516 106.241C111.934 105.636 112.515 105.158 113.158 104.825C113.802 104.49 114.518 104.309 115.233 104.269Z" fill="#042B54"/>
<path d="M87.6217 77.0287C87.6217 77.0287 75.7334 73.0108 74.1003 73.5569C72.4673 74.1029 74.0217 77.2415 76.5143 79.153C79.007 81.0645 84.4418 83.1114 84.4418 83.1114L91.3815 104.268L96.416 98.8504L87.6217 77.0287Z" fill="#AAF5F7"/>
<path opacity="0.6" d="M74.1 73.5569C73.4882 73.7615 73.3241 74.3302 73.4889 75.0617C77.0253 75.1932 85.0379 77.3446 85.5015 78.1532C85.9011 78.8501 90.3977 92.4834 90.3977 92.4834C89.9352 94.2742 89.0106 97.0397 89.0106 97.0397L91.3816 104.268L96.416 98.85L87.6214 77.0287C87.6214 77.0287 75.7331 73.0108 74.1 73.5569Z" fill="#04C5D6"/>
<path d="M87.6236 77.0285C85.2491 76.2822 82.8682 75.5568 80.4707 74.8966C79.2728 74.5649 78.0696 74.2494 76.8577 73.9861C76.252 73.8578 75.6423 73.7372 75.0337 73.6767C74.7346 73.645 74.4136 73.6298 74.1633 73.6918C73.9001 73.7743 73.6969 73.9623 73.6301 74.2249C73.5536 74.4831 73.5827 74.7842 73.6524 75.0695C73.7238 75.3573 73.8358 75.6397 73.9691 75.912C74.238 76.4569 74.5877 76.9648 74.9762 77.4384C75.3683 77.9095 75.8007 78.3486 76.271 78.7412C76.7371 79.1388 77.2545 79.4716 77.7791 79.7958C78.8391 80.429 79.9504 80.9833 81.0789 81.4973C82.2046 82.0167 83.3493 82.5044 84.5041 82.9517L84.5809 82.9816L84.6057 83.0583C85.7515 86.5881 86.9095 90.1136 88.0312 93.651L89.721 98.955L91.3834 104.268L89.5763 99.0029L87.7964 93.7288C86.605 90.2141 85.4499 86.6876 84.2825 83.1653L84.3841 83.2716C82.0556 82.3686 79.7586 81.3795 77.6024 80.0883C77.0703 79.7562 76.5389 79.4101 76.0577 78.9958C75.5737 78.5878 75.1303 78.1328 74.7278 77.6441C74.3288 77.1524 73.969 76.6255 73.6883 76.0499C73.5493 75.7618 73.4305 75.4606 73.3529 75.1422C73.2793 74.826 73.2387 74.4813 73.3396 74.1377C73.3902 73.9684 73.4818 73.8016 73.6157 73.6759C73.75 73.5502 73.9105 73.467 74.0771 73.4144C74.4337 73.3327 74.7464 73.3683 75.0624 73.4018C75.6915 73.4742 76.3026 73.6053 76.9116 73.7437C78.1278 74.0271 79.3281 74.3614 80.5235 74.7122C82.9098 75.4246 85.2764 76.1994 87.6236 77.0285Z" fill="#073D78"/>
<path d="M86.4785 63.4095C86.4785 63.4095 76.9536 56.5848 75.8649 56.9943C74.7762 57.4038 75.0484 62.8635 78.178 66.5489C81.3076 70.2342 83.2915 70.7799 84.2724 72.6911C85.2534 74.6022 92.6014 95.8948 92.6014 95.8948L97.4997 84.2929L86.4785 63.4095Z" fill="#AAF5F7"/>
<path opacity="0.8" d="M75.9587 57.9324C75.9587 57.9324 75.3045 63.3963 81.1756 68.9007C81.1756 68.9007 77.2209 61.3156 75.9587 57.9324Z" fill="white"/>
<path opacity="0.6" d="M86.4786 63.4092C86.4786 63.4092 84.8046 62.2101 82.7812 60.8479L92.592 85.1347C92.592 85.1347 91.9504 87.5393 90.9209 91.0514C91.9087 93.8871 92.6017 95.8948 92.6017 95.8948L97.5001 84.2929L86.4786 63.4092Z" fill="#04C5D6"/>
<path d="M86.4788 63.4097C84.5545 62.0781 82.6091 60.7764 80.6285 59.5341C79.6386 58.9139 78.6436 58.298 77.6152 57.7527C77.3581 57.6173 77.0982 57.4876 76.835 57.3698C76.5743 57.2567 76.2974 57.1429 76.0439 57.1101C75.8256 57.055 75.6737 57.3194 75.5865 57.569C75.5007 57.8298 75.4615 58.1143 75.4403 58.3985C75.3779 59.5449 75.5818 60.7065 75.891 61.8191C76.2087 62.9332 76.6669 64.0083 77.2666 64.9967C77.8561 65.9904 78.6421 66.8516 79.4447 67.6962C80.2533 68.5333 81.1193 69.3077 82.0249 70.0461C82.4734 70.421 82.9301 70.792 83.3581 71.2095C83.7833 71.6255 84.179 72.1027 84.4432 72.6513C84.9319 73.747 85.3168 74.8419 85.7287 75.9441C86.533 78.1477 87.3269 80.3538 88.0903 82.5707L90.3768 89.2222L92.6027 95.8946L87.8303 82.6637C87.0264 80.4619 86.2418 78.2529 85.4228 76.0583C85.0102 74.9673 84.6084 73.8507 84.1377 72.8072C83.6357 71.7847 82.6899 71.0712 81.7965 70.3231C80.8917 69.5782 80.0131 68.7854 79.1987 67.9343C78.3951 67.0811 77.5937 66.1957 76.9883 65.166C76.3768 64.1477 75.9136 63.0448 75.5933 61.9034C75.2784 60.7624 75.0834 59.5766 75.1667 58.3776C75.1933 58.0783 75.2375 57.7775 75.3391 57.4822C75.3973 57.336 75.4579 57.1876 75.5728 57.0561C75.6328 56.9923 75.7003 56.9311 75.7897 56.8918C75.873 56.8569 75.9951 56.8432 76.0669 56.8598C76.3933 56.9077 76.6608 57.0316 76.9333 57.1519C77.2023 57.2769 77.464 57.4123 77.7222 57.5528C78.7531 58.119 79.742 58.7475 80.7233 59.3865C82.6752 60.6806 84.5876 62.0306 86.4788 63.4097Z" fill="#073D78"/>
<path d="M95.3225 89.4794C95.3225 89.4794 84.845 62.8288 82.6679 57.9321C80.4909 53.0358 81.7153 44.0272 88.9951 54.4005C96.2748 64.7741 100.478 82.6547 100.478 82.6547L95.3225 89.4794Z" fill="#AAF5F7"/>
<path opacity="0.8" d="M84.275 50.6797C84.275 50.6797 82.3044 50.7236 82.2954 53.8226C82.2864 56.9217 87.5532 67.6493 87.5532 67.6493C87.5532 67.6493 83.8426 56.891 83.6954 54.3597C83.5486 51.8279 84.275 50.6797 84.275 50.6797Z" fill="white"/>
<path opacity="0.6" d="M95.3249 89.4794L100.481 82.6546C100.481 82.6546 96.2775 64.7741 88.9978 54.4004C87.8729 52.7973 86.8926 51.658 86.047 50.894C85.6255 52.8502 85.1522 56.939 86.7353 62.3414C88.9885 70.0309 93.573 80.9005 93.573 80.9005C93.573 80.9005 93.4165 82.6186 93.1203 83.8861C94.4344 87.2145 95.3249 89.4794 95.3249 89.4794Z" fill="#04C5D6"/>
<path opacity="0.6" d="M78.7144 80.5269C80.1969 81.2238 82.0634 82.1571 82.6871 82.402L96.1815 68.8191C95.7445 67.659 95.2763 66.4758 94.7776 65.2897L93.0594 63.0659L84.77 73.8646C85.0081 74.4718 85.3065 75.2632 85.6469 76.1863C85.1359 76.0177 84.3916 75.775 83.5165 75.4976L78.7144 80.5269Z" fill="#04C5D6"/>
<path d="M95.3227 89.4793L92.9144 83.6101L90.5331 77.7305L85.7891 65.9647C85.0028 64.0021 84.2142 62.0405 83.4074 60.0876L82.7949 58.6271C82.5941 58.1441 82.3629 57.6571 82.1977 57.1449C81.8548 56.1289 81.6534 55.0696 81.588 54.0013C81.532 52.938 81.5722 51.8402 81.9755 50.8219C82.0753 50.5684 82.2178 50.3299 82.387 50.1098C82.5755 49.9078 82.7895 49.7075 83.0638 49.6211C83.606 49.4089 84.1898 49.571 84.6645 49.8058C85.616 50.3205 86.3798 51.082 87.0774 51.874C87.7737 52.6725 88.397 53.5287 88.9952 54.3996C88.3654 53.5514 87.7169 52.7165 87.0067 51.9378C86.2947 51.1677 85.5123 50.4336 84.5877 49.9647C84.1281 49.7482 83.5941 49.6175 83.1356 49.8102C82.9008 49.8858 82.7184 50.0652 82.5521 50.2463C82.4035 50.4481 82.2749 50.6674 82.1848 50.9076C81.8189 51.8711 81.7905 52.9466 81.8627 53.9822C81.9453 55.0238 82.1561 56.0572 82.4907 57.0437C82.6527 57.5383 82.8789 58.0076 83.0864 58.4992L83.7083 59.9605C84.5259 61.912 85.3259 63.8695 86.1209 65.8293C87.6882 69.7578 89.2552 73.686 90.788 77.6278C92.3213 81.5704 93.8426 85.5165 95.3227 89.4793Z" fill="#073D78"/>
<path d="M73.3392 83.8916C73.3083 83.8916 73.2778 83.8797 73.2544 83.8563L70.9722 81.567C70.9496 81.5443 70.937 81.5141 70.937 81.482C70.937 81.4499 70.9499 81.4193 70.9722 81.397L74.346 78.0131C74.3686 77.9904 74.3988 77.9778 74.4307 77.9778C74.4627 77.9778 74.4932 77.9908 74.5155 78.0131L76.7973 80.3024C76.844 80.3492 76.844 80.4256 76.7973 80.4728L73.4239 83.857C73.4006 83.8801 73.3697 83.8916 73.3392 83.8916Z" fill="white"/>
<path d="M74.428 78.098L76.7102 80.3873L73.3364 83.7716L71.0542 81.4823L74.428 78.098ZM74.428 77.8574C74.3644 77.8574 74.3034 77.8826 74.2581 77.928L70.8843 81.3123C70.8395 81.3573 70.814 81.4186 70.814 81.4827C70.814 81.5464 70.8391 81.6076 70.8843 81.653L73.1666 83.9424C73.2133 83.9892 73.275 84.013 73.3364 84.013C73.3978 84.013 73.4592 83.9895 73.5062 83.9424L76.88 80.5581C76.9738 80.4641 76.9738 80.3117 76.88 80.2177L74.5978 77.9284C74.5526 77.8826 74.4915 77.8574 74.428 77.8574Z" fill="#073D78"/>
<path d="M74.4475 88.0219C74.4169 88.0219 74.3861 88.01 74.3627 87.9866L66.8568 80.4574C66.8101 80.4105 66.8101 80.3342 66.8568 80.287L68.3624 78.7768C68.3857 78.7533 68.4166 78.7415 68.4471 78.7415C68.4776 78.7415 68.5085 78.7533 68.5318 78.7768L76.0378 86.306C76.0844 86.3528 76.0844 86.4292 76.0378 86.4764L74.5322 87.9866C74.5089 88.01 74.4783 88.0219 74.4475 88.0219Z" fill="white"/>
<path d="M68.4467 78.8616L75.9527 86.3908L74.4471 87.9011L66.9412 80.3718L68.4467 78.8616ZM68.4467 78.6206C68.3832 78.6206 68.3221 78.6462 68.2769 78.6912L66.771 80.2015C66.6773 80.2955 66.6773 80.4478 66.771 80.5418L74.2769 88.0711C74.3236 88.1183 74.3853 88.1417 74.4467 88.1417C74.5081 88.1417 74.5695 88.1183 74.6166 88.0711L76.1222 86.5608C76.167 86.5158 76.1925 86.4546 76.1925 86.3905C76.1925 86.3267 76.1674 86.2655 76.1222 86.2201L68.6162 78.6908C68.5713 78.6462 68.5103 78.6206 68.4467 78.6206Z" fill="#073D78"/>
<path d="M106.702 47.5891L121.261 33.4109L107.128 48.0163L106.702 47.5891Z" fill="white"/>
<path d="M108.827 47.6801C108.806 47.6801 108.786 47.6715 108.771 47.6571L106.97 45.8508C106.94 45.8198 106.94 45.7694 106.97 45.738L109.804 42.8955C109.814 42.8857 109.827 42.8785 109.84 42.8749C109.85 42.8724 110.082 42.8123 110.386 42.8123C110.715 42.8123 111.171 42.8861 111.471 43.2384C111.756 43.5715 111.846 44.0869 111.739 44.7706C111.737 44.7871 111.729 44.8026 111.717 44.8145L108.883 47.6571C108.868 47.6718 108.848 47.6801 108.827 47.6801Z" fill="#AAF5F7"/>
<path d="M110.384 42.8916C111 42.8916 111.91 43.152 111.659 44.7581L108.826 47.6007L107.025 45.7943L109.858 42.9521C109.858 42.9521 110.087 42.8916 110.384 42.8916ZM110.384 42.7324C110.071 42.7324 109.828 42.7951 109.818 42.798C109.791 42.8052 109.766 42.8192 109.746 42.8394L106.913 45.6816C106.851 45.7436 106.851 45.8444 106.913 45.9064L108.714 47.7127C108.745 47.7436 108.785 47.7591 108.826 47.7591C108.866 47.7591 108.907 47.7436 108.938 47.7127L111.771 44.8705C111.795 44.8467 111.811 44.8157 111.816 44.7826C111.926 44.0752 111.83 43.5382 111.53 43.1863C111.277 42.8895 110.88 42.7324 110.384 42.7324Z" fill="#073D78"/>
<path d="M107.26 51.7229C107.228 51.7229 107.198 51.7099 107.175 51.6876L103.043 47.5426C102.997 47.4958 102.997 47.4194 103.043 47.3722L105.877 44.5297C105.899 44.507 105.93 44.4944 105.961 44.4944C105.967 44.4944 105.973 44.4947 105.979 44.4958C106.011 44.5005 109.277 45.0192 110.21 48.7305C110.22 48.7716 110.208 48.8151 110.178 48.845L107.345 51.6876C107.322 51.7103 107.292 51.7229 107.26 51.7229Z" fill="white"/>
<path d="M105.957 44.6152C105.957 44.6152 109.165 45.0842 110.089 48.7602L107.256 51.6028L103.123 47.4578L105.957 44.6152ZM105.957 44.3743C105.894 44.3743 105.833 44.3991 105.787 44.4449L102.954 47.2871C102.86 47.3811 102.86 47.5334 102.954 47.6278L107.086 51.7728C107.133 51.82 107.194 51.8434 107.256 51.8434C107.317 51.8434 107.378 51.82 107.425 51.7728L110.259 48.9306C110.318 48.8708 110.342 48.7836 110.322 48.7015C109.825 46.7248 108.679 45.6547 107.804 45.1051C106.855 44.5083 106.026 44.3822 105.992 44.3768C105.98 44.375 105.968 44.3743 105.957 44.3743Z" fill="#073D78"/>
<path d="M79.3231 83.1279C79.2911 83.1279 79.2606 83.1153 79.2383 83.0926L71.7328 75.5634C71.6861 75.5165 71.6861 75.4402 71.7328 75.393L101.841 45.1913C101.863 45.1686 101.894 45.156 101.926 45.156C101.931 45.156 101.937 45.1564 101.943 45.1574C102.002 45.1661 107.87 46.0975 109.548 52.776C109.558 52.8171 109.546 52.8607 109.516 52.8906L79.4078 83.0926C79.3856 83.115 79.355 83.1279 79.3231 83.1279Z" fill="white"/>
<path d="M101.923 45.2766C101.923 45.2766 107.75 46.1281 109.428 52.8059L79.3204 83.0076L71.8144 75.4783L101.923 45.2766ZM101.923 45.0356C101.859 45.0356 101.798 45.0609 101.753 45.1062L71.6446 75.3079C71.5997 75.353 71.5742 75.4142 71.5742 75.4783C71.5742 75.5421 71.5994 75.6033 71.6446 75.6487L79.1505 83.1779C79.1976 83.2251 79.259 83.2485 79.3204 83.2485C79.3818 83.2485 79.4432 83.2251 79.4902 83.1779L109.598 52.9762C109.658 52.9164 109.682 52.8293 109.662 52.7472C107.964 45.9916 102.017 45.0472 101.957 45.0385C101.946 45.0367 101.934 45.0356 101.923 45.0356Z" fill="#073D78"/>
<path d="M105.062 55.3952L79.3601 81.1771L73.6401 75.4394L99.3422 49.6575C99.3422 49.6575 103.783 50.3069 105.062 55.3952Z" fill="#DD525D"/>
<path d="M81.3456 79.1864L78.896 76.7292" stroke="#073D78" stroke-width="0.8386" stroke-miterlimit="10" stroke-linecap="round" stroke-linejoin="round"/>
<path d="M83.3283 77.1956L82.0425 75.9058" stroke="#073D78" stroke-width="0.8386" stroke-miterlimit="10" stroke-linecap="round" stroke-linejoin="round"/>
<path d="M85.3138 75.205L82.8643 72.7478" stroke="#073D78" stroke-width="0.8386" stroke-miterlimit="10" stroke-linecap="round" stroke-linejoin="round"/>
<path d="M87.3008 73.2144L86.0146 71.9246" stroke="#073D78" stroke-width="0.8386" stroke-miterlimit="10" stroke-linecap="round" stroke-linejoin="round"/>
<path d="M89.2835 71.2237L86.834 68.7668" stroke="#073D78" stroke-width="0.8386" stroke-miterlimit="10" stroke-linecap="round" stroke-linejoin="round"/>
<path d="M91.2686 69.2338L89.9824 67.9436" stroke="#073D78" stroke-width="0.8386" stroke-miterlimit="10" stroke-linecap="round" stroke-linejoin="round"/>
<path d="M93.2517 67.2428L90.8018 64.7856" stroke="#073D78" stroke-width="0.8386" stroke-miterlimit="10" stroke-linecap="round" stroke-linejoin="round"/>
<path d="M95.2385 65.2518L93.9526 63.9617" stroke="#073D78" stroke-width="0.8386" stroke-miterlimit="10" stroke-linecap="round" stroke-linejoin="round"/>
<path d="M97.2215 63.2609L94.772 60.8037" stroke="#073D78" stroke-width="0.8386" stroke-miterlimit="10" stroke-linecap="round" stroke-linejoin="round"/>
<path d="M99.2038 61.2703L97.918 59.9805" stroke="#073D78" stroke-width="0.8386" stroke-miterlimit="10" stroke-linecap="round" stroke-linejoin="round"/>
<path d="M101.191 59.2794L98.7417 56.8223" stroke="#073D78" stroke-width="0.8386" stroke-miterlimit="10" stroke-linecap="round" stroke-linejoin="round"/>
<path d="M103.176 57.2891L101.89 55.9993" stroke="#073D78" stroke-width="0.8386" stroke-miterlimit="10" stroke-linecap="round" stroke-linejoin="round"/>
<path d="M105.16 55.298L102.71 52.8408" stroke="#073D78" stroke-width="0.8386" stroke-miterlimit="10" stroke-linecap="round" stroke-linejoin="round"/>
<path d="M107.144 53.3078L105.858 52.0176" stroke="#073D78" stroke-width="0.8386" stroke-miterlimit="10" stroke-linecap="round" stroke-linejoin="round"/>
<path d="M120.216 31.2872C120.208 32.1009 119.124 32.648 119.124 32.648C119.124 32.648 118.04 32.1005 118.031 31.2872C118.024 30.6076 118.787 30.5932 119.124 31.2671C119.459 30.5932 120.222 30.6072 120.216 31.2872ZM122.593 28.4944C122.063 27.43 120.857 27.4527 120.868 28.5264C120.88 29.8116 122.593 30.6764 122.593 30.6764C122.593 30.6764 124.306 29.8116 124.319 28.5264C124.329 27.4527 123.124 27.43 122.593 28.4944ZM123.738 32.8014C123.274 31.8714 122.221 31.8913 122.23 32.8295C122.241 33.9526 123.738 34.7082 123.738 34.7082C123.738 34.7082 125.235 33.9526 125.246 32.8295C125.255 31.8913 124.202 31.8714 123.738 32.8014Z" fill="#DD525D"/>
<path d="M74.6448 146.536C74.6448 146.536 75.2897 137.21 75.6014 130.799C75.8807 125.046 67.8631 113.644 69.0771 109.037C70.4897 103.677 66.9604 90.983 64.8157 85.5233C62.6706 80.0637 61.2455 78.8351 64.8157 79.2446C68.3856 79.6541 70.4268 79.6541 74.5087 89.2087C78.5909 98.7633 80.7292 104.719 81.1762 104.137C81.1762 104.137 87.1306 102.312 89.392 99.4455C91.6534 96.5791 94.647 82.7935 94.5109 81.2919C94.3748 79.7903 87.299 63.7863 86.7551 57.9344C86.2107 52.0825 88.6811 46.4863 90.9838 46.4863C93.2865 46.4863 104.308 80.8827 105.669 86.2059C107.03 91.529 102.374 114.776 100.484 123.421C98.5935 132.067 104.036 146.536 104.036 146.536H74.6448Z" fill="#AAF5F7"/>
<path opacity="0.8" d="M70.4913 100.433C70.4913 100.433 69.0421 95.1166 67.8187 90.4969C66.5957 85.8772 63.3638 80.0447 63.3638 80.0447C70.7455 85.7936 70.4913 100.433 70.4913 100.433ZM89.399 58.5721C87.864 53.1636 90.5997 47.6121 90.5997 47.6121C88.562 49.1529 86.8335 53.9066 87.8654 58.5721C88.8977 63.2375 94.1319 76.8326 94.1319 76.8326C94.1319 76.8326 90.934 63.9806 89.399 58.5721Z" fill="white"/>
<path d="M74.6446 146.535C74.925 142.256 75.1886 137.976 75.4162 133.695C75.469 132.625 75.5344 131.552 75.5663 130.485C75.5559 129.417 75.3214 128.363 75.0306 127.336C74.4313 125.282 73.5828 123.309 72.73 121.346C71.8729 119.383 70.9767 117.434 70.1975 115.434C69.8105 114.433 69.4514 113.418 69.1871 112.372C68.9379 111.332 68.7322 110.236 68.9559 109.15C69.2234 108.114 69.3042 107.05 69.3049 105.982C69.3017 104.915 69.222 103.848 69.102 102.785C68.8586 100.66 68.4589 98.5539 67.9853 96.4667C67.5074 94.3798 66.9498 92.3112 66.3236 90.264C65.6956 88.217 65.0008 86.1921 64.1627 84.2237C63.7519 83.2353 63.302 82.2657 62.897 81.2666C62.7975 81.0159 62.7027 80.762 62.6259 80.4976C62.5562 80.2332 62.4805 79.9555 62.5462 79.6443C62.5814 79.4902 62.683 79.3371 62.818 79.2506C62.9512 79.162 63.0963 79.1195 63.236 79.0932C63.5171 79.0424 63.7918 79.0464 64.0629 79.0572C64.6069 79.0857 65.134 79.1595 65.6665 79.2186C66.1986 79.282 66.7343 79.3627 67.2607 79.5013C67.7853 79.6429 68.2995 79.8482 68.7663 80.1338C69.2338 80.4184 69.6575 80.7688 70.0388 81.1556C70.7993 81.9336 71.4148 82.8305 71.9685 83.7526C72.5207 84.6775 73.0151 85.6331 73.4794 86.6016C74.4047 88.5419 75.2126 90.528 76.05 92.5007L78.5143 98.4394C78.9247 99.4288 79.3351 100.418 79.7602 101.4C79.9731 101.89 80.1893 102.379 80.4195 102.859C80.5347 103.099 80.6532 103.337 80.7825 103.564C80.8471 103.677 80.9146 103.789 80.9875 103.888C81.0234 103.936 81.0629 103.983 81.0963 104.011C81.1107 104.023 81.1293 104.031 81.1135 104.025C81.0967 104.018 81.0514 104.042 81.0575 104.045L81.1322 103.993C82.7983 103.449 84.4345 102.765 85.9714 101.918C86.7369 101.49 87.4798 101.018 88.1516 100.462C88.8256 99.9046 89.4227 99.2768 89.8015 98.4876C90.208 97.7158 90.5301 96.8917 90.832 96.064C91.1319 95.2341 91.404 94.3934 91.6597 93.547C92.1685 91.8534 92.6198 90.1415 93.031 88.4202C93.4389 86.6985 93.8159 84.9671 94.1161 83.2267C94.1882 82.7916 94.2568 82.3554 94.3046 81.9218C94.3258 81.7078 94.3495 81.4831 94.3344 81.295C94.3092 81.1139 94.2371 80.892 94.1735 80.6881C93.9024 79.855 93.5814 79.0266 93.2683 78.2C91.9951 74.8949 90.6981 71.5931 89.4992 68.2539C88.9003 66.5841 88.3236 64.9053 87.8051 63.2056C87.2992 61.5037 86.8004 59.7907 86.599 58.0006C86.4295 56.2184 86.5275 54.4149 86.8748 52.6605C87.0507 51.7838 87.2898 50.9186 87.6098 50.0812C87.9319 49.246 88.3283 48.4305 88.8726 47.7033C89.1466 47.3427 89.459 47.0017 89.8414 46.734C90.0331 46.6015 90.2425 46.488 90.4723 46.4164C90.5868 46.3811 90.7053 46.3533 90.8267 46.3432C90.8916 46.3375 90.9376 46.3328 91.0202 46.3378C91.1103 46.345 91.176 46.38 91.2381 46.4128C91.4662 46.5583 91.6033 46.7434 91.7433 46.9257C91.8791 47.1101 92.0004 47.3002 92.1161 47.4929C92.3466 47.8783 92.553 48.2738 92.7523 48.6722C93.5398 50.2696 94.2127 51.9124 94.8712 53.5599C96.1764 56.8591 97.3746 60.1973 98.5423 63.5452C100.861 70.2468 103.069 76.9858 105.104 83.781C105.352 84.6343 105.607 85.4786 105.818 86.3502C106.003 87.2366 106.021 88.132 106.025 89.0213C106.014 90.8017 105.862 92.5727 105.679 94.3376C105.301 97.867 104.764 101.375 104.177 104.873C103.585 108.37 102.941 111.857 102.243 115.334C101.896 117.072 101.538 118.809 101.169 120.543L100.607 123.143C100.421 124.007 100.267 124.877 100.21 125.761C100.074 127.525 100.141 129.302 100.324 131.062C100.501 132.825 100.795 134.574 101.151 136.31C101.877 139.778 102.844 143.198 104.036 146.535C102.826 143.204 101.842 139.788 101.097 136.321C100.732 134.586 100.428 132.836 100.241 131.071C100.05 129.307 99.9725 127.526 100.1 125.752C100.153 124.865 100.304 123.984 100.487 123.116L101.035 120.515C101.394 118.779 101.743 117.041 102.082 115.301C102.755 111.821 103.404 108.336 103.986 104.84C104.566 101.344 105.097 97.8375 105.468 94.3146C105.773 90.8089 106.254 87.1883 104.882 83.8459C102.837 77.0607 100.617 70.326 98.2877 63.6335C97.115 60.2899 95.9114 56.9564 94.6033 53.6658C93.9441 52.0237 93.2687 50.3849 92.4859 48.8047C92.2884 48.4111 92.0837 48.0213 91.859 47.6467C91.7466 47.4598 91.6288 47.2765 91.5017 47.1047C91.376 46.9365 91.2331 46.7643 91.0848 46.6728C91.05 46.6548 91.0141 46.6379 90.9929 46.6386C90.9656 46.6361 90.9003 46.6386 90.8557 46.644C90.757 46.6523 90.659 46.6757 90.5624 46.7052C90.3696 46.7657 90.1857 46.8648 90.0141 46.9836C89.6705 47.2242 89.376 47.5437 89.1164 47.8873C88.599 48.5811 88.2126 49.3753 87.8999 50.1914C87.5886 51.0101 87.3556 51.8598 87.1839 52.7214C86.846 54.4448 86.7527 56.2202 86.9222 57.9674C87.1204 59.7057 87.618 61.4165 88.1247 63.1062C88.6439 64.7965 89.222 66.4703 89.8227 68.1354C91.022 71.4678 92.3333 74.7588 93.5997 78.0714C93.9128 78.902 94.2313 79.7279 94.5074 80.5804C94.5732 80.7998 94.645 80.9997 94.6816 81.2583C94.7003 81.5129 94.6715 81.7312 94.6504 81.9578C94.6004 82.4051 94.5301 82.8445 94.4565 83.284C94.1513 85.037 93.7699 86.7713 93.3577 88.498C92.9419 90.224 92.4863 91.9406 91.9721 93.6414C91.7135 94.4914 91.4381 95.3368 91.1344 96.1735C90.8277 97.0091 90.5024 97.84 90.0816 98.636C89.8766 99.0315 89.6302 99.4299 89.3258 99.7677C89.0274 100.11 88.6963 100.418 88.3502 100.703C87.6565 101.275 86.8985 101.754 86.1204 102.187C84.5566 103.045 82.9139 103.728 81.2195 104.279L81.2941 104.227C81.2597 104.283 81.1469 104.342 81.064 104.32C80.9814 104.304 80.9441 104.269 80.9064 104.241C80.8371 104.182 80.7925 104.125 80.7484 104.066C80.6622 103.949 80.5915 103.83 80.5236 103.711C80.3889 103.472 80.269 103.23 80.1523 102.987C79.92 102.5 79.7038 102.009 79.4909 101.516C79.0661 100.531 78.6572 99.5397 78.2482 98.5489L75.795 92.6069C74.9616 90.6335 74.1573 88.6456 73.2406 86.7154C72.7803 85.7512 72.2909 84.8011 71.7462 83.8855C71.2004 82.9728 70.595 82.0896 69.8586 81.3336C69.4895 80.9579 69.083 80.6208 68.637 80.3485C68.1914 80.0747 67.7027 79.8784 67.1968 79.7408C66.6891 79.6061 66.1652 79.5258 65.637 79.4617C65.1078 79.4019 64.5753 79.327 64.0518 79.2993C63.7904 79.2881 63.5261 79.2856 63.2808 79.3302C63.0327 79.3724 62.8234 79.4844 62.7789 79.7012C62.7289 79.9199 62.7868 80.1842 62.855 80.4317C62.9272 80.6824 63.0194 80.9313 63.1171 81.1787C63.5153 82.1663 63.9659 83.1424 64.376 84.1336C65.2137 86.111 65.9085 88.1475 66.534 90.1991C67.158 92.2525 67.7132 94.3268 68.1886 96.4198C68.6597 98.5136 69.0571 100.627 69.2981 102.763C69.4166 103.831 69.4948 104.905 69.4963 105.982C69.4945 107.055 69.4087 108.147 69.1372 109.189C68.9214 110.219 69.116 111.3 69.362 112.328C69.6198 113.362 69.9703 114.375 70.3512 115.374C71.1175 117.372 72.0033 119.324 72.8507 121.293C73.6941 123.262 74.534 125.242 75.1257 127.309C75.4123 128.342 75.6439 129.404 75.6489 130.484C75.6116 131.56 75.5408 132.627 75.4823 133.698C75.2324 137.979 74.9469 142.258 74.6446 146.535Z" fill="#073D78"/>
<path opacity="0.6" d="M104.036 146.535C104.036 146.535 98.5931 132.067 100.483 123.421C101.93 116.802 104.998 101.624 105.747 92.4841C103.496 104.461 98.3421 119.538 97.5044 125.62C96.4383 133.357 104.036 146.535 104.036 146.535Z" fill="#04C5D6"/>
<path opacity="0.6" d="M77.3567 126.075C76.4493 122.548 71.1175 112.762 70.9337 107.869C70.7499 102.976 67.8159 95.2996 67.8159 95.2996V95.3003C69.0669 100.458 69.8874 105.957 69.0759 109.037C67.8615 113.644 75.8795 125.046 75.6001 130.8C75.2888 137.21 74.6436 146.536 74.6436 146.536C74.6436 146.536 78.264 129.602 77.3567 126.075Z" fill="#04C5D6"/>
</g>
<defs>
<clipPath id="clip0_227_8060">
<rect width="171" height="146" fill="white"/>
</clipPath>
</defs>
</svg>
