<svg width="147" height="140" viewBox="0 0 147 140" fill="none" xmlns="http://www.w3.org/2000/svg">
<g clip-path="url(#clip0_227_8449)">
<path fill-rule="evenodd" clip-rule="evenodd" d="M26.7435 123.223C0.196931 112.123 8.12517 77.8235 29.8522 64.5576C39.7348 58.5233 50.8744 54.7186 51.6 39.0943C52.9166 10.6934 82.0468 10.4608 100.57 25.2807C115.994 37.6203 112.2 52.7438 123.991 62.6222C137.121 73.6212 159.541 96.6503 135.74 120.357L86.3902 128.281L26.7435 123.223ZM40.8114 53.4512C56.6329 39.7236 41.7015 18.0536 26.8225 30.3896C11.3573 43.2114 16.8052 74.2807 40.8114 53.4512Z" fill="#B7DDF0" fill-opacity="0.2"/>
<mask id="mask0_227_8449" style="mask-type:luminance" maskUnits="userSpaceOnUse" x="9" y="15" width="138" height="114">
<path d="M26.7435 123.224C0.196931 112.123 8.12517 77.8243 29.8522 64.5583C39.7348 58.5241 50.8744 54.7193 51.6 39.095C52.9166 10.6941 82.0468 10.4615 100.57 25.2815C115.994 37.621 112.2 52.7446 123.991 62.6229C137.121 73.6219 159.541 96.651 135.74 120.358L86.3902 128.282L26.7435 123.224ZM40.8114 53.452C56.6329 39.7243 41.7015 18.0543 26.8225 30.3903C11.3573 43.2121 16.8052 74.2815 40.8114 53.452Z" fill="white"/>
</mask>
<g mask="url(#mask0_227_8449)">
<path fill-rule="evenodd" clip-rule="evenodd" d="M139.882 134.03H139.774V132.274H133.655H133.654H133.652H127.534V134.03H127.425V132.274H121.307H121.305H121.304H115.185V134.03H115.077V132.274H108.958H108.957H108.955H102.837V134.03H102.729V132.274H96.6103H96.6086H96.6073H90.4884V134.03H90.3808V132.274H84.2619H84.2622H84.2609H78.1422V134.03H78.0337V132.274H71.9154H71.9141H71.9128H65.7942V134.03H65.6863V132.274H59.5676H59.5664H59.5651H53.4464V134.03H53.3386V132.274H47.2199H47.2186H47.2173H41.0987V134.03H40.9902V132.274H34.8715H34.8702H34.8689H28.7503V134.03H28.6424V132.274H22.5234H22.5218H22.5205H16.4022V134.03H16.294V132.274H10.1757H10.1744H10.1731H6.49561V132.18H10.12V129.1H6.49561V129.006H10.1731H10.1757H16.2943V125.925H10.1757H10.1744H10.1731H6.49561V125.831H10.12V122.75H6.49561V122.656H10.1731H10.1757H16.2943V119.576H10.1757H10.1744H10.1731H6.49561V119.482H10.12V116.401H6.49561V116.308H10.1731H10.1757H16.2943V113.227H10.1757H10.1744H10.1731H6.49561V113.133H10.12V110.052H6.49561V109.959H10.1731H10.1757H16.2943V106.878H10.1757H10.1744H10.1731H6.49561V106.784H10.12V103.703H6.49561V103.61H10.1731H10.1757H16.2943V100.529H10.1757H10.1744H10.1731H6.49561V100.435H10.12V97.3545H6.49561V97.2605H10.1731H10.1757H16.2943V94.1798H10.1757H10.1744H10.1731H6.49561V94.0864H10.12V91.005H6.49561V90.9119H10.1731H10.1757H16.2943V87.8309H10.1757H10.1744H10.1731H6.49561V87.7371H10.12V84.6561H6.49561V84.5624H10.1731H10.1757H16.2943V81.4816H10.1757H10.1744H10.1731H6.49561V81.3879H10.12V78.3072H6.49561V78.2138H10.1731H10.1757H16.2943V75.1334H10.1757H10.1744H10.1731H6.49561V75.039H10.12V71.9586H6.49561V71.8646H10.1731H10.1757H16.2943V68.7838H10.1757H10.1744H10.1731H6.49561V68.6904H10.12V65.6097H6.49561V65.516H10.1731H10.1757H16.2943V62.4349H10.1757H10.1744H10.1731H6.49561V62.3409H10.12V59.2601H6.49561V59.1667H10.1731H10.1757H16.2943V56.086H10.1757H10.1744H10.1731H6.49561V55.9926H10.12V52.9119H6.49561V52.8182H10.1731H10.1757H16.2943V49.7374H10.1757H10.1744H10.1731H6.49561V49.6434H10.12V46.563H6.49561V46.4693H10.1731H10.1757H16.2943V43.3882H10.1757H10.1744H10.1731H6.49561V43.2948H10.12V40.2141H6.49561V40.1204H10.1731H10.1757H16.2943V37.0396H10.1757H10.1744H10.1731H6.49561V36.9456H10.12V33.8648H6.49561V33.7711H10.1731H10.1757H16.2943V30.6904H10.1757H10.1744H10.1731H6.49561V30.5967H10.12V27.5159H6.49561V27.4222H10.1731H10.1757H16.2943V24.3421H10.1757H10.1744H10.1731H6.49561V24.2484H10.12V21.1677H6.49561V21.074H10.1731H10.1757H16.2943V17.9932H10.1757H10.1744H10.1731H6.49561V17.8995H10.12V14.8188H6.49561V14.7251H10.1731H10.1757H16.2943V11.6443H10.1757H10.1744H10.1731H6.49561V11.5506H10.12V9.79419H10.2278V11.5509H16.3465H16.3491H22.4677V9.79419H22.5759V11.5509H28.6945H28.6975H34.8161V9.79419H34.924V11.5509H41.0426H41.0455H47.1642V9.79419H47.272V11.5509H53.3907H53.3933H59.5119V9.79419H59.6198V11.5509H65.7381H65.741H71.8597V9.79419H71.9679V11.5509H78.0862H78.0891H84.2078V9.79419H84.3156V11.5509H90.4346H90.4378H96.5558V9.79419H96.664V11.5509H102.783H102.786H108.905V9.79419H109.012V11.5509H115.131H115.134H121.253V9.79419H121.361V11.5509H127.479H127.483H133.601V9.79419H133.709V11.5509H139.828H139.83H145.949V9.79419H146.057V11.5509H149.681V11.6447H146.004H146.003H146.001H139.883V14.7254H146.001H146.004H149.681V14.8191H146.057V17.8998H149.681V17.9936H146.004H146.003H146.001H139.883V21.0743H146.001H146.004H149.681V21.168H146.057V24.2487H149.681V24.3425H146.004H146.003H146.001H139.883V27.4235H146.001H146.004H149.681V27.5172H146.057V30.598H149.681V30.6917H146.004H146.003H146.001H139.883V33.7724H146.001H146.004H149.681V33.8661H146.057V36.9469H149.681V37.0409H146.004H146.003H146.001H139.883V40.1217H146.001H146.004H149.681V40.2154H146.057V43.2961H149.681V43.3895H146.004H146.003H146.001H139.883V46.4706H146.001H146.004H149.681V46.5643H146.057V49.6447H149.681V49.7387H146.004H146.003H146.001H139.883V52.8195H146.001H146.004H149.681V52.9132H146.057V55.9939H149.681V56.0873H146.004H146.003H146.001H139.883V59.1681H146.001H146.004H149.681V59.2614H146.057V62.3422H149.681V62.4362H146.004H146.003H146.001H139.883V65.5173H146.001H146.004H149.681V65.611H146.057V68.6917H149.681V68.7851H146.004H146.003H146.001H139.883V71.8659H146.001H146.004H149.681V71.9599H146.057V75.0403H149.681V75.1347H146.004H146.003H146.001H139.883V78.2151H146.001H146.004H149.681V78.3085H146.057V81.3892H149.681V81.4829H146.004H146.003H146.001H139.883V84.5637H146.001H146.004H149.681V84.6574H146.057V87.7384H149.681V87.8322H146.004H146.003H146.001H139.883V90.9132H146.001H146.004H149.681V91.0063H146.057V94.0877H149.681V94.1811H146.004H146.003H146.001H139.883V97.2618H146.001H146.004H149.681V97.3558H146.057V100.437H149.681V100.53H146.004H146.003H146.001H139.883V103.611H146.001H146.004H149.681V103.705H146.057V106.785H149.681V106.879H146.004H146.003H146.001H139.883V109.96H146.001H146.004H149.681V110.054H146.057V113.135H149.681V113.228H146.004H146.003H146.001H139.883V116.309H146.001H146.004H149.681V116.403H146.057V119.484H149.681V119.577H146.004H146.003H146.001H139.883V122.658H146.001H146.004H149.681V122.752H146.057V125.833H149.681V125.926H146.004H146.003H146.001H139.883V129.007H146.001H146.004H149.681V129.101H146.057V132.181H149.681V132.275H146.004H146.003H146.001H139.883V134.03H139.882ZM145.948 129.1H139.829H139.828H139.827H133.708V132.18H139.827H139.829H145.948V129.1ZM133.6 129.1H127.482H127.48H127.479H121.36V132.18H127.479H127.482H133.6V129.1ZM121.252 129.1H115.133H115.132H115.13H109.012V132.18H115.13H115.133H121.252V129.1ZM108.904 129.1H102.785H102.784H102.783H96.664V132.18H102.783H102.786H108.905V129.1H108.904ZM96.5558 129.1H90.4378H90.4359H90.4346H84.3156V132.18H90.4346H90.4378H96.5558V129.1ZM84.2081 129.1H78.0894H78.0881H78.0865H71.9682V132.18H78.0865H78.0894H84.2081V129.1ZM71.86 129.1H65.7414H65.7397H65.7384H59.6201V132.18H65.7384H65.7414H71.86V129.1ZM59.5123 129.1H53.3936H53.3923H53.391H47.2724V132.18H53.391H53.3936H59.5123V129.1ZM47.1642 129.1H41.0455H41.0442H41.0429H34.9243V132.18H41.0429H41.0459H47.1645V129.1H47.1642ZM34.8161 129.1H28.6975H28.6962H28.6945H22.5759V132.18H28.6945H28.6975H34.8161V129.1ZM22.468 129.1H16.3494H16.3481H16.3468H10.2281V132.18H16.3468H16.3494H22.468V129.1ZM139.774 125.925H133.655H133.654H133.652H127.534V129.006H133.652H133.655H139.774V125.925ZM127.426 125.925H121.307H121.306H121.304H115.186V129.006H121.304H121.307H127.426V125.925ZM115.078 125.925H108.959H108.958H108.956H102.837V129.006H108.956H108.959H115.078V125.925ZM102.73 125.925H96.6112H96.6096H96.6083H90.4893V129.006H96.6083H96.6112H102.73V125.925ZM90.3821 125.925H84.2632H84.2622H84.2609H78.1422V129.006H84.2609H84.2635H90.3825V125.925H90.3821ZM78.0337 125.925H71.9154H71.9141H71.9128H65.7942V129.006H71.9128H71.9154H78.0337V125.925ZM65.686 125.925H59.5673H59.566H59.5647H53.4461V129.006H59.5647H59.5673H65.686V125.925ZM53.3382 125.925H47.2196H47.2183H47.217H41.0983V129.006H47.217H47.2199H53.3386V125.925H53.3382ZM40.9902 125.925H34.8715H34.8702H34.8689H28.7503V129.006H34.8689H34.8715H40.9902V125.925ZM28.6421 125.925H22.5234H22.5218H22.5205H16.4022V129.006H22.5208H22.5237H28.6424L28.6421 125.925ZM145.948 122.75H139.829H139.828H139.827H133.708V125.831H139.827H139.829H145.948V122.75ZM133.6 122.75H127.482H127.48H127.479H121.36V125.831H127.479H127.482H133.6V122.75ZM121.252 122.75H115.133H115.132H115.13H109.012V125.831H115.13H115.133H121.252V122.75ZM108.904 122.75H102.785H102.784H102.783H96.664V125.831H102.783H102.786H108.905V122.75H108.904ZM96.5558 122.75H90.4378H90.4359H90.4346H84.3156V125.831H90.4346H90.4378H96.5558V122.75ZM84.2081 122.75H78.0894H78.0881H78.0865H71.9682V125.831H78.0865H78.0894H84.2081V122.75ZM71.86 122.75H65.7414H65.7397H65.7384H59.6201V125.831H65.7384H65.7414H71.86V122.75ZM59.5123 122.75H53.3936H53.3923H53.391H47.2724V125.831H53.391H53.3936H59.5123V122.75ZM47.1642 122.75H41.0455H41.0442H41.0429H34.9243V125.831H41.0429H41.0459H47.1645V122.75H47.1642ZM34.8161 122.75H28.6975H28.6962H28.6945H22.5759V125.831H28.6945H28.6975H34.8161V122.75ZM22.468 122.75H16.3494H16.3481H16.3468H10.2281V125.831H16.3468H16.3494H22.468V122.75ZM139.774 119.576H133.655H133.654H133.652H127.534V122.656H133.652H133.655H139.774V119.576ZM127.426 119.576H121.307H121.306H121.304H115.186V122.656H121.304H121.307H127.426V119.576ZM115.078 119.576H108.959H108.958H108.956H102.837V122.656H108.956H108.959H115.078V119.576ZM102.73 119.576H96.6112H96.6096H96.6083H90.4893V122.656H96.6083H96.6112H102.73V119.576ZM90.3821 119.576H84.2632H84.2622H84.2609H78.1422V122.656H84.2609H84.2635H90.3825V119.576H90.3821ZM78.0337 119.576H71.9154H71.9141H71.9128H65.7942V122.656H71.9128H71.9154H78.0337V119.576ZM65.686 119.576H59.5673H59.566H59.5647H53.4461V122.656H59.5647H59.5673H65.686V119.576ZM53.3382 119.576H47.2196H47.2183H47.217H41.0983V122.656H47.217H47.2199H53.3386V119.576H53.3382ZM40.9902 119.576H34.8715H34.8702H34.8689H28.7503V122.656H34.8689H34.8715H40.9902V119.576ZM28.6421 119.576H22.5234H22.5218H22.5205H16.4022V122.656H22.5208H22.5237H28.6424L28.6421 119.576ZM145.948 116.402H139.829H139.828H139.827H133.708V119.483H139.827H139.829H145.948V116.402ZM133.6 116.402H127.482H127.48H127.479H121.36V119.483H127.479H127.482H133.6V116.402ZM121.252 116.402H115.133H115.132H115.13H109.012V119.483H115.13H115.133H121.252V116.402ZM108.904 116.402H102.785H102.784H102.783H96.664V119.483H102.783H102.786H108.905V116.402H108.904ZM96.5558 116.402H90.4378H90.4359H90.4346H84.3156V119.483H90.4346H90.4378H96.5558V116.402ZM84.2081 116.402H78.0894H78.0881H78.0865H71.9682V119.483H78.0865H78.0894H84.2081V116.402ZM71.86 116.402H65.7414H65.7397H65.7384H59.6201V119.483H65.7384H65.7414H71.86V116.402ZM59.5123 116.402H53.3936H53.3923H53.391H47.2724V119.483H53.391H53.3936H59.5123V116.402ZM47.1642 116.402H41.0455H41.0442H41.0429H34.9243V119.483H41.0429H41.0459H47.1645V116.402H47.1642ZM34.8161 116.402H28.6975H28.6962H28.6945H22.5759V119.483H28.6945H28.6975H34.8161V116.402ZM22.468 116.402H16.3494H16.3481H16.3468H10.2281V119.483H16.3468H16.3494H22.468V116.402ZM139.774 113.227H133.655H133.654H133.652H127.534V116.308H133.652H133.655H139.774V113.227ZM127.426 113.227H121.307H121.306H121.304H115.186V116.308H121.304H121.307H127.426V113.227ZM115.078 113.227H108.959H108.958H108.956H102.837V116.308H108.956H108.959H115.078V113.227ZM102.73 113.227H96.6112H96.6096H96.6083H90.4893V116.308H96.6083H96.6112H102.73V113.227ZM90.3821 113.227H84.2632H84.2622H84.2609H78.1422V116.308H84.2609H84.2635H90.3825V113.227H90.3821ZM78.0337 113.227H71.9154H71.9141H71.9128H65.7942V116.308H71.9128H71.9154H78.0337V113.227ZM65.686 113.227H59.5673H59.566H59.5647H53.4461V116.308H59.5647H59.5673H65.686V113.227ZM53.3382 113.227H47.2196H47.2183H47.217H41.0983V116.308H47.217H47.2199H53.3386V113.227H53.3382ZM40.9902 113.227H34.8715H34.8702H34.8689H28.7503V116.308H34.8689H34.8715H40.9902V113.227ZM28.6421 113.227H22.5234H22.5218H22.5205H16.4022V116.308H22.5208H22.5237H28.6424L28.6421 113.227ZM145.948 110.053H139.829H139.828H139.827H133.708V113.134H139.827H139.829H145.948V110.053ZM133.6 110.053H127.482H127.48H127.479H121.36V113.134H127.479H127.482H133.6V110.053ZM121.252 110.053H115.133H115.132H115.13H109.012V113.134H115.13H115.133H121.252V110.053ZM108.904 110.053H102.785H102.784H102.783H96.664V113.134H102.783H102.786H108.905V110.053H108.904ZM96.5558 110.053H90.4378H90.4359H90.4346H84.3156V113.134H90.4346H90.4378H96.5558V110.053ZM84.2081 110.053H78.0894H78.0881H78.0865H71.9682V113.134H78.0865H78.0894H84.2081V110.053ZM71.86 110.053H65.7414H65.7397H65.7384H59.6201V113.134H65.7384H65.7414H71.86V110.053ZM59.5123 110.053H53.3936H53.3923H53.391H47.2724V113.134H53.391H53.3936H59.5123V110.053ZM47.1642 110.053H41.0455H41.0442H41.0429H34.9243V113.134H41.0429H41.0459H47.1645V110.053H47.1642ZM34.8161 110.053H28.6975H28.6962H28.6945H22.5759V113.134H28.6945H28.6975H34.8161V110.053ZM22.468 110.053H16.3494H16.3481H16.3468H10.2281V113.134H16.3468H16.3494H22.468V110.053ZM139.774 106.878H133.655H133.654H133.652H127.534V109.959H133.652H133.655H139.774V106.878ZM127.426 106.878H121.307H121.306H121.304H115.186V109.959H121.304H121.307H127.426V106.878ZM115.078 106.878H108.959H108.958H108.956H102.837V109.959H108.956H108.959H115.078V106.878ZM102.73 106.878H96.6112H96.6096H96.6083H90.4893V109.959H96.6083H96.6112H102.73V106.878ZM90.3821 106.878H84.2632H84.2622H84.2609H78.1422V109.959H84.2609H84.2635H90.3825V106.878H90.3821ZM78.0337 106.878H71.9154H71.9141H71.9128H65.7942V109.959H71.9128H71.9154H78.0337V106.878ZM65.686 106.878H59.5673H59.566H59.5647H53.4461V109.959H59.5647H59.5673H65.686V106.878ZM53.3382 106.878H47.2196H47.2183H47.217H41.0983V109.959H47.217H47.2199H53.3386V106.878H53.3382ZM40.9902 106.878H34.8715H34.8702H34.8689H28.7503V109.959H34.8689H34.8715H40.9902V106.878ZM28.6421 106.878H22.5234H22.5218H22.5205H16.4022V109.959H22.5208H22.5237H28.6424L28.6421 106.878ZM145.948 103.704H139.829H139.828H139.827H133.708V106.785H139.827H139.829H145.948V103.704ZM133.6 103.704H127.482H127.48H127.479H121.36V106.785H127.479H127.482H133.6V103.704ZM121.252 103.704H115.133H115.132H115.13H109.012V106.785H115.13H115.133H121.252V103.704ZM108.904 103.704H102.785H102.784H102.783H96.664V106.785H102.783H102.786H108.905V103.704H108.904ZM96.5558 103.704H90.4378H90.4359H90.4346H84.3156V106.785H90.4346H90.4378H96.5558V103.704ZM84.2081 103.704H78.0894H78.0881H78.0865H71.9682V106.785H78.0865H78.0894H84.2081V103.704ZM71.86 103.704H65.7414H65.7397H65.7384H59.6201V106.785H65.7384H65.7414H71.86V103.704ZM59.5123 103.704H53.3936H53.3923H53.391H47.2724V106.785H53.391H53.3936H59.5123V103.704ZM47.1642 103.704H41.0455H41.0442H41.0429H34.9243V106.785H41.0429H41.0459H47.1645V103.704H47.1642ZM34.8161 103.704H28.6975H28.6962H28.6945H22.5759V106.785H28.6945H28.6975H34.8161V103.704ZM22.468 103.704H16.3494H16.3481H16.3468H10.2281V106.785H16.3468H16.3494H22.468V103.704ZM139.774 100.529H133.655H133.654H133.652H127.534V103.61H133.652H133.655H139.774V100.529ZM127.426 100.529H121.307H121.306H121.304H115.186V103.61H121.304H121.307H127.426V100.529ZM115.078 100.529H108.959H108.958H108.956H102.837V103.61H108.956H108.959H115.078V100.529ZM102.73 100.529H96.6112H96.6096H96.6083H90.4893V103.61H96.6083H96.6112H102.73V100.529ZM90.3821 100.529H84.2632H84.2622H84.2609H78.1422V103.61H84.2609H84.2635H90.3825V100.529H90.3821ZM78.0337 100.529H71.9154H71.9141H71.9128H65.7942V103.61H71.9128H71.9154H78.0337V100.529ZM65.686 100.529H59.5673H59.566H59.5647H53.4461V103.61H59.5647H59.5673H65.686V100.529ZM53.3382 100.529H47.2196H47.2183H47.217H41.0983V103.61H47.217H47.2199H53.3386V100.529H53.3382ZM40.9902 100.529H34.8715H34.8702H34.8689H28.7503V103.61H34.8689H34.8715H40.9902V100.529ZM28.6421 100.529H22.5234H22.5218H22.5205H16.4022V103.61H22.5208H22.5237H28.6424L28.6421 100.529ZM145.948 97.3552H139.829H139.828H139.827H133.708V100.436H139.827H139.829H145.948V97.3552ZM133.6 97.3552H127.482H127.48H127.479H121.36V100.436H127.479H127.482H133.6V97.3552ZM121.252 97.3552H115.133H115.132H115.13H109.012V100.436H115.13H115.133H121.252V97.3552ZM108.904 97.3552H102.785H102.784H102.783H96.664V100.436H102.783H102.786H108.905V97.3552H108.904ZM96.5558 97.3552H90.4378H90.4359H90.4346H84.3156V100.436H90.4346H90.4378H96.5558V97.3552ZM84.2081 97.3552H78.0894H78.0881H78.0865H71.9682V100.436H78.0865H78.0894H84.2081V97.3552ZM71.86 97.3552H65.7414H65.7397H65.7384H59.6201V100.436H65.7384H65.7414H71.86V97.3552ZM59.5123 97.3552H53.3936H53.3923H53.391H47.2724V100.436H53.391H53.3936H59.5123V97.3552ZM47.1642 97.3552H41.0455H41.0442H41.0429H34.9243V100.436H41.0429H41.0459H47.1645V97.3552H47.1642ZM34.8161 97.3552H28.6975H28.6962H28.6945H22.5759V100.436H28.6945H28.6975H34.8161V97.3552ZM22.468 97.3552H16.3494H16.3481H16.3468H10.2281V100.436H16.3468H16.3494H22.468V97.3552ZM139.774 94.1804H133.655H133.654H133.652H127.534V97.2611H133.652H133.655H139.774V94.1804ZM127.426 94.1804H121.307H121.306H121.304H115.186V97.2611H121.304H121.307H127.426V94.1804ZM115.078 94.1804H108.959H108.958H108.956H102.837V97.2611H108.956H108.959H115.078V94.1804ZM102.73 94.1804H96.6112H96.6096H96.6083H90.4893V97.2611H96.6083H96.6112H102.73V94.1804ZM90.3821 94.1804H84.2632H84.2622H84.2609H78.1422V97.2611H84.2609H84.2635H90.3825V94.1804H90.3821ZM78.0337 94.1804H71.9154H71.9141H71.9128H65.7942V97.2611H71.9128H71.9154H78.0337V94.1804ZM65.686 94.1804H59.5673H59.566H59.5647H53.4461V97.2611H59.5647H59.5673H65.686V94.1804ZM53.3382 94.1804H47.2196H47.2183H47.217H41.0983V97.2611H47.217H47.2199H53.3386V94.1804H53.3382ZM40.9902 94.1804H34.8715H34.8702H34.8689H28.7503V97.2611H34.8689H34.8715H40.9902V94.1804ZM28.6421 94.1804H22.5234H22.5218H22.5205H16.4022V97.2611H22.5208H22.5237H28.6424L28.6421 94.1804ZM145.948 91.0056H139.829H139.828H139.827H133.708V94.087H139.827H139.829H145.948V91.0056ZM133.6 91.0056H127.482H127.48H127.479H121.36V94.087H127.479H127.482H133.6V91.0056ZM121.252 91.0056H115.133H115.132H115.13H109.012V94.087H115.13H115.133H121.252V91.0056ZM108.904 91.0056H102.785H102.784H102.783H96.664V94.087H102.783H102.786H108.905V91.0056H108.904ZM96.5558 91.0056H90.4378H90.4359H90.4346H84.3156V94.087H90.4346H90.4378H96.5558V91.0056ZM84.2081 91.0056H78.0894H78.0881H78.0865H71.9682V94.087H78.0865H78.0894H84.2081V91.0056ZM71.86 91.0056H65.7414H65.7397H65.7384H59.6201V94.087H65.7384H65.7414H71.86V91.0056ZM59.5123 91.0056H53.3936H53.3923H53.391H47.2724V94.087H53.391H53.3936H59.5123V91.0056ZM47.1642 91.0056H41.0455H41.0442H41.0429H34.9243V94.087H41.0429H41.0459H47.1645V91.0056H47.1642ZM34.8161 91.0056H28.6975H28.6962H28.6945H22.5759V94.087H28.6945H28.6975H34.8161V91.0056ZM22.468 91.0056H16.3494H16.3481H16.3468H10.2281V94.087H16.3468H16.3494H22.468V91.0056ZM139.774 87.8315H133.655H133.654H133.652H127.534V90.9126H133.652H133.655H139.774V87.8315ZM127.426 87.8315H121.307H121.306H121.304H115.186V90.9126H121.304H121.307H127.426V87.8315ZM115.078 87.8315H108.959H108.958H108.956H102.837V90.9126H108.956H108.959H115.078V87.8315ZM102.73 87.8315H96.6112H96.6096H96.6083H90.4893V90.9126H96.6083H96.6112H102.73V87.8315ZM90.3821 87.8315H84.2632H84.2622H84.2609H78.1422V90.9126H84.2609H84.2635H90.3825V87.8315H90.3821ZM78.0337 87.8315H71.9154H71.9141H71.9128H65.7942V90.9126H71.9128H71.9154H78.0337V87.8315ZM65.686 87.8315H59.5673H59.566H59.5647H53.4461V90.9126H59.5647H59.5673H65.686V87.8315ZM53.3382 87.8315H47.2196H47.2183H47.217H41.0983V90.9126H47.217H47.2199H53.3386V87.8315H53.3382ZM40.9902 87.8315H34.8715H34.8702H34.8689H28.7503V90.9126H34.8689H34.8715H40.9902V87.8315ZM28.6421 87.8315H22.5234H22.5218H22.5205H16.4022V90.9126H22.5208H22.5237H28.6424L28.6421 87.8315ZM145.948 84.6567H139.829H139.828H139.827H133.708V87.7378H139.827H139.829H145.948V84.6567ZM133.6 84.6567H127.482H127.48H127.479H121.36V87.7378H127.479H127.482H133.6V84.6567ZM121.252 84.6567H115.133H115.132H115.13H109.012V87.7378H115.13H115.133H121.252V84.6567ZM108.904 84.6567H102.785H102.784H102.783H96.664V87.7378H102.783H102.786H108.905V84.6567H108.904ZM96.5558 84.6567H90.4378H90.4359H90.4346H84.3156V87.7378H90.4346H90.4378H96.5558V84.6567ZM84.2081 84.6567H78.0894H78.0881H78.0865H71.9682V87.7378H78.0865H78.0894H84.2081V84.6567ZM71.86 84.6567H65.7414H65.7397H65.7384H59.6201V87.7378H65.7384H65.7414H71.86V84.6567ZM59.5123 84.6567H53.3936H53.3923H53.391H47.2724V87.7378H53.391H53.3936H59.5123V84.6567ZM47.1642 84.6567H41.0455H41.0442H41.0429H34.9243V87.7378H41.0429H41.0459H47.1645V84.6567H47.1642ZM34.8161 84.6567H28.6975H28.6962H28.6945H22.5759V87.7378H28.6945H28.6975H34.8161V84.6567ZM22.468 84.6567H16.3494H16.3481H16.3468H10.2281V87.7378H16.3468H16.3494H22.468V84.6567ZM139.774 81.4823H133.655H133.654H133.652H127.534V84.563H133.652H133.655H139.774V81.4823ZM127.426 81.4823H121.307H121.306H121.304H115.186V84.563H121.304H121.307H127.426V81.4823ZM115.078 81.4823H108.959H108.958H108.956H102.837V84.563H108.956H108.959H115.078V81.4823ZM102.73 81.4823H96.6112H96.6096H96.6083H90.4893V84.563H96.6083H96.6112H102.73V81.4823ZM90.3821 81.4823H84.2632H84.2622H84.2609H78.1422V84.563H84.2609H84.2635H90.3825V81.4823H90.3821ZM78.0337 81.4823H71.9154H71.9141H71.9128H65.7942V84.563H71.9128H71.9154H78.0337V81.4823ZM65.686 81.4823H59.5673H59.566H59.5647H53.4461V84.563H59.5647H59.5673H65.686V81.4823ZM53.3382 81.4823H47.2196H47.2183H47.217H41.0983V84.563H47.217H47.2199H53.3386V81.4823H53.3382ZM40.9902 81.4823H34.8715H34.8702H34.8689H28.7503V84.563H34.8689H34.8715H40.9902V81.4823ZM28.6421 81.4823H22.5234H22.5218H22.5205H16.4022V84.563H22.5208H22.5237H28.6424L28.6421 81.4823ZM145.948 78.3078H139.829H139.828H139.827H133.708V81.3886H139.827H139.829H145.948V78.3078ZM133.6 78.3078H127.482H127.48H127.479H121.36V81.3886H127.479H127.482H133.6V78.3078ZM121.252 78.3078H115.133H115.132H115.13H109.012V81.3886H115.13H115.133H121.252V78.3078ZM108.904 78.3078H102.785H102.784H102.783H96.664V81.3886H102.783H102.786H108.905V78.3078H108.904ZM96.5558 78.3078H90.4378H90.4359H90.4346H84.3156V81.3886H90.4346H90.4378H96.5558V78.3078ZM84.2081 78.3078H78.0894H78.0881H78.0865H71.9682V81.3886H78.0865H78.0894H84.2081V78.3078ZM71.86 78.3078H65.7414H65.7397H65.7384H59.6201V81.3886H65.7384H65.7414H71.86V78.3078ZM59.5123 78.3078H53.3936H53.3923H53.391H47.2724V81.3886H53.391H53.3936H59.5123V78.3078ZM47.1642 78.3078H41.0455H41.0442H41.0429H34.9243V81.3886H41.0429H41.0459H47.1645V78.3078H47.1642ZM34.8161 78.3078H28.6975H28.6962H28.6945H22.5759V81.3886H28.6945H28.6975H34.8161V78.3078ZM22.468 78.3078H16.3494H16.3481H16.3468H10.2281V81.3886H16.3468H16.3494H22.468V78.3078ZM139.774 75.1344H133.655H133.654H133.652H127.534V78.2148H133.652H133.655H139.774V75.1344ZM127.426 75.1344H121.307H121.306H121.304H115.186V78.2148H121.304H121.307H127.426V75.1344ZM115.078 75.1344H108.959H108.958H108.956H102.837V78.2148H108.956H108.959H115.078V75.1344ZM102.73 75.1344H96.6112H96.6096H96.6083H90.4893V78.2148H96.6083H96.6112H102.73V75.1344ZM90.3821 75.1344H84.2632H84.2622H84.2609H78.1422V78.2148H84.2609H84.2635H90.3825V75.1344H90.3821ZM78.0337 75.1344H71.9154H71.9141H71.9128H65.7942V78.2148H71.9128H71.9154H78.0337V75.1344ZM65.686 75.1344H59.5673H59.566H59.5647H53.4461V78.2148H59.5647H59.5673H65.686V75.1344ZM53.3382 75.1344H47.2196H47.2183H47.217H41.0983V78.2148H47.217H47.2199H53.3386V75.1344H53.3382ZM40.9902 75.1344H34.8715H34.8702H34.8689H28.7503V78.2148H34.8689H34.8715H40.9902V75.1344ZM28.6421 75.1344H22.5234H22.5218H22.5205H16.4022V78.2148H22.5208H22.5237H28.6424L28.6421 75.1344ZM145.948 71.9592H139.829H139.828H139.827H133.708V75.0397H139.827H139.829H145.948V71.9592ZM133.6 71.9592H127.482H127.48H127.479H121.36V75.0397H127.479H127.482H133.6V71.9592ZM121.252 71.9592H115.133H115.132H115.13H109.012V75.0397H115.13H115.133H121.252V71.9592ZM108.904 71.9592H102.785H102.784H102.783H96.664V75.0397H102.783H102.786H108.905V71.9592H108.904ZM96.5558 71.9592H90.4378H90.4359H90.4346H84.3156V75.0397H90.4346H90.4378H96.5558V71.9592ZM84.2081 71.9592H78.0894H78.0881H78.0865H71.9682V75.0397H78.0865H78.0894H84.2081V71.9592ZM71.86 71.9592H65.7414H65.7397H65.7384H59.6201V75.0397H65.7384H65.7414H71.86V71.9592ZM59.5123 71.9592H53.3936H53.3923H53.391H47.2724V75.0397H53.391H53.3936H59.5123V71.9592ZM47.1642 71.9592H41.0455H41.0442H41.0429H34.9243V75.0397H41.0429H41.0459H47.1645V71.9592H47.1642ZM34.8161 71.9592H28.6975H28.6962H28.6945H22.5759V75.0397H28.6945H28.6975H34.8161V71.9592ZM22.468 71.9592H16.3494H16.3481H16.3468H10.2281V75.0397H16.3468H16.3494H22.468V71.9592ZM139.774 68.7845H133.655H133.654H133.652H127.534V71.8652H133.652H133.655H139.774V68.7845ZM127.426 68.7845H121.307H121.306H121.304H115.186V71.8652H121.304H121.307H127.426V68.7845ZM115.078 68.7845H108.959H108.958H108.956H102.837V71.8652H108.956H108.959H115.078V68.7845ZM102.73 68.7845H96.6112H96.6096H96.6083H90.4893V71.8652H96.6083H96.6112H102.73V68.7845ZM90.3821 68.7845H84.2632H84.2622H84.2609H78.1422V71.8652H84.2609H84.2635H90.3825V68.7845H90.3821ZM78.0337 68.7845H71.9154H71.9141H71.9128H65.7942V71.8652H71.9128H71.9154H78.0337V68.7845ZM65.686 68.7845H59.5673H59.566H59.5647H53.4461V71.8652H59.5647H59.5673H65.686V68.7845ZM53.3382 68.7845H47.2196H47.2183H47.217H41.0983V71.8652H47.217H47.2199H53.3386V68.7845H53.3382ZM40.9902 68.7845H34.8715H34.8702H34.8689H28.7503V71.8652H34.8689H34.8715H40.9902V68.7845ZM28.6421 68.7845H22.5234H22.5218H22.5205H16.4022V71.8652H22.5208H22.5237H28.6424L28.6421 68.7845ZM145.948 65.6103H139.829H139.828H139.827H133.708V68.6911H139.827H139.829H145.948V65.6103ZM133.6 65.6103H127.482H127.48H127.479H121.36V68.6911H127.479H127.482H133.6V65.6103ZM121.252 65.6103H115.133H115.132H115.13H109.012V68.6911H115.13H115.133H121.252V65.6103ZM108.904 65.6103H102.785H102.784H102.783H96.664V68.6911H102.783H102.786H108.905V65.6103H108.904ZM96.5558 65.6103H90.4378H90.4359H90.4346H84.3156V68.6911H90.4346H90.4378H96.5558V65.6103ZM84.2081 65.6103H78.0894H78.0881H78.0865H71.9682V68.6911H78.0865H78.0894H84.2081V65.6103ZM71.86 65.6103H65.7414H65.7397H65.7384H59.6201V68.6911H65.7384H65.7414H71.86V65.6103ZM59.5123 65.6103H53.3936H53.3923H53.391H47.2724V68.6911H53.391H53.3936H59.5123V65.6103ZM47.1642 65.6103H41.0455H41.0442H41.0429H34.9243V68.6911H41.0429H41.0459H47.1645V65.6103H47.1642ZM34.8161 65.6103H28.6975H28.6962H28.6945H22.5759V68.6911H28.6945H28.6975H34.8161V65.6103ZM22.468 65.6103H16.3494H16.3481H16.3468H10.2281V68.6911H16.3468H16.3494H22.468V65.6103ZM139.774 62.4359H133.655H133.654H133.652H127.534V65.517H133.652H133.655H139.774V62.4359ZM127.426 62.4359H121.307H121.306H121.304H115.186V65.517H121.304H121.307H127.426V62.4359ZM115.078 62.4359H108.959H108.958H108.956H102.837V65.517H108.956H108.959H115.078V62.4359ZM102.73 62.4359H96.6112H96.6096H96.6083H90.4893V65.517H96.6083H96.6112H102.73V62.4359ZM90.3821 62.4359H84.2632H84.2622H84.2609H78.1422V65.517H84.2609H84.2635H90.3825V62.4359H90.3821ZM78.0337 62.4359H71.9154H71.9141H71.9128H65.7942V65.517H71.9128H71.9154H78.0337V62.4359ZM65.686 62.4359H59.5673H59.566H59.5647H53.4461V65.517H59.5647H59.5673H65.686V62.4359ZM53.3382 62.4359H47.2196H47.2183H47.217H41.0983V65.517H47.217H47.2199H53.3386V62.4359H53.3382ZM40.9902 62.4359H34.8715H34.8702H34.8689H28.7503V65.517H34.8689H34.8715H40.9902V62.4359ZM28.6421 62.4359H22.5234H22.5218H22.5205H16.4022V65.517H22.5208H22.5237H28.6424L28.6421 62.4359ZM145.948 59.2611H139.829H139.828H139.827H133.708V62.3419H139.827H139.829H145.948V59.2611ZM133.6 59.2611H127.482H127.48H127.479H121.36V62.3419H127.479H127.482H133.6V59.2611ZM121.252 59.2611H115.133H115.132H115.13H109.012V62.3419H115.13H115.133H121.252V59.2611ZM108.904 59.2611H102.785H102.784H102.783H96.664V62.3419H102.783H102.786H108.905V59.2611H108.904ZM96.5558 59.2611H90.4378H90.4359H90.4346H84.3156V62.3419H90.4346H90.4378H96.5558V59.2611ZM84.2081 59.2611H78.0894H78.0881H78.0865H71.9682V62.3419H78.0865H78.0894H84.2081V59.2611ZM71.86 59.2611H65.7414H65.7397H65.7384H59.6201V62.3419H65.7384H65.7414H71.86V59.2611ZM59.5123 59.2611H53.3936H53.3923H53.391H47.2724V62.3419H53.391H53.3936H59.5123V59.2611ZM47.1642 59.2611H41.0455H41.0442H41.0429H34.9243V62.3419H41.0429H41.0459H47.1645V59.2611H47.1642ZM34.8161 59.2611H28.6975H28.6962H28.6945H22.5759V62.3419H28.6945H28.6975H34.8161V59.2611ZM22.468 59.2611H16.3494H16.3481H16.3468H10.2281V62.3419H16.3468H16.3494H22.468V59.2611ZM139.774 56.0867H133.655H133.654H133.652H127.534V59.1674H133.652H133.655H139.774V56.0867ZM127.426 56.0867H121.307H121.306H121.304H115.186V59.1674H121.304H121.307H127.426V56.0867ZM115.078 56.0867H108.959H108.958H108.956H102.837V59.1674H108.956H108.959H115.078V56.0867ZM102.73 56.0867H96.6112H96.6096H96.6083H90.4893V59.1674H96.6083H96.6112H102.73V56.0867ZM90.3821 56.0867H84.2632H84.2622H84.2609H78.1422V59.1674H84.2609H84.2635H90.3825V56.0867H90.3821ZM78.0337 56.0867H71.9154H71.9141H71.9128H65.7942V59.1674H71.9128H71.9154H78.0337V56.0867ZM65.686 56.0867H59.5673H59.566H59.5647H53.4461V59.1674H59.5647H59.5673H65.686V56.0867ZM53.3382 56.0867H47.2196H47.2183H47.217H41.0983V59.1674H47.217H47.2199H53.3386V56.0867H53.3382ZM40.9902 56.0867H34.8715H34.8702H34.8689H28.7503V59.1674H34.8689H34.8715H40.9902V56.0867ZM28.6421 56.0867H22.5234H22.5218H22.5205H16.4022V59.1674H22.5208H22.5237H28.6424L28.6421 56.0867ZM145.948 52.9125H139.829H139.828H139.827H133.708V55.9933H139.827H139.829H145.948V52.9125ZM133.6 52.9125H127.482H127.48H127.479H121.36V55.9933H127.479H127.482H133.6V52.9125ZM121.252 52.9125H115.133H115.132H115.13H109.012V55.9933H115.13H115.133H121.252V52.9125ZM108.904 52.9125H102.785H102.784H102.783H96.664V55.9933H102.783H102.786H108.905V52.9125H108.904ZM96.5558 52.9125H90.4378H90.4359H90.4346H84.3156V55.9933H90.4346H90.4378H96.5558V52.9125ZM84.2081 52.9125H78.0894H78.0881H78.0865H71.9682V55.9933H78.0865H78.0894H84.2081V52.9125ZM71.86 52.9125H65.7414H65.7397H65.7384H59.6201V55.9933H65.7384H65.7414H71.86V52.9125ZM59.5123 52.9125H53.3936H53.3923H53.391H47.2724V55.9933H53.391H53.3936H59.5123V52.9125ZM47.1642 52.9125H41.0455H41.0442H41.0429H34.9243V55.9933H41.0429H41.0459H47.1645V52.9125H47.1642ZM34.8161 52.9125H28.6975H28.6962H28.6945H22.5759V55.9933H28.6945H28.6975H34.8161V52.9125ZM22.468 52.9125H16.3494H16.3481H16.3468H10.2281V55.9933H16.3468H16.3494H22.468V52.9125ZM139.774 49.7381H133.655H133.654H133.652H127.534V52.8188H133.652H133.655H139.774V49.7381ZM127.426 49.7381H121.307H121.306H121.304H115.186V52.8188H121.304H121.307H127.426V49.7381ZM115.078 49.7381H108.959H108.958H108.956H102.837V52.8188H108.956H108.959H115.078V49.7381ZM102.73 49.7381H96.6112H96.6096H96.6083H90.4893V52.8188H96.6083H96.6112H102.73V49.7381ZM90.3821 49.7381H84.2632H84.2622H84.2609H78.1422V52.8188H84.2609H84.2635H90.3825V49.7381H90.3821ZM78.0337 49.7381H71.9154H71.9141H71.9128H65.7942V52.8188H71.9128H71.9154H78.0337V49.7381ZM65.686 49.7381H59.5673H59.566H59.5647H53.4461V52.8188H59.5647H59.5673H65.686V49.7381ZM53.3382 49.7381H47.2196H47.2183H47.217H41.0983V52.8188H47.217H47.2199H53.3386V49.7381H53.3382ZM40.9902 49.7381H34.8715H34.8702H34.8689H28.7503V52.8188H34.8689H34.8715H40.9902V49.7381ZM28.6421 49.7381H22.5234H22.5218H22.5205H16.4022V52.8188H22.5208H22.5237H28.6424L28.6421 49.7381ZM145.948 46.5636H139.829H139.828H139.827H133.708V49.644H139.827H139.829H145.948V46.5636ZM133.6 46.5636H127.482H127.48H127.479H121.36V49.644H127.479H127.482H133.6V46.5636ZM121.252 46.5636H115.133H115.132H115.13H109.012V49.644H115.13H115.133H121.252V46.5636ZM108.904 46.5636H102.785H102.784H102.783H96.664V49.644H102.783H102.786H108.905V46.5636H108.904ZM96.5558 46.5636H90.4378H90.4359H90.4346H84.3156V49.644H90.4346H90.4378H96.5558V46.5636ZM84.2081 46.5636H78.0894H78.0881H78.0865H71.9682V49.644H78.0865H78.0894H84.2081V46.5636ZM71.86 46.5636H65.7414H65.7397H65.7384H59.6201V49.644H65.7384H65.7414H71.86V46.5636ZM59.5123 46.5636H53.3936H53.3923H53.391H47.2724V49.644H53.391H53.3936H59.5123V46.5636ZM47.1642 46.5636H41.0455H41.0442H41.0429H34.9243V49.644H41.0429H41.0459H47.1645V46.5636H47.1642ZM34.8161 46.5636H28.6975H28.6962H28.6945H22.5759V49.644H28.6945H28.6975H34.8161V46.5636ZM22.468 46.5636H16.3494H16.3481H16.3468H10.2281V49.644H16.3468H16.3494H22.468V46.5636ZM139.774 43.3889H133.655H133.654H133.652H127.534V46.4699H133.652H133.655H139.774V43.3889ZM127.426 43.3889H121.307H121.306H121.304H115.186V46.4699H121.304H121.307H127.426V43.3889ZM115.078 43.3889H108.959H108.958H108.956H102.837V46.4699H108.956H108.959H115.078V43.3889ZM102.73 43.3889H96.6112H96.6096H96.6083H90.4893V46.4699H96.6083H96.6112H102.73V43.3889ZM90.3821 43.3889H84.2632H84.2622H84.2609H78.1422V46.4699H84.2609H84.2635H90.3825V43.3889H90.3821ZM78.0337 43.3889H71.9154H71.9141H71.9128H65.7942V46.4699H71.9128H71.9154H78.0337V43.3889ZM65.686 43.3889H59.5673H59.566H59.5647H53.4461V46.4699H59.5647H59.5673H65.686V43.3889ZM53.3382 43.3889H47.2196H47.2183H47.217H41.0983V46.4699H47.217H47.2199H53.3386V43.3889H53.3382ZM40.9902 43.3889H34.8715H34.8702H34.8689H28.7503V46.4699H34.8689H34.8715H40.9902V43.3889ZM28.6421 43.3889H22.5234H22.5218H22.5205H16.4022V46.4699H22.5208H22.5237H28.6424L28.6421 43.3889ZM145.948 40.2147H139.829H139.828H139.827H133.708V43.2955H139.827H139.829H145.948V40.2147ZM133.6 40.2147H127.482H127.48H127.479H121.36V43.2955H127.479H127.482H133.6V40.2147ZM121.252 40.2147H115.133H115.132H115.13H109.012V43.2955H115.13H115.133H121.252V40.2147ZM108.904 40.2147H102.785H102.784H102.783H96.664V43.2955H102.783H102.786H108.905V40.2147H108.904ZM96.5558 40.2147H90.4378H90.4359H90.4346H84.3156V43.2955H90.4346H90.4378H96.5558V40.2147ZM84.2081 40.2147H78.0894H78.0881H78.0865H71.9682V43.2955H78.0865H78.0894H84.2081V40.2147ZM71.86 40.2147H65.7414H65.7397H65.7384H59.6201V43.2955H65.7384H65.7414H71.86V40.2147ZM59.5123 40.2147H53.3936H53.3923H53.391H47.2724V43.2955H53.391H53.3936H59.5123V40.2147ZM47.1642 40.2147H41.0455H41.0442H41.0429H34.9243V43.2955H41.0429H41.0459H47.1645V40.2147H47.1642ZM34.8161 40.2147H28.6975H28.6962H28.6945H22.5759V43.2955H28.6945H28.6975H34.8161V40.2147ZM22.468 40.2147H16.3494H16.3481H16.3468H10.2281V43.2955H16.3468H16.3494H22.468V40.2147ZM139.774 37.0403H133.655H133.654H133.652H127.534V40.121H133.652H133.655H139.774V37.0403ZM127.426 37.0403H121.307H121.306H121.304H115.186V40.121H121.304H121.307H127.426V37.0403ZM115.078 37.0403H108.959H108.958H108.956H102.837V40.121H108.956H108.959H115.078V37.0403ZM102.73 37.0403H96.6112H96.6096H96.6083H90.4893V40.121H96.6083H96.6112H102.73V37.0403ZM90.3821 37.0403H84.2632H84.2622H84.2609H78.1422V40.121H84.2609H84.2635H90.3825V37.0403H90.3821ZM78.0337 37.0403H71.9154H71.9141H71.9128H65.7942V40.121H71.9128H71.9154H78.0337V37.0403ZM65.686 37.0403H59.5673H59.566H59.5647H53.4461V40.121H59.5647H59.5673H65.686V37.0403ZM53.3382 37.0403H47.2196H47.2183H47.217H41.0983V40.121H47.217H47.2199H53.3386V37.0403H53.3382ZM40.9902 37.0403H34.8715H34.8702H34.8689H28.7503V40.121H34.8689H34.8715H40.9902V37.0403ZM28.6421 37.0403H22.5234H22.5218H22.5205H16.4022V40.121H22.5208H22.5237H28.6424L28.6421 37.0403ZM145.948 33.8655H139.829H139.828H139.827H133.708V36.9462H139.827H139.829H145.948V33.8655ZM133.6 33.8655H127.482H127.48H127.479H121.36V36.9462H127.479H127.482H133.6V33.8655ZM121.252 33.8655H115.133H115.132H115.13H109.012V36.9462H115.13H115.133H121.252V33.8655ZM108.904 33.8655H102.785H102.784H102.783H96.664V36.9462H102.783H102.786H108.905V33.8655H108.904ZM96.5558 33.8655H90.4378H90.4359H90.4346H84.3156V36.9462H90.4346H90.4378H96.5558V33.8655ZM84.2081 33.8655H78.0894H78.0881H78.0865H71.9682V36.9462H78.0865H78.0894H84.2081V33.8655ZM71.86 33.8655H65.7414H65.7397H65.7384H59.6201V36.9462H65.7384H65.7414H71.86V33.8655ZM59.5123 33.8655H53.3936H53.3923H53.391H47.2724V36.9462H53.391H53.3936H59.5123V33.8655ZM47.1642 33.8655H41.0455H41.0442H41.0429H34.9243V36.9462H41.0429H41.0459H47.1645V33.8655H47.1642ZM34.8161 33.8655H28.6975H28.6962H28.6945H22.5759V36.9462H28.6945H28.6975H34.8161V33.8655ZM22.468 33.8655H16.3494H16.3481H16.3468H10.2281V36.9462H16.3468H16.3494H22.468V33.8655ZM139.774 30.691H133.655H133.654H133.652H127.534V33.7718H133.652H133.655H139.774V30.691ZM127.426 30.691H121.307H121.306H121.304H115.186V33.7718H121.304H121.307H127.426V30.691ZM115.078 30.691H108.959H108.958H108.956H102.837V33.7718H108.956H108.959H115.078V30.691ZM102.73 30.691H96.6112H96.6096H96.6083H90.4893V33.7718H96.6083H96.6112H102.73V30.691ZM90.3821 30.691H84.2632H84.2622H84.2609H78.1422V33.7718H84.2609H84.2635H90.3825V30.691H90.3821ZM78.0337 30.691H71.9154H71.9141H71.9128H65.7942V33.7718H71.9128H71.9154H78.0337V30.691ZM65.686 30.691H59.5673H59.566H59.5647H53.4461V33.7718H59.5647H59.5673H65.686V30.691ZM53.3382 30.691H47.2196H47.2183H47.217H41.0983V33.7718H47.217H47.2199H53.3386V30.691H53.3382ZM40.9902 30.691H34.8715H34.8702H34.8689H28.7503V33.7718H34.8689H34.8715H40.9902V30.691ZM28.6421 30.691H22.5234H22.5218H22.5205H16.4022V33.7718H22.5208H22.5237H28.6424L28.6421 30.691ZM145.948 27.5169H139.829H139.828H139.827H133.708V30.5977H139.827H139.829H145.948V27.5169ZM133.6 27.5169H127.482H127.48H127.479H121.36V30.5977H127.479H127.482H133.6V27.5169ZM121.252 27.5169H115.133H115.132H115.13H109.012V30.5977H115.13H115.133H121.252V27.5169ZM108.904 27.5169H102.785H102.784H102.783H96.664V30.5977H102.783H102.786H108.905V27.5169H108.904ZM96.5558 27.5169H90.4378H90.4359H90.4346H84.3156V30.5977H90.4346H90.4378H96.5558V27.5169ZM84.2081 27.5169H78.0894H78.0881H78.0865H71.9682V30.5977H78.0865H78.0894H84.2081V27.5169ZM71.86 27.5169H65.7414H65.7397H65.7384H59.6201V30.5977H65.7384H65.7414H71.86V27.5169ZM59.5123 27.5169H53.3936H53.3923H53.391H47.2724V30.5977H53.391H53.3936H59.5123V27.5169ZM47.1642 27.5169H41.0455H41.0442H41.0429H34.9243V30.5977H41.0429H41.0459H47.1645V27.5169H47.1642ZM34.8161 27.5169H28.6975H28.6962H28.6945H22.5759V30.5977H28.6945H28.6975H34.8161V27.5169ZM22.468 27.5169H16.3494H16.3481H16.3468H10.2281V30.5977H16.3468H16.3494H22.468V27.5169ZM139.774 24.3421H133.655H133.654H133.652H127.534V27.4232H133.652H133.655H139.774V24.3421ZM127.426 24.3421H121.307H121.306H121.304H115.186V27.4232H121.304H121.307H127.426V24.3421ZM115.078 24.3421H108.959H108.958H108.956H102.837V27.4232H108.956H108.959H115.078V24.3421ZM102.73 24.3421H96.6112H96.6096H96.6083H90.4893V27.4232H96.6083H96.6112H102.73V24.3421ZM90.3821 24.3421H84.2632H84.2622H84.2609H78.1422V27.4232H84.2609H84.2635H90.3825V24.3421H90.3821ZM78.0337 24.3421H71.9154H71.9141H71.9128H65.7942V27.4232H71.9128H71.9154H78.0337V24.3421ZM65.686 24.3421H59.5673H59.566H59.5647H53.4461V27.4232H59.5647H59.5673H65.686V24.3421ZM53.3382 24.3421H47.2196H47.2183H47.217H41.0983V27.4232H47.217H47.2199H53.3386V24.3421H53.3382ZM40.9902 24.3421H34.8715H34.8702H34.8689H28.7503V27.4232H34.8689H34.8715H40.9902V24.3421ZM28.6421 24.3421H22.5234H22.5218H22.5205H16.4022V27.4232H22.5208H22.5237H28.6424L28.6421 24.3421ZM145.948 21.1677H139.829H139.828H139.827H133.708V24.2484H139.827H139.829H145.948V21.1677ZM133.6 21.1677H127.482H127.48H127.479H121.36V24.2484H127.479H127.482H133.6V21.1677ZM121.252 21.1677H115.133H115.132H115.13H109.012V24.2484H115.13H115.133H121.252V21.1677ZM108.904 21.1677H102.785H102.784H102.783H96.664V24.2484H102.783H102.786H108.905V21.1677H108.904ZM96.5558 21.1677H90.4378H90.4359H90.4346H84.3156V24.2484H90.4346H90.4378H96.5558V21.1677ZM84.2081 21.1677H78.0894H78.0881H78.0865H71.9682V24.2484H78.0865H78.0894H84.2081V21.1677ZM71.86 21.1677H65.7414H65.7397H65.7384H59.6201V24.2484H65.7384H65.7414H71.86V21.1677ZM59.5123 21.1677H53.3936H53.3923H53.391H47.2724V24.2484H53.391H53.3936H59.5123V21.1677ZM47.1642 21.1677H41.0455H41.0442H41.0429H34.9243V24.2484H41.0429H41.0459H47.1645V21.1677H47.1642ZM34.8161 21.1677H28.6975H28.6962H28.6945H22.5759V24.2484H28.6945H28.6975H34.8161V21.1677ZM22.468 21.1677H16.3494H16.3481H16.3468H10.2281V24.2484H16.3468H16.3494H22.468V21.1677ZM139.774 17.9936H133.655H133.654H133.652H127.534V21.0743H133.652H133.655H139.774V17.9936ZM127.426 17.9936H121.307H121.306H121.304H115.186V21.0743H121.304H121.307H127.426V17.9936ZM115.078 17.9936H108.959H108.958H108.956H102.837V21.0743H108.956H108.959H115.078V17.9936ZM102.73 17.9936H96.6112H96.6096H96.6083H90.4893V21.0743H96.6083H96.6112H102.73V17.9936ZM90.3821 17.9936H84.2632H84.2622H84.2609H78.1422V21.0743H84.2609H84.2635H90.3825V17.9936H90.3821ZM78.0337 17.9936H71.9154H71.9141H71.9128H65.7942V21.0743H71.9128H71.9154H78.0337V17.9936ZM65.686 17.9936H59.5673H59.566H59.5647H53.4461V21.0743H59.5647H59.5673H65.686V17.9936ZM53.3382 17.9936H47.2196H47.2183H47.217H41.0983V21.0743H47.217H47.2199H53.3386V17.9936H53.3382ZM40.9902 17.9936H34.8715H34.8702H34.8689H28.7503V21.0743H34.8689H34.8715H40.9902V17.9936ZM28.6421 17.9936H22.5234H22.5218H22.5205H16.4022V21.0743H22.5208H22.5237H28.6424L28.6421 17.9936ZM145.948 14.8191H139.829H139.828H139.827H133.708V17.8998H139.827H139.829H145.948V14.8191ZM133.6 14.8191H127.482H127.48H127.479H121.36V17.8998H127.479H127.482H133.6V14.8191ZM121.252 14.8191H115.133H115.132H115.13H109.012V17.8998H115.13H115.133H121.252V14.8191ZM108.904 14.8191H102.785H102.784H102.783H96.664V17.8998H102.783H102.786H108.905V14.8191H108.904ZM96.5558 14.8191H90.4378H90.4359H90.4346H84.3156V17.8998H90.4346H90.4378H96.5558V14.8191ZM84.2081 14.8191H78.0894H78.0881H78.0865H71.9682V17.8998H78.0865H78.0894H84.2081V14.8191ZM71.86 14.8191H65.7414H65.7397H65.7384H59.6201V17.8998H65.7384H65.7414H71.86V14.8191ZM59.5123 14.8191H53.3936H53.3923H53.391H47.2724V17.8998H53.391H53.3936H59.5123V14.8191ZM47.1642 14.8191H41.0455H41.0442H41.0429H34.9243V17.8998H41.0429H41.0459H47.1645V14.8191H47.1642ZM34.8161 14.8191H28.6975H28.6962H28.6945H22.5759V17.8998H28.6945H28.6975H34.8161V14.8191ZM22.468 14.8191H16.3494H16.3481H16.3468H10.2281V17.8998H16.3468H16.3494H22.468V14.8191ZM139.774 11.6447H133.655H133.654H133.652H127.534V14.7254H133.652H133.655H139.774V11.6447ZM127.426 11.6447H121.307H121.306H121.304H115.186V14.7254H121.304H121.307H127.426V11.6447ZM115.078 11.6447H108.959H108.958H108.956H102.837V14.7254H108.956H108.959H115.078V11.6447ZM102.73 11.6447H96.6112H96.6096H96.6083H90.4893V14.7254H96.6083H96.6112H102.73V11.6447ZM90.3821 11.6447H84.2632H84.2622H84.2609H78.1422V14.7254H84.2609H84.2635H90.3825V11.6447H90.3821ZM78.0337 11.6447H71.9154H71.9141H71.9128H65.7942V14.7254H71.9128H71.9154H78.0337V11.6447ZM65.686 11.6447H59.5673H59.566H59.5647H53.4461V14.7254H59.5647H59.5673H65.686V11.6447ZM53.3382 11.6447H47.2196H47.2183H47.217H41.0983V14.7254H47.217H47.2199H53.3386V11.6447H53.3382ZM40.9902 11.6447H34.8715H34.8702H34.8689H28.7503V14.7254H34.8689H34.8715H40.9902V11.6447ZM28.6421 11.6447H22.5234H22.5218H22.5205H16.4022V14.7254H22.5208H22.5237H28.6424L28.6421 11.6447Z" fill="#94CDE3" fill-opacity="0.2"/>
</g>
<path fill-rule="evenodd" clip-rule="evenodd" d="M26.7459 123.548C15.227 118.673 10.2025 109.377 9.97607 99.3176H146.187C145.925 106.15 142.964 113.367 135.743 120.648L108.453 125.082H44.6196L26.7459 123.548Z" fill="#94CDE3" fill-opacity="0.2"/>
<path fill-rule="evenodd" clip-rule="evenodd" d="M112.807 55.4278C113.373 55.4278 113.916 55.5303 114.418 55.7174C114.645 55.4666 114.972 55.3091 115.335 55.3091C115.505 55.3091 115.666 55.3432 115.814 55.4054C115.895 54.3329 116.787 53.4885 117.875 53.4885C118.347 53.4885 118.783 53.6477 119.131 53.9158C119.354 53.608 119.715 53.4072 120.123 53.4072C120.192 53.4072 120.259 53.4131 120.323 53.4238C120.185 53.1004 120.11 52.7441 120.11 52.3699C120.11 50.89 121.304 49.69 122.777 49.69C123.052 49.69 123.316 49.7313 123.565 49.8091C123.759 49.3949 124.177 49.1079 124.663 49.1079L124.699 49.1089C124.692 49.0122 124.689 48.9149 124.689 48.8167C124.689 46.1567 126.836 44 129.484 44C132.132 44 134.278 46.1567 134.278 48.8167C134.278 48.8541 134.277 48.8912 134.277 48.928C134.508 48.8694 134.751 48.8378 135 48.8378C135.495 48.8378 135.963 48.9615 136.373 49.1795C137.072 48.2215 138.2 47.5997 139.473 47.5997C141.594 47.5997 143.313 49.3269 143.313 51.4578C143.313 51.8766 143.246 52.2801 143.123 52.6575C143.162 52.6552 143.2 52.6539 143.239 52.6539C144.284 52.6539 145.13 53.5045 145.13 54.5535C145.13 54.6772 145.119 54.7976 145.096 54.9141C145.109 54.9137 145.123 54.9134 145.135 54.9134C145.726 54.9134 146.207 55.3839 146.226 55.9719C146.39 55.941 146.558 55.9244 146.732 55.9244C147.413 55.9244 148.052 56.1626 148.511 56.5992C149.739 57.7667 148.398 58.07 147.106 58.07H145.42H144.097H116.98H114.864H111.387C110.039 58.07 108.114 58.2915 109.452 56.8761C110.294 55.9839 111.486 55.4278 112.807 55.4278Z" fill="white" fill-opacity="0.4"/>
<path fill-rule="evenodd" clip-rule="evenodd" d="M93.9715 32.6748H94.9335C95.1094 32.6748 95.2535 32.8189 95.2535 32.9963V33.962C95.2535 34.1387 95.1094 34.2835 94.9335 34.2835H93.9715C93.7957 34.2835 93.6519 34.1387 93.6519 33.962V32.9963C93.6519 32.8189 93.7957 32.6748 93.9715 32.6748Z" fill="white" fill-opacity="0.4"/>
<path fill-rule="evenodd" clip-rule="evenodd" d="M97.2551 32.6748H98.217C98.3926 32.6748 98.5367 32.8189 98.5367 32.9963V33.962C98.5367 34.1387 98.3926 34.2835 98.217 34.2835H97.2551C97.0792 34.2835 96.9351 34.1387 96.9351 33.962V32.9963C96.9351 32.8189 97.0792 32.6748 97.2551 32.6748Z" fill="white" fill-opacity="0.4"/>
<path fill-rule="evenodd" clip-rule="evenodd" d="M100.538 32.6748H101.5C101.675 32.6748 101.82 32.8189 101.82 32.9963V33.962C101.82 34.1387 101.675 34.2835 101.5 34.2835H100.538C100.362 34.2835 100.218 34.1387 100.218 33.962V32.9963C100.218 32.8189 100.362 32.6748 100.538 32.6748Z" fill="white" fill-opacity="0.4"/>
<path fill-rule="evenodd" clip-rule="evenodd" d="M103.82 32.6748H104.781C104.957 32.6748 105.101 32.8189 105.101 32.9963V33.962C105.101 34.1387 104.957 34.2835 104.781 34.2835H103.82C103.644 34.2835 103.5 34.1387 103.5 33.962V32.9963C103.5 32.8189 103.644 32.6748 103.82 32.6748Z" fill="white" fill-opacity="0.4"/>
<path fill-rule="evenodd" clip-rule="evenodd" d="M98.6229 26.8746C99.0132 26.8746 99.3869 26.9452 99.7332 27.0744C99.8893 26.9013 100.115 26.7926 100.365 26.7926C100.483 26.7926 100.593 26.8164 100.695 26.859C100.751 26.1201 101.366 25.5383 102.115 25.5383C102.441 25.5383 102.741 25.6479 102.981 25.8324C103.135 25.6203 103.384 25.482 103.665 25.482C103.712 25.482 103.758 25.4862 103.802 25.4931C103.707 25.2705 103.655 25.0251 103.655 24.7671C103.655 23.7474 104.478 22.9206 105.494 22.9206C105.682 22.9206 105.865 22.9492 106.037 23.0026C106.17 22.7169 106.459 22.5197 106.793 22.5197L106.817 22.52C106.813 22.4533 106.811 22.3863 106.811 22.3189C106.811 20.486 108.289 19 110.115 19C111.939 19 113.418 20.486 113.418 22.3189C113.418 22.3446 113.418 22.3703 113.417 22.3957C113.577 22.355 113.743 22.3336 113.915 22.3336C114.257 22.3336 114.579 22.4188 114.862 22.5691C115.343 21.9093 116.121 21.4801 116.998 21.4801C118.46 21.4801 119.644 22.6707 119.644 24.1388C119.644 24.4277 119.598 24.7053 119.514 24.9656C119.54 24.964 119.566 24.9633 119.593 24.9633C120.313 24.9633 120.896 25.549 120.896 26.2723C120.896 26.3573 120.888 26.4402 120.873 26.5206C120.882 26.5203 120.891 26.5203 120.901 26.5203C121.307 26.5203 121.638 26.8447 121.651 27.2501C121.764 27.2287 121.881 27.2173 122 27.2173C122.47 27.2173 122.909 27.3813 123.225 27.6822C124.072 28.4866 123.148 28.6955 122.257 28.6955H121.096H120.184H101.499H100.04H97.6444C96.7164 28.6955 95.3898 28.8484 96.3109 27.8729C96.8917 27.2579 97.7124 26.8746 98.6229 26.8746Z" fill="white" fill-opacity="0.4"/>
<path fill-rule="evenodd" clip-rule="evenodd" d="M33.4904 96.898C32.9819 96.898 32.4948 96.9901 32.0446 97.1584C31.8408 96.9332 31.5467 96.792 31.2203 96.792C31.068 96.792 30.9232 96.8222 30.7911 96.8782C30.7182 95.9154 29.9176 95.1569 28.9404 95.1569C28.5161 95.1569 28.1255 95.3001 27.8126 95.5405C27.6127 95.2643 27.2882 95.0847 26.9219 95.0847C26.861 95.0847 26.8007 95.0899 26.7424 95.0993C26.8662 94.8088 26.9348 94.4889 26.9348 94.1534C26.9348 92.8246 25.8624 91.7472 24.5396 91.7472C24.2932 91.7472 24.0558 91.7843 23.8316 91.8539C23.658 91.482 23.2823 91.224 22.8463 91.224L22.8146 91.2246C22.8198 91.1381 22.8224 91.0512 22.8224 90.963C22.8224 88.5747 20.8955 86.6387 18.5182 86.6387C16.1408 86.6387 14.214 88.5747 14.214 90.963C14.214 90.9966 14.2143 91.0294 14.2149 91.0629C14.0073 91.0102 13.7897 90.9816 13.5658 90.9816C13.1205 90.9816 12.7011 91.0929 12.3328 91.2884C11.7054 90.4284 10.6932 89.8701 9.55023 89.8701C7.64606 89.8701 6.10207 91.4212 6.10207 93.3338C6.10207 93.7106 6.16231 94.0727 6.27243 94.4121C6.23778 94.4092 6.20312 94.4082 6.16814 94.4082C5.23015 94.4082 4.46997 95.1725 4.46997 96.1139C4.46997 96.2248 4.48066 96.3332 4.50074 96.4376C4.48908 96.437 4.4771 96.437 4.46511 96.437C3.93523 96.437 3.5038 96.8593 3.48664 97.3878C3.33926 97.3598 3.18768 97.3448 3.03221 97.3448C2.41973 97.3448 1.84742 97.5579 1.4351 97.9503C0.331922 98.9981 1.53615 99.2708 2.69666 99.2708H4.20989H5.3976H29.743H31.6433H34.7653C35.9747 99.2708 37.7023 99.4696 36.502 98.1993C35.746 97.3975 34.6762 96.898 33.4904 96.898Z" fill="white" fill-opacity="0.4"/>
<path fill-rule="evenodd" clip-rule="evenodd" d="M131.496 71.6417C135.851 67.1878 139.09 72.8459 138.638 78.5255C138.209 83.9107 133.588 102.387 134.445 110.16H132.676C128.348 100.193 125.921 77.3441 131.496 71.6417Z" fill="#387286"/>
<path fill-rule="evenodd" clip-rule="evenodd" d="M133.326 110.16C129.114 94.4496 134.447 72.7334 134.465 72.6592C134.498 72.5248 134.633 72.4419 134.767 72.4747C134.901 72.5073 134.984 72.6433 134.951 72.7783C134.933 72.8522 129.593 94.5934 133.838 110.16H133.326V110.16Z" fill="#92B8C9"/>
<path fill-rule="evenodd" clip-rule="evenodd" d="M142.241 81.459C146.829 79.0163 147.987 84.3454 146.198 88.7547C144.715 92.4085 138.166 103.216 135.689 110.16H133.357C133.158 100.564 136.823 84.3419 142.241 81.459Z" fill="#5293AA"/>
<path fill-rule="evenodd" clip-rule="evenodd" d="M134.208 110.16C135.726 97.1814 144.318 83.074 144.349 83.0229C144.409 82.9234 144.538 82.8921 144.636 82.952C144.735 83.0125 144.766 83.1414 144.706 83.2406C144.676 83.2917 136.14 97.3076 134.623 110.16H134.208Z" fill="#E6F2F0"/>
<path fill-rule="evenodd" clip-rule="evenodd" d="M122.843 87.6187C118.396 85.667 117.691 90.7153 119.667 94.6974C121.003 97.3916 125.822 104.291 129.066 110.16H132.769C131.503 101.282 127.441 89.6357 122.843 87.6187Z" fill="white" fill-opacity="0.4"/>
<path fill-rule="evenodd" clip-rule="evenodd" d="M131.448 110.16C128.29 99.4033 121.018 89.2659 120.989 89.2253C120.926 89.1371 120.804 89.1166 120.716 89.1797C120.628 89.2425 120.608 89.3649 120.67 89.4534C120.7 89.494 127.895 99.5256 131.045 110.16H131.448Z" fill="#94CDE3"/>
<path fill-rule="evenodd" clip-rule="evenodd" d="M138.469 106.609H125.438C125.048 106.609 124.73 106.929 124.73 107.321V110.553C124.73 110.945 125.048 111.265 125.438 111.265H138.469C138.859 111.265 139.178 110.945 139.178 110.553V107.321C139.178 106.929 138.859 106.609 138.469 106.609Z" fill="#1E1850"/>
<path fill-rule="evenodd" clip-rule="evenodd" d="M136.235 109.238H127.674L125.439 111.265L127.265 118.33H131.954H136.644L138.469 111.265L136.235 109.238Z" fill="#1E1850"/>
<path fill-rule="evenodd" clip-rule="evenodd" d="M125.439 111.264L125.814 112.717L137.478 115.104L138.469 111.264H125.439Z" fill="#17152D"/>
<path fill-rule="evenodd" clip-rule="evenodd" d="M33.8386 52.873C39.5524 52.873 44.2126 48.1914 44.2126 42.4516C44.2126 36.7112 39.5524 32.0295 33.8386 32.0295C28.1245 32.0295 23.4644 36.7112 23.4644 42.4516C23.4644 48.1917 28.1245 52.873 33.8386 52.873Z" fill="#5293AA"/>
<path d="M38.1662 41.7817H29.689V43.122H38.1662V41.7817Z" fill="#FFF58B"/>
<path fill-rule="evenodd" clip-rule="evenodd" d="M28.1239 40.02C28.6207 40.02 29.0275 40.4284 29.0275 40.9278V43.9757C29.0275 44.4749 28.621 44.8835 28.1239 44.8835C27.6267 44.8835 27.2202 44.4749 27.2202 43.9757V40.9278C27.2202 40.4284 27.6264 40.02 28.1239 40.02Z" fill="#EFD37E"/>
<path fill-rule="evenodd" clip-rule="evenodd" d="M28.9693 39.0146C28.4724 39.0146 28.0659 39.423 28.0659 39.9221V44.9802C28.0659 45.4794 28.4724 45.8877 28.9693 45.8877C29.4664 45.8877 29.8729 45.4797 29.8729 44.9802V39.9221C29.8726 39.423 29.4661 39.0146 28.9693 39.0146Z" fill="#FFF58B"/>
<path fill-rule="evenodd" clip-rule="evenodd" d="M29.8403 38.2363C30.3375 38.2363 30.744 38.6447 30.744 39.1442V45.7582C30.744 46.2577 30.3375 46.6661 29.8407 46.6661C29.3435 46.6661 28.937 46.2577 28.937 45.7582V39.1442C28.9364 38.645 29.3432 38.2363 29.8403 38.2363Z" fill="#E3A030"/>
<path fill-rule="evenodd" clip-rule="evenodd" d="M39.5578 40.02C39.0606 40.02 38.6538 40.4284 38.6538 40.9278V43.9757C38.6538 44.4749 39.0606 44.8835 39.5578 44.8835C40.0546 44.8835 40.4615 44.4749 40.4615 43.9757V40.9278C40.4611 40.4284 40.0546 40.02 39.5578 40.02Z" fill="#EFD37E"/>
<path fill-rule="evenodd" clip-rule="evenodd" d="M38.7173 39.0146C39.2145 39.0146 39.621 39.423 39.621 39.9221V44.9802C39.621 45.4794 39.2145 45.8877 38.7173 45.8877C38.2205 45.8877 37.814 45.4797 37.814 44.9802V39.9221C37.8136 39.423 38.2205 39.0146 38.7173 39.0146Z" fill="#FFF58B"/>
<path fill-rule="evenodd" clip-rule="evenodd" d="M37.8446 38.2363C37.3474 38.2363 36.9409 38.6447 36.9409 39.1442V45.7582C36.9409 46.2577 37.3474 46.6661 37.8446 46.6661C38.3414 46.6661 38.7482 46.2577 38.7482 45.7582V39.1442C38.7482 38.645 38.3418 38.2363 37.8446 38.2363Z" fill="#E3A030"/>
<path fill-rule="evenodd" clip-rule="evenodd" d="M77.1995 92.7979C83.2164 92.7979 88.1244 87.868 88.1244 81.8236C88.1244 75.7789 83.2167 70.8484 77.1995 70.8484C71.1822 70.8484 66.2749 75.7786 66.2749 81.8236C66.2752 87.8676 71.1825 92.7979 77.1995 92.7979Z" fill="#FFF58B"/>
<path fill-rule="evenodd" clip-rule="evenodd" d="M71.7061 78.6446C72.9453 77.4004 74.9726 77.4004 76.2112 78.6446L77.1987 79.637L78.1862 78.6446C79.4248 77.4004 81.4521 77.4004 82.6906 78.6446C85.8936 81.8624 81.1288 85.6166 77.1987 87.7782C73.6122 86.1249 68.4996 81.8659 71.7061 78.6446Z" fill="#D1544B"/>
<path fill-rule="evenodd" clip-rule="evenodd" d="M82.5485 78.5103C83.757 81.7 81.1684 84.4163 78.278 85.9909C76.8642 86.761 75.3102 86.7627 75.3218 86.7701C75.8462 87.1004 76.4049 87.3939 76.9076 87.6396C77.0054 87.6874 77.1026 87.7336 77.1985 87.7782C77.4906 87.6174 77.7873 87.4476 78.0856 87.2699C81.7932 85.0606 85.6547 81.6222 82.6904 78.6443C82.6451 78.5981 82.5971 78.5529 82.5485 78.5103Z" fill="#CC342A"/>
<path fill-rule="evenodd" clip-rule="evenodd" d="M78.6629 83.345C78.6629 83.2432 78.7452 83.1609 78.8459 83.1609C78.9473 83.1609 79.0296 83.2435 79.0296 83.345C79.0296 83.8035 78.821 84.2177 78.4838 84.5171C78.1531 84.8099 77.6977 84.9918 77.197 84.9918C76.6956 84.9918 76.2412 84.8099 75.9099 84.5171C75.573 84.2177 75.3647 83.8038 75.3647 83.345C75.3647 83.2432 75.4464 83.1609 75.5481 83.1609C75.6491 83.1609 75.7314 83.2435 75.7314 83.345C75.7314 83.6939 75.8924 84.0118 76.1518 84.2418C76.4174 84.4774 76.7866 84.6232 77.197 84.6232C77.6067 84.6232 77.976 84.4774 78.2419 84.2418C78.502 84.0118 78.6629 83.6939 78.6629 83.345Z" fill="white" fill-opacity="0.4"/>
<path fill-rule="evenodd" clip-rule="evenodd" d="M75.7327 81.9959C75.7327 82.0981 75.6508 82.1804 75.5491 82.1804C75.4477 82.1804 75.3661 82.0977 75.3661 81.9959C75.3661 81.868 75.3142 81.7519 75.2307 81.6676C75.1474 81.584 75.0315 81.5322 74.9042 81.5322C74.7766 81.5322 74.661 81.584 74.5771 81.6676C74.4938 81.7519 74.4423 81.868 74.4423 81.9959C74.4423 82.0981 74.3601 82.1804 74.259 82.1804C74.1576 82.1804 74.0757 82.0977 74.0757 81.9959C74.0757 81.7668 74.1683 81.5579 74.3183 81.4073C74.4686 81.257 74.6759 81.1636 74.9042 81.1636C75.1322 81.1636 75.3395 81.257 75.4891 81.4073L75.4901 81.4083C75.6398 81.5592 75.7327 81.7672 75.7327 81.9959Z" fill="white" fill-opacity="0.4"/>
<path fill-rule="evenodd" clip-rule="evenodd" d="M80.3593 81.9959C80.3593 82.0981 80.2774 82.1804 80.1763 82.1804C80.0753 82.1804 79.9927 82.0977 79.9927 81.9959C79.9927 81.868 79.9412 81.7519 79.8583 81.6676C79.7744 81.584 79.6588 81.5322 79.5311 81.5322C79.4032 81.5322 79.2882 81.584 79.2043 81.6676C79.1208 81.7519 79.0693 81.868 79.0693 81.9959C79.0693 82.0981 78.987 82.1804 78.8863 82.1804C78.7849 82.1804 78.7026 82.0977 78.7026 81.9959C78.7026 81.7668 78.7953 81.5579 78.9456 81.4073C79.0962 81.257 79.3035 81.1636 79.5315 81.1636C79.7598 81.1636 79.9668 81.257 80.1164 81.4073L80.1177 81.4083C80.2667 81.5592 80.3593 81.7672 80.3593 81.9959Z" fill="white" fill-opacity="0.4"/>
<path fill-rule="evenodd" clip-rule="evenodd" d="M73.6637 78.3456C72.5368 78.2711 71.5137 79.0758 71.4544 80.3119C71.3951 81.5487 72.0623 81.2506 72.2405 80.4908C72.4186 79.7314 73.0706 79.0758 74.1531 79.135C75.2355 79.1945 74.4051 78.3902 73.6637 78.3456ZM72.1255 81.5002C72.3351 81.5002 72.5054 81.671 72.5054 81.8822C72.5054 82.093 72.3351 82.2639 72.1255 82.2639C71.9156 82.2639 71.7456 82.0934 71.7456 81.8822C71.7453 81.671 71.9156 81.5002 72.1255 81.5002Z" fill="white" fill-opacity="0.4"/>
<path d="M50.3255 74.0003C50.3497 67.5821 45.1902 62.3583 38.8015 62.3325C32.4128 62.3067 27.214 67.4888 27.1898 73.907C27.1656 80.3251 32.3251 85.549 38.7138 85.5747C45.1025 85.6005 50.3012 80.4184 50.3255 74.0003Z" fill="#387286"/>
<path fill-rule="evenodd" clip-rule="evenodd" d="M34.9577 67.8254H42.562C42.8127 67.8254 43.0469 68.0177 43.0174 68.2491L41.5716 79.6577C41.5421 79.8891 41.3662 80.0817 41.1162 80.0817H36.4842C36.2338 80.0817 36.0596 79.8891 36.0288 79.6577L34.5023 68.2491C34.4712 68.0177 34.707 67.8254 34.9577 67.8254Z" fill="white" fill-opacity="0.4"/>
<path fill-rule="evenodd" clip-rule="evenodd" d="M39.4488 73.0195C38.0266 72.3352 36.8172 72.4094 35.9702 72.8643L36.8224 79.235H40.7745L41.5506 73.1132C40.8121 73.2805 40.0535 73.3107 39.4488 73.0195Z" fill="#B0DAED"/>
<path fill-rule="evenodd" clip-rule="evenodd" d="M36.6152 73.6405C36.5656 74.3072 36.7075 75.6865 36.8137 76.5085C36.9475 77.5474 37.503 77.3359 37.4459 76.6816C37.4006 76.1648 37.3669 74.1449 37.0336 73.4918C36.8396 73.1124 36.6424 73.2764 36.6152 73.6405Z" fill="white" fill-opacity="0.4"/>
<path fill-rule="evenodd" clip-rule="evenodd" d="M37.5996 77.7694C37.5727 77.4626 37.0739 77.3701 37.025 77.6776C36.9226 78.3183 37.6546 78.4019 37.5996 77.7694Z" fill="white" fill-opacity="0.4"/>
<path d="M49.5808 125.934C46.3078 125.778 42.2619 125.818 40.6926 127.289C39.1639 128.722 41.4059 130.583 44.38 131.187C47.3542 131.79 50.6966 131.516 53.8643 131.28C70.3209 130.05 87.1391 130.085 103.575 131.383C106.471 131.611 109.456 131.877 112.297 131.515C115.139 131.152 117.813 129.964 117.879 128.472C117.939 127.114 115.81 125.929 113.34 125.414C110.87 124.9 108.114 124.916 105.447 124.958C95.0614 125.118 84.692 125.539 74.3878 126.216C65.7876 126.781 58.2087 126.344 49.5808 125.934Z" fill="#E8E8D1"/>
<path d="M34.1528 73.0553C42.3186 73.0553 49.0509 72.5398 56.8545 71.2449C59.68 68.0253 62.9478 62.7925 65.1117 59.0919C63.3482 57.0428 61.0054 55.5492 58.4708 54.6245C56.4122 57.7383 54.3535 60.852 52.2946 63.9658C46.1075 66.017 39.8799 68.0467 33.6929 70.098C33.7993 70.8845 34.0471 72.2687 34.1528 73.0553Z" fill="#FFB59E"/>
<path d="M63.1006 42.849L55.7852 55.8198C55.3596 56.5747 55.5465 57.5289 56.2255 58.0651L62.7534 63.2227C63.446 63.7698 64.4355 63.7135 65.0619 63.0915L68.4207 59.7573C68.7606 59.4198 68.9485 58.9574 68.9398 58.4775C68.8887 55.7312 70.0324 44.2023 67.5416 40.6332C66.8094 39.5851 63.7288 41.7348 63.1006 42.849Z" fill="#96A5D4"/>
<path d="M35.7837 70.1868C35.3364 69.3834 34.7257 68.6718 34.0005 68.1089C33.0706 68.0298 31.7854 67.926 30.8552 67.8469C30.0852 68.1152 29.2148 68.2977 28.4448 68.5659C29.3089 69.492 30.0334 69.6028 31.1523 69.0128C32.7493 69.5272 32.4742 70.8573 33.3453 71.1277C34.2164 71.3984 35.2937 70.9593 35.7837 70.1868Z" fill="#FFB59E"/>
<path d="M35.8029 70.1456C33.5864 70.5028 31.37 70.86 29.1531 71.2169C28.4651 70.9075 27.6832 70.5415 26.9951 70.2321C27.6941 69.8502 28.2474 69.2462 28.6989 68.5876C27.5488 68.7627 26.3883 68.9937 25.3716 69.5619C25.2319 70.2546 25.1605 70.841 25.3341 71.5259C25.9868 72.0695 26.8142 72.4085 27.6384 72.6082C30.0943 73.2041 32.7513 72.4622 35.2338 71.9922C35.5579 71.931 35.889 71.861 36.1676 71.6838C36.4461 71.5066 36.6645 71.1968 36.6425 70.8667C36.6208 70.5362 36.1287 70.0932 35.8029 70.1456Z" fill="#FFB59E"/>
<path d="M26.9625 73.0445C26.6227 72.3311 26.5345 71.4535 26.6927 70.7633C27.3374 70.3235 28.0975 70.0084 28.8756 69.8921C29.4716 69.8027 30.0029 70.3161 29.935 70.9177L29.9336 70.93C34.1099 67.8472 35.9383 70.2637 36.2557 70.6019C36.5602 70.9265 36.6795 71.5569 36.549 71.9834C36.3785 72.5396 36.4153 73.1802 35.9211 73.3845C34.3066 74.0515 31.0374 74.7895 29.3001 74.9962C28.0772 75.1418 27.5341 74.2448 26.9625 73.0445Z" fill="#FFB59E"/>
<path d="M29.655 71.0506C29.2637 70.916 28.8626 71.091 28.5032 71.2394C28.0787 71.4145 27.6541 71.5896 27.2292 71.7647C27.0619 71.8336 27.1939 72.0833 27.3601 72.0147C27.6807 71.8825 28.0013 71.7503 28.3219 71.6181C28.6369 71.4884 28.9799 71.2953 29.3271 71.2855C29.5969 71.2778 29.8527 71.4328 29.9553 71.6881C30.061 71.9507 29.9633 72.2453 29.754 72.4236C29.6158 72.5414 29.8058 72.7492 29.9437 72.6317C30.4834 72.1733 30.3287 71.2823 29.655 71.0506Z" fill="#FF8A65"/>
<path d="M30.6457 72.7236C30.4756 72.461 30.1858 72.3506 29.8813 72.3808C29.5506 72.4139 29.2206 72.5538 28.9147 72.6779C28.5857 72.8112 28.2675 72.9691 27.9606 73.1477C27.8045 73.2384 27.9344 73.4887 28.0919 73.3977C28.565 73.1227 29.0666 72.8949 29.5898 72.7338C29.8215 72.6628 30.1004 72.5925 30.3076 72.7609C30.4949 72.9132 30.5257 73.1733 30.4021 73.3755C30.3073 73.5302 30.5435 73.6835 30.6383 73.5285C30.7881 73.2844 30.8046 72.9691 30.6457 72.7236Z" fill="#FF8A65"/>
<path d="M125.337 72.4586C117.172 72.4586 110.439 71.9431 102.636 70.6482C99.8102 67.4286 96.5424 62.1958 94.3784 58.4952C96.142 56.4461 98.4848 54.9525 101.019 54.0278C103.078 57.1416 105.137 60.2553 107.196 63.3691C113.383 65.4203 119.61 67.4504 125.797 69.5013C125.691 70.2878 125.443 71.672 125.337 72.4586Z" fill="#FFB59E"/>
<path d="M96.3948 42.2521L103.71 55.2229C104.136 55.9777 103.949 56.932 103.27 57.4682L96.742 62.6257C96.0494 63.1728 95.06 63.1166 94.4335 62.4946L91.0747 59.1604C90.7348 58.8229 90.5469 58.3605 90.5557 57.8806C90.6071 55.1343 89.463 43.6054 91.9538 40.0363C92.6857 38.9882 95.7662 41.1379 96.3948 42.2521Z" fill="#96A5D4"/>
<path d="M68.9807 46.0468C68.7728 43.7868 68.3486 41.7907 67.5412 40.6336C66.8094 39.5852 63.7288 41.7348 63.1006 42.8491L55.7852 55.8198C55.3596 56.5747 55.5465 57.529 56.2255 58.0651L59.83 60.9131C64.054 57.2122 66.3306 51.1496 68.9807 46.0468Z" fill="#96A5D4"/>
<path d="M68.981 46.0464C66.3309 51.1491 64.0546 57.2117 59.8296 60.913L62.753 63.2226C63.4456 63.7697 64.435 63.7135 65.0619 63.0915L68.4207 59.7573C68.7605 59.4198 68.9485 58.9574 68.9397 58.4775C68.9047 56.6214 69.4143 50.7567 68.981 46.0464Z" fill="#788ABF"/>
<path d="M91.7522 45.168C91.2832 47.1703 90.8142 49.173 90.3452 51.1754C90.3918 54.121 90.5734 56.7482 90.5524 57.881C90.5433 58.361 90.7316 58.8233 91.0714 59.1608L94.4302 62.495C95.0567 63.117 96.0465 63.1733 96.7387 62.6262L99.4574 60.4783C94.4726 58.1658 92.2894 50.5646 91.7522 45.168Z" fill="#788ABF"/>
<path d="M103.71 55.2232L96.3941 42.2524C95.7659 41.1382 92.685 38.9885 91.9535 40.037C90.4899 42.1342 90.2816 46.9785 90.3481 51.1756C90.8171 49.1732 91.2861 47.1705 91.7551 45.1682C92.2923 50.5648 94.4755 58.166 99.4604 60.4785L103.27 57.4688C103.948 56.9323 104.135 55.978 103.71 55.2232Z" fill="#96A5D4"/>
<path d="M123.708 69.5898C124.156 68.786 124.767 68.0747 125.492 67.5118C126.422 67.4327 127.707 67.329 128.637 67.2502C129.407 67.5185 130.277 67.701 131.047 67.9693C130.183 68.8954 129.459 69.0061 128.34 68.4161C126.743 68.9305 127.018 70.2606 126.147 70.531C125.276 70.8014 124.199 70.3622 123.708 69.5898Z" fill="#FFB59E"/>
<path d="M123.691 69.5489C125.907 69.9061 128.124 70.263 130.34 70.6202C131.028 70.3108 131.81 69.9448 132.498 69.6354C131.799 69.2536 131.246 68.6495 130.795 67.991C131.945 68.1661 133.105 68.3971 134.122 68.9652C134.261 69.6579 134.333 70.2444 134.159 70.9293C133.506 71.4728 132.679 71.8118 131.855 72.0118C129.399 72.6074 126.742 71.8659 124.259 71.3958C123.935 71.3347 123.604 71.2647 123.326 71.0875C123.047 70.9103 122.829 70.6009 122.851 70.2704C122.873 69.9395 123.365 69.4965 123.691 69.5489Z" fill="#FFB59E"/>
<path d="M132.527 72.4476C132.867 71.7342 132.955 70.8566 132.797 70.1664C132.152 69.7262 131.392 69.4116 130.614 69.2952C130.018 69.2059 129.487 69.7192 129.555 70.3208L129.556 70.3334C125.38 67.2506 123.551 69.6675 123.234 70.0054C122.929 70.3299 122.81 70.9603 122.941 71.3868C123.111 71.9431 123.075 72.5837 123.568 72.7879C125.183 73.4549 128.452 74.1933 130.189 74.3997C131.413 74.5449 131.955 73.648 132.527 72.4476Z" fill="#FFB59E"/>
<path d="M129.836 70.4537C130.228 70.319 130.629 70.4941 130.988 70.6425C131.413 70.8176 131.838 70.9927 132.262 71.1678C132.429 71.2367 132.298 71.4863 132.131 71.4178C131.81 71.2856 131.49 71.1534 131.169 71.0212C130.854 70.8914 130.511 70.6984 130.164 70.6886C129.894 70.6808 129.638 70.8359 129.536 71.0911C129.43 71.3538 129.528 71.6484 129.737 71.8267C129.875 71.9445 129.685 72.1523 129.547 72.0348C129.008 71.5763 129.163 70.6854 129.836 70.4537Z" fill="#FF8A65"/>
<path d="M128.842 72.127C129.012 71.8643 129.302 71.7539 129.607 71.7842C129.937 71.8172 130.267 71.9571 130.573 72.0813C130.902 72.2145 131.22 72.3724 131.527 72.551C131.683 72.6417 131.553 72.8924 131.396 72.801C130.923 72.526 130.421 72.2982 129.898 72.1375C129.666 72.0661 129.388 71.9962 129.18 72.1646C128.993 72.3168 128.962 72.577 129.086 72.7795C129.181 72.9342 128.944 73.0875 128.85 72.9325C128.7 72.6878 128.683 72.3724 128.842 72.127Z" fill="#FF8A65"/>
<path d="M47.9586 82.3755C49.1818 80.3345 51.9649 79.7263 54.2696 80.2878C56.5742 80.8496 58.5355 82.3161 60.4899 83.6659C62.4438 85.0157 64.5696 86.3184 66.9362 86.4699C70.4161 86.6932 73.4988 84.425 76.7719 83.2173C82.3793 81.1481 89.0654 82.3882 93.5677 86.3324C95.8573 85.9984 97.9337 84.9489 99.8835 83.6979C101.833 82.4469 103.821 81.1393 106.084 80.6566C108.347 80.1742 110.99 80.7097 112.366 82.5777C113.522 84.1476 113.547 86.3493 112.846 88.1706C112.144 89.9918 110.814 91.4949 109.406 92.8419C101.975 99.9501 91.4975 103.729 81.2625 102.993C73.5807 102.44 66.2912 99.5064 59.1813 96.5323C56.1644 95.27 53.0782 93.9459 50.7256 91.6669C48.3737 89.3878 46.2731 85.1883 47.9586 82.3755Z" fill="#992A3F"/>
<path d="M97.8477 84.7191C97.853 84.6143 97.8491 84.505 97.8383 84.3914C97.8365 84.3738 97.8341 84.3559 97.8323 84.3379C97.819 84.2247 97.8005 84.1091 97.77 83.9871C97.4858 82.8416 96.2087 82.2656 95.8972 81.1781C95.5686 80.0284 96.2651 79.2233 96.7901 78.3358C97.0288 77.9325 97.2321 77.5124 97.2877 77.0353V77.0346C97.3066 76.8721 97.3147 76.71 97.315 76.549C97.315 76.4942 97.3094 76.4397 97.3073 76.3848C97.3035 76.2786 97.3 76.1724 97.2891 76.067C97.2821 76.0016 97.2702 75.9365 97.2608 75.8715C97.2471 75.7773 97.2342 75.6827 97.2153 75.5888C97.2013 75.5195 97.1834 75.4503 97.167 75.3813C97.1456 75.292 97.1246 75.2031 97.0994 75.1145C97.0791 75.0431 97.0557 74.9717 97.033 74.9004C97.0057 74.8146 96.978 74.7291 96.9472 74.6437C96.921 74.5706 96.893 74.4978 96.8643 74.425C96.8317 74.342 96.7988 74.2587 96.7638 74.1761C96.7327 74.1022 96.7005 74.0288 96.6672 73.9553C96.6308 73.8737 96.5934 73.7925 96.5549 73.7113C96.5195 73.6371 96.4838 73.5629 96.4474 73.4891C96.4306 73.4557 96.4156 73.4219 96.3988 73.3885C96.3988 73.3895 96.3984 73.391 96.3984 73.392C95.716 72.038 94.828 70.7237 94.3727 69.4334C92.3372 63.6665 92.7491 57.9013 93.5583 51.8873C93.63 51.3532 94.2488 46.7873 94.9295 43.6683C95.3114 41.9188 94.2401 40.1667 92.508 39.7424C83.5862 37.5558 74.0659 37.856 65.304 40.6185C64.3373 40.9234 63.7966 41.9543 64.1 42.9254C65.0191 45.8668 66.1128 51.8612 66.1846 52.5722C66.3683 54.3966 66.3914 56.2372 66.2619 58.0666C66.2525 58.1988 66.2413 58.3306 66.2304 58.4625C66.2021 58.8049 66.1695 59.147 66.1303 59.4884C66.1195 59.5834 66.1083 59.6783 66.0964 59.7732C66.0516 60.1343 65.9998 60.4947 65.9427 60.854C65.9266 60.9546 65.9112 61.0555 65.8944 61.1557C65.8283 61.5477 65.7555 61.9387 65.675 62.3279C65.6578 62.4113 65.6393 62.4939 65.6214 62.5769C65.5329 62.9889 65.4387 63.3996 65.3341 63.8078C65.3071 63.9122 65.2788 64.0174 65.2484 64.1228C64.554 66.5485 63.0165 69.2467 62.6522 71.8805C62.5255 72.7968 62.5409 73.7049 62.7827 74.5913C63.2065 76.1422 64.9103 77.0557 65.619 78.3647C65.6834 78.4835 65.7394 78.6059 65.7859 78.7321C65.809 78.7954 65.8297 78.8594 65.8475 78.9248C65.9014 79.1206 65.9308 79.3263 65.9305 79.5446C65.9301 79.6174 65.927 79.6916 65.9196 79.7672C65.8983 79.9943 65.8454 80.2348 65.7544 80.4915C65.6218 80.8663 65.4272 81.1992 65.2036 81.5125C65.0359 81.7474 64.8518 81.9713 64.6656 82.1932C64.1067 82.8588 63.5264 83.5071 63.3 84.3872C63.2583 84.5493 63.2384 84.7047 63.2384 84.8537C63.238 85.5981 63.7319 86.1789 64.4479 86.6226C64.5197 86.6669 64.5935 86.7102 64.6691 86.7517C64.8207 86.835 64.9803 86.913 65.1451 86.9858C66.5478 87.605 68.358 87.8525 69.2413 87.8595C69.4121 87.8609 69.5819 87.855 69.7502 87.8448C69.8069 87.8413 69.8633 87.8349 69.9196 87.83C70.0312 87.8209 70.1425 87.8107 70.2535 87.7966C70.32 87.7882 70.3861 87.7776 70.4523 87.7678C70.5524 87.7527 70.6521 87.7365 70.7515 87.7182C70.8212 87.7052 70.8905 87.6911 70.9598 87.6767C71.0553 87.6567 71.1509 87.6349 71.246 87.6117C71.316 87.5948 71.386 87.5776 71.4557 87.5593C71.5502 87.5343 71.6443 87.5072 71.7385 87.4798C71.8071 87.4598 71.8757 87.4404 71.9439 87.419C72.0419 87.3884 72.1399 87.3554 72.2376 87.3223C72.3002 87.3009 72.3635 87.2812 72.4262 87.2587C72.5791 87.2045 72.7314 87.1479 72.8833 87.0888C74.411 86.495 75.8967 85.6754 77.4205 85.0665C83.2729 82.7283 87.5984 84.9596 93.1551 86.6504C94.7178 87.1251 97.748 86.7555 97.8477 84.7191Z" fill="#96A5D4"/>
<path d="M75.9851 32.1741C75.8742 34.5533 75.7632 36.9326 75.6519 39.3119C75.2473 39.2173 74.7475 39.4335 74.4669 39.7412C74.1862 40.0488 74.0864 40.5122 74.2152 40.9088C74.3405 41.2949 74.652 41.5884 74.9729 41.8356C77.293 43.6231 80.768 43.7114 83.1748 42.0434C83.542 41.7889 83.8934 41.4886 84.1044 41.0938C84.3154 40.6989 84.3627 40.1923 84.1307 39.8094C83.8986 39.4265 83.3481 39.2415 82.975 39.4873C82.2519 37.1847 81.9128 34.7766 81.8589 32.3629L75.9851 32.1741Z" fill="#FFB59E"/>
<path d="M81.2637 37.4185C81.6364 37.2782 81.9899 37.0989 82.3273 36.8911C82.0424 35.4003 81.8947 33.8828 81.8608 32.3625L75.987 32.1741C75.9194 33.6191 75.8522 35.0639 75.7847 36.5089C77.3586 37.6393 79.386 37.9842 81.2637 37.4185Z" fill="#FF8A65"/>
<path d="M88.4842 21.5965C87.8717 21.2463 87.1731 20.8359 87.0555 20.1531C86.9288 19.4187 87.542 18.7759 87.7597 18.0618C87.9998 17.2743 87.7058 16.358 87.0482 15.845C86.3906 15.3317 85.4096 15.2536 84.6749 15.6552C85.2034 15.3377 85.7382 15.0156 86.1687 14.5796C86.5992 14.1436 86.9212 13.5737 86.9268 12.9682C86.9383 11.7334 85.6024 10.8091 84.3369 10.7901C83.0713 10.7711 81.9006 11.4033 80.8269 12.0573C80.2473 12.4103 79.5085 12.7816 78.9254 12.4338C78.3192 12.0724 78.3423 11.2032 77.943 10.6301C77.4247 9.88615 76.2368 9.82286 75.4717 10.3249C74.7067 10.827 74.3147 11.7306 74.1684 12.6188C74.0217 13.5069 74.0798 14.4144 73.9993 15.3106C73.9189 16.2068 73.6753 17.135 73.039 17.7858C72.3026 18.5386 71.1253 18.8357 70.5485 19.7112C70.0074 20.5325 70.1642 21.6084 70.4344 22.5486C70.7539 23.6607 71.2058 24.7366 71.7759 25.7488C72.2809 26.6454 72.787 27.3293 73.5423 27.844H85.5587C85.5762 27.792 85.5926 27.7392 85.6115 27.6879C86.0399 26.5079 86.9033 25.4837 88.0071 24.8452C88.7477 24.417 89.7168 23.9824 89.7424 23.1428C89.7634 22.4512 89.0967 21.9466 88.4842 21.5965Z" fill="#BF360C"/>
<path d="M86.964 21.9664C86.4442 21.637 85.8514 21.2509 85.7516 20.6086C85.6442 19.9173 86.1646 19.3129 86.3494 18.641C86.5531 17.9002 86.3036 17.0381 85.7453 16.5554C85.1871 16.0726 84.3548 15.9988 83.7312 16.3767C84.1798 16.0782 84.6334 15.7752 84.9988 15.3648C85.3642 14.9545 85.6372 14.4183 85.6421 13.8487C85.6519 12.6871 84.5183 11.8176 83.4445 11.7996C82.3708 11.7817 81.3772 12.3766 80.4661 12.9919C79.9741 13.3242 79.3472 13.6733 78.8527 13.3463C78.3382 13.0063 78.3578 12.1885 78.0191 11.6495C77.5791 10.9495 76.5712 10.8901 75.9219 11.3623C75.2727 11.8344 74.9402 12.685 74.816 13.5204C74.6917 14.3558 74.7407 15.2098 74.6725 16.0529C74.6042 16.896 74.3978 17.7694 73.8574 18.3819C73.2327 19.0904 72.2331 19.3699 71.7438 20.1933C71.2846 20.9661 71.4176 21.978 71.6469 22.8627C71.9181 23.909 72.3017 24.9213 72.7854 25.8734C73.2141 26.7172 73.6432 27.3606 74.2844 27.8448H84.4815C84.4962 27.7959 84.5106 27.7463 84.5263 27.6978C84.89 26.5878 85.6225 25.6238 86.559 25.0232C87.1876 24.6203 88.0097 24.2114 88.0314 23.4213C88.0493 22.7702 87.4837 22.2955 86.964 21.9664Z" fill="#782208"/>
<path d="M73.8141 26.8339C73.505 26.6957 73.1886 26.5557 72.8516 26.5266C72.5146 26.4974 72.1471 26.599 71.9399 26.868C71.7061 27.1714 71.7324 27.6109 71.8832 27.9632C72.1625 28.6158 72.8481 29.0704 73.5551 29.0725L73.8141 26.8339Z" fill="#FF8A65"/>
<path d="M84.8276 26.8339C85.1367 26.6957 85.4531 26.5557 85.7901 26.5266C86.1271 26.4974 86.4946 26.599 86.7018 26.868C86.9356 27.1714 86.9093 27.6109 86.7585 27.9632C86.4792 28.6158 85.7936 29.0704 85.0866 29.0725L84.8276 26.8339Z" fill="#FF8A65"/>
<path d="M79.2887 35.5601C77.5028 35.6396 73.2914 33.3039 73.2914 29.6719L72.8413 24.6342C72.8413 21.0019 75.728 18.0576 79.2887 18.0576C80.8136 21.389 85.7362 21.0022 85.7362 24.6342L85.5111 29.6719C85.5115 33.3039 81.4502 35.4638 79.2887 35.5601Z" fill="#FFB59E"/>
<path d="M80.6819 28.8223C80.3827 28.4222 79.8931 28.1701 79.3929 28.1736C78.889 28.1775 78.4168 28.4254 78.1113 28.8244C78.0192 28.9443 78.2166 29.0709 78.3076 28.9517C78.5684 28.6114 78.9897 28.4004 79.4188 28.4081C79.8511 28.4162 80.2514 28.636 80.5094 28.9805C80.6 29.1018 80.7715 28.9422 80.6819 28.8223Z" fill="#FF8A65"/>
<path d="M81.6084 31.3263C80.0961 31.8977 78.3847 31.8337 76.9123 31.172C76.7748 31.1104 76.7044 31.3344 76.8402 31.3956C78.3739 32.0847 80.1472 32.1273 81.7176 31.5341C81.8576 31.481 81.7477 31.2736 81.6084 31.3263Z" fill="#3E2723"/>
<path d="M80.3735 32.6153C79.5969 32.8347 78.7765 32.8403 77.9985 32.6251C77.8536 32.585 77.7812 32.8083 77.9264 32.8487C78.7436 33.0748 79.6091 33.0752 80.4257 32.8445C80.5699 32.8034 80.5188 32.5741 80.3735 32.6153Z" fill="#FF8A65"/>
<path d="M77.0339 26.3258C76.2768 26.6008 75.4477 26.5871 74.7012 26.284C74.5616 26.2274 74.4905 26.451 74.6291 26.5076C75.4089 26.8244 76.2947 26.8423 77.086 26.5547C77.2257 26.5041 77.1753 26.2745 77.0339 26.3258Z" fill="#3E2723"/>
<path d="M84.0222 26.3258C83.2651 26.6008 82.436 26.5871 81.6895 26.284C81.5499 26.2274 81.4788 26.451 81.6174 26.5076C82.3975 26.8244 83.283 26.8423 84.0743 26.5547C84.2139 26.5041 84.1639 26.2745 84.0222 26.3258Z" fill="#3E2723"/>
<path d="M77.2277 21.9984C76.2016 21.8742 75.1334 22.1007 74.2409 22.6235C74.0299 22.7473 73.914 23.0324 74.0453 23.2581C74.1685 23.4701 74.4509 23.5872 74.677 23.4547C75.0987 23.2075 75.4179 23.082 75.8904 22.9839C75.9993 22.9614 76.1088 22.9427 76.2191 22.9283C76.2331 22.9266 76.3615 22.9143 76.351 22.9143C76.3919 22.9115 76.4329 22.909 76.4738 22.9072C76.7122 22.8974 76.9498 22.9083 77.1868 22.9371C77.43 22.9667 77.6746 22.729 77.6743 22.4885C77.6739 22.2174 77.4884 22.0296 77.2277 21.9984Z" fill="#782208"/>
<path d="M84.149 22.8701C83.3311 22.2759 82.3112 21.9546 81.3015 21.9764C81.0575 21.9817 80.8136 22.1596 80.814 22.425C80.8143 22.6662 80.9988 22.9204 81.2605 22.9148C81.4821 22.9099 81.7029 22.9208 81.9227 22.9503C81.9353 22.9521 82.0291 22.9668 82.0445 22.9686C82.0935 22.9781 82.1425 22.9879 82.1912 22.9992C82.299 23.0238 82.4057 23.053 82.5114 23.086C82.6171 23.1191 82.7214 23.1563 82.8243 23.1975C82.8792 23.2196 82.9331 23.2435 82.9874 23.2667C83.0042 23.2745 83.014 23.2791 83.0203 23.2819C83.0329 23.2882 83.0451 23.2942 83.0577 23.3005C83.2621 23.4042 83.4567 23.5248 83.6422 23.6595C83.841 23.8036 84.1658 23.7302 84.2886 23.5192C84.4223 23.2903 84.3611 23.0241 84.149 22.8701Z" fill="#782208"/>
<path d="M73.2483 107.526L61.8174 112.612C58.8107 113.916 57.5819 117.543 59.1726 120.419C60.9407 123.616 65.2466 124.258 67.8624 121.714L75.9338 113.606" fill="white" fill-opacity="0.4"/>
<path d="M77.6075 103.879C76.3042 105.105 75.0012 106.332 73.6978 107.558C73.6156 109.673 74.5644 111.886 76.1992 113.221C78.4793 112.362 80.7854 111.267 82.7516 109.824L77.6075 103.879Z" fill="#FFB59E"/>
<path d="M104.323 81.4099C94.8678 89.2333 85.4133 97.0567 75.9585 104.88C77.4242 107.869 78.7776 109.638 80.2434 112.627C91.0086 108.662 100.274 103.689 108.815 96.0044C110.361 94.6145 111.876 93.1494 112.961 91.3735C114.046 89.5976 114.672 87.4606 114.296 85.4115C113.896 83.2323 112.317 81.3097 110.263 80.5014C108.209 79.6931 106.025 80.0014 104.323 81.4099Z" fill="#BA334D"/>
<path d="M97.1358 103.176C98.8777 102.75 100.514 102.142 102.084 101.414C104.384 99.7695 106.625 97.9767 108.818 96.0042C110.363 94.6144 111.878 93.1489 112.963 91.3733C114.048 89.5978 114.674 87.4604 114.298 85.4113C113.898 83.2321 112.319 81.3096 110.265 80.5012C108.211 79.6929 106.028 80.0009 104.326 81.4098C96.8023 87.6351 89.2787 93.8602 81.7554 100.086C86.1162 103.74 91.8342 104.508 97.1358 103.176Z" fill="#BA334D"/>
<path d="M97.1333 103.176C91.8317 104.508 86.1137 103.741 81.7525 100.086C79.8213 101.684 77.8897 103.282 75.9585 104.88C77.4242 107.869 78.7776 109.638 80.2434 112.627C88.2454 109.68 95.418 106.174 102.081 101.413C100.511 102.142 98.8752 102.751 97.1333 103.176Z" fill="#992A3F"/>
<path d="M61.7809 112.878C59.7569 114.388 59.0703 117.23 60.353 119.549C61.9181 122.379 65.6178 123.057 68.0726 121.083C68.0729 117.33 65.6654 113.78 61.7809 112.878Z" fill="white" fill-opacity="0.4"/>
<path d="M73.9237 107.697L73.6969 107.558L62.8176 112.277C62.4417 112.44 62.0967 112.644 61.7827 112.878C65.6672 113.78 68.0751 117.329 68.074 121.083C68.2018 120.98 68.3274 120.873 68.4478 120.755L76.1979 113.22C76.7127 111.079 75.794 108.848 73.9237 107.697Z" fill="#96A5D4"/>
<path d="M71.4953 116.447C71.0771 114.265 69.7545 112.301 67.8807 111.117C67.6273 110.956 67.3448 111.331 67.5996 111.492C69.3726 112.613 70.6364 114.45 71.033 116.519C71.0897 116.815 71.5524 116.745 71.4953 116.447Z" fill="white" fill-opacity="0.4"/>
<path d="M73.214 115.417C72.7958 113.235 71.4736 111.271 69.5994 110.087C69.346 109.926 69.0636 110.301 69.3184 110.462C71.0914 111.583 72.3552 113.42 72.7517 115.489C72.8088 115.785 73.2714 115.715 73.214 115.417Z" fill="white" fill-opacity="0.4"/>
<path d="M74.2725 113.984C73.899 112.035 72.7175 110.28 71.0431 109.222C70.8167 109.079 70.5644 109.414 70.7922 109.558C72.3762 110.559 73.5053 112.2 73.8595 114.048C73.9102 114.313 74.3235 114.25 74.2725 113.984Z" fill="white" fill-opacity="0.4"/>
<path d="M86.2435 107.527L97.6744 112.612C100.681 113.917 101.91 117.544 100.319 120.42C98.5511 123.617 94.2456 124.258 91.6295 121.715L83.5581 113.606" fill="white" fill-opacity="0.4"/>
<path d="M81.8877 103.879C83.1911 105.106 84.4944 106.332 85.7974 107.559C85.8797 109.673 84.9309 111.886 83.2961 113.221C81.0159 112.363 78.7099 111.268 76.7437 109.824L81.8877 103.879Z" fill="#FFB59E"/>
<path d="M55.1661 81.4102C64.621 89.2336 74.0755 97.057 83.5303 104.88C82.0646 107.87 80.7112 109.638 79.2455 112.627C68.4803 108.662 59.2148 103.689 50.6734 96.0046C49.1282 94.6148 47.6128 93.1497 46.5282 91.3737C45.4432 89.5978 44.8171 87.4608 45.1933 85.4117C45.5933 83.2325 47.1728 81.31 49.2262 80.5016C51.2799 79.6933 53.4635 80.0017 55.1661 81.4102Z" fill="#BA334D"/>
<path d="M97.7088 112.879C99.7331 114.389 100.419 117.231 99.1371 119.55C97.5716 122.38 93.8723 123.058 91.4175 121.084C91.4164 117.33 93.8243 113.781 97.7088 112.879Z" fill="white" fill-opacity="0.4"/>
<path d="M85.5716 107.698L85.7984 107.558L96.6776 112.278C97.0535 112.441 97.3986 112.644 97.7125 112.878C93.8281 113.781 91.4202 117.33 91.4212 121.084C91.2935 120.981 91.1678 120.873 91.0474 120.756L83.2974 113.221C82.7825 111.079 83.7012 108.849 85.5716 107.698Z" fill="#96A5D4"/>
<path d="M87.9966 116.448C88.4148 114.266 89.7374 112.302 91.6112 111.117C91.8646 110.957 92.147 111.332 91.8922 111.493C90.1192 112.614 88.8554 114.451 88.4589 116.519C88.4022 116.816 87.9395 116.746 87.9966 116.448Z" fill="white" fill-opacity="0.4"/>
<path d="M86.2759 115.417C86.6941 113.235 88.0167 111.271 89.8905 110.087C90.1439 109.927 90.4263 110.301 90.1716 110.462C88.3985 111.583 87.1347 113.42 86.7382 115.489C86.6811 115.785 86.2188 115.716 86.2759 115.417Z" fill="white" fill-opacity="0.4"/>
<path d="M85.2187 113.985C85.5922 112.036 86.7737 110.281 88.448 109.223C88.6745 109.08 88.9268 109.414 88.699 109.558C87.1149 110.56 85.9859 112.201 85.6317 114.049C85.581 114.313 85.1676 114.251 85.2187 113.985Z" fill="white" fill-opacity="0.4"/>
<path d="M84.9125 41.6404C84.7445 43.5352 82.2925 44.2032 80.7431 44.3428C78.919 44.5074 77.0413 44.0868 75.4485 43.1825C74.5428 42.6685 73.7378 42.0029 73.0676 41.2037C72.8733 40.972 72.529 41.2899 72.7228 41.5209C74.0129 43.0584 75.8129 44.1276 77.7581 44.5847C79.633 45.0256 81.8228 44.9736 83.5556 44.0506C84.483 43.5563 85.2828 42.7568 85.3797 41.6608C85.4067 41.3595 84.9394 41.3398 84.9125 41.6404Z" fill="#788ABF"/>
<path d="M90.4947 78.3524C89.3023 77.0311 87.5583 76.3936 85.8175 76.2702C83.7494 76.124 81.7202 76.7284 79.8027 77.4432C77.7388 78.2125 75.7131 79.1463 73.5348 79.5485C71.641 79.8984 69.728 79.7342 67.9459 78.9895C66.0867 78.2128 64.4649 76.8599 63.4101 75.1325C63.3044 74.9595 63.024 75.1057 63.1308 75.2805C65.0091 78.357 68.5867 80.2556 72.1789 80.0348C74.3586 79.9008 76.4155 79.1034 78.4286 78.3116C80.455 77.5145 82.5483 76.6742 84.749 76.5744C86.7471 76.4837 88.8809 77.036 90.2623 78.5665C90.3985 78.718 90.6315 78.5039 90.4947 78.3524Z" fill="#788ABF"/>
<path d="M95.7618 83.8079C91.905 85.0856 88.0482 82.8994 84.2683 82.3671C83.3048 82.2314 82.3305 82.2036 81.3649 82.3344C80.4622 82.4567 79.5817 82.7074 78.7256 83.0161C76.9529 83.6553 75.28 84.5487 73.4916 85.1447C71.5467 85.793 69.3849 86.1302 67.4375 85.3096C67.25 85.2305 67.1541 85.5329 67.3403 85.6116C70.9357 87.1267 74.6633 84.9826 77.9445 83.6532C78.8215 83.2978 79.7178 82.9827 80.6439 82.783C81.6147 82.5738 82.6 82.5193 83.589 82.6069C85.5958 82.7848 87.5078 83.4634 89.4509 83.9514C91.5267 84.4728 93.7543 84.8054 95.8329 84.117C96.0233 84.054 95.9554 83.7439 95.7618 83.8079Z" fill="#788ABF"/>
<path fill-rule="evenodd" clip-rule="evenodd" d="M112.075 85.4448C118.446 85.4448 123.643 80.225 123.643 73.8237C123.643 67.4234 118.446 62.2029 112.075 62.2029C105.704 62.2029 100.507 67.4234 100.507 73.8237C100.507 80.225 105.704 85.4448 112.075 85.4448Z" fill="#FFF58B"/>
<path fill-rule="evenodd" clip-rule="evenodd" d="M111.711 69.0431C111.802 68.217 112.175 66.6499 112.7 66.5429C113.006 66.4807 113.401 66.6089 113.075 67.3332C112.758 68.0396 112.242 69.197 112.207 71.025C112.176 72.6643 111.608 69.9877 111.711 69.0431Z" fill="#387286"/>
<path fill-rule="evenodd" clip-rule="evenodd" d="M111.911 69.6787C111.81 68.3274 110.668 67.2833 109.018 67.3038C107.367 67.3243 106.898 67.5289 106.898 67.5289C106.898 67.5289 108.284 70.8869 111.911 69.6787Z" fill="#387286"/>
<path fill-rule="evenodd" clip-rule="evenodd" d="M110.572 81.1228C111.527 81.2266 111.778 80.5927 112.103 80.5927C112.434 80.5927 112.843 81.2266 113.594 81.1228C115.463 80.8651 121.355 72.7604 116.502 70.199C115.289 69.5589 113.425 70.4056 112.083 71.3137C110.913 70.5217 109.326 69.6468 108.18 70.0877C102.523 72.2648 108.303 80.8771 110.572 81.1228Z" fill="#D1544B"/>
<path fill-rule="evenodd" clip-rule="evenodd" d="M116.426 70.1606C117.559 72.7257 116.86 75.1462 115.392 76.9557C112.223 80.8599 108.282 79.4068 108.294 79.4224C109.116 80.3966 109.97 81.0575 110.576 81.1229C111.53 81.2267 111.781 80.5928 112.106 80.5928C112.438 80.5928 112.846 81.2267 113.597 81.1229C115.466 80.8651 121.359 72.7605 116.505 70.199C116.479 70.1854 116.453 70.1727 116.426 70.1606Z" fill="#CC342A"/>
<path fill-rule="evenodd" clip-rule="evenodd" d="M109.431 71.0624C108.011 70.9687 106.722 71.9826 106.647 73.5405C106.572 75.0991 107.413 74.7233 107.638 73.766C107.861 72.8084 108.684 71.9822 110.048 72.0577C111.412 72.1326 110.365 71.119 109.431 71.0624ZM107.492 75.0379C107.757 75.0379 107.971 75.2537 107.971 75.5195C107.971 75.785 107.757 76.0001 107.492 76.0001C107.228 76.0001 107.013 75.7853 107.013 75.5195C107.013 75.2537 107.228 75.0379 107.492 75.0379Z" fill="white" fill-opacity="0.4"/>
<path fill-rule="evenodd" clip-rule="evenodd" d="M110.867 68.8482C110.093 67.4204 108.552 67.7536 107.371 67.6768C108.899 67.3199 110.6 67.4956 111.477 68.8186C111.714 69.2953 111.106 69.3265 110.867 68.8482Z" fill="white" fill-opacity="0.4"/>
</g>
<defs>
<clipPath id="clip0_227_8449">
<rect width="146" height="139" fill="white" transform="translate(0.833496 0.5)"/>
</clipPath>
</defs>
</svg>
